{"glyphs":{"0":{"ha":997,"x_min":89,"x_max":1075,"o":"m 290 719 l 874 719 q 904 681 911 719 l 832 169 l 271 169 q 219 222 215 169 l 290 719 m 900 0 l 1001 719 q 908 890 1025 890 l 222 890 l 121 169 q 214 0 99 0 l 900 0 m 256 -69 q 150 -14 181 -69 q 89 119 89 18 q 93 174 89 146 l 197 918 l 908 918 q 1014 863 983 918 q 1075 729 1075 831 q 1071 674 1075 703 l 967 -69 l 256 -69 m 292 197 l 807 197 l 871 650 l 356 650 l 292 197 z "},"1":{"ha":422,"x_min":167,"x_max":500,"o":"m 199 719 l 299 719 q 329 681 335 719 l 233 0 l 325 0 l 426 719 q 333 890 449 890 l 222 890 l 199 719 m 197 918 l 333 918 q 439 863 408 918 q 500 729 500 831 q 496 674 500 700 l 392 -69 l 243 -69 l 249 -28 l 201 -28 l 296 650 l 208 650 l 214 692 l 167 692 l 197 918 z "},"2":{"ha":1000,"x_min":65,"x_max":1075,"o":"m 222 889 l 199 725 l 868 725 q 903 675 911 725 l 894 613 l 183 613 l 97 -1 l 900 -1 l 924 164 l 213 164 l 264 535 l 975 535 l 1000 715 q 914 889 1028 889 l 222 889 m 914 917 q 1017 863 988 917 q 1075 735 1075 831 q 1074 702 1075 719 q 1069 668 1072 685 l 1069 669 l 1042 465 l 329 465 l 292 192 l 956 192 l 950 150 l 997 150 l 967 -71 l 107 -71 l 113 -29 l 65 -29 l 158 640 l 869 640 l 871 656 l 208 656 l 214 697 l 167 697 l 197 917 l 914 917 z "},"3":{"ha":997,"x_min":65,"x_max":1075,"o":"m 199 719 l 874 719 q 904 681 911 719 l 894 611 l 183 611 l 172 533 l 883 533 l 832 164 l 121 164 l 97 0 l 900 0 l 1001 719 q 908 890 1025 890 l 222 890 l 199 719 m 197 918 l 908 918 q 1014 863 983 918 q 1075 729 1075 831 q 1071 674 1075 703 l 967 -69 l 107 -69 l 113 -28 l 65 -28 l 96 192 l 807 192 l 844 464 l 182 464 l 188 506 l 140 506 l 158 639 l 869 639 l 871 650 l 208 650 l 214 692 l 167 692 l 197 918 z "},"4":{"ha":917,"x_min":57,"x_max":1018,"o":"m 354 292 l 840 714 l 782 292 l 354 292 m 129 226 l 772 226 l 740 0 l 819 0 l 944 890 l 906 890 q 826 853 864 890 l 129 226 m 808 874 q 906 918 853 918 l 976 918 l 971 876 l 1018 876 l 886 -69 l 750 -69 l 756 -28 l 708 -28 l 733 157 l 99 157 l 144 199 l 57 199 l 808 874 m 757 319 l 790 556 l 518 319 l 757 319 z "},"5":{"ha":1000,"x_min":65,"x_max":1099,"o":"m 97 0 l 789 0 q 925 174 903 0 l 986 611 l 275 611 l 290 719 l 1001 719 l 1025 890 l 222 890 l 172 533 l 883 533 l 839 214 q 790 164 833 164 l 121 164 l 97 0 m 96 192 l 790 192 q 811 217 808 192 l 844 464 l 182 464 l 188 506 l 140 506 l 197 918 l 1057 918 l 1051 876 l 1099 876 l 1068 650 l 356 650 l 354 639 l 1018 639 l 1013 597 l 1060 597 l 994 128 q 831 -69 967 -69 l 107 -69 l 113 -28 l 65 -28 l 96 192 z "},"6":{"ha":999,"x_min":89,"x_max":1100,"o":"m 353 611 l 386 533 l 883 533 l 832 169 l 271 169 q 219 222 215 169 l 290 719 l 1003 719 l 1026 890 l 222 890 l 121 169 q 214 0 99 0 l 900 0 l 986 611 l 353 611 m 1053 876 l 1100 876 l 1069 650 l 356 650 l 354 639 l 1018 639 l 1013 597 l 1060 597 l 967 -69 l 256 -69 q 150 -14 181 -69 q 89 119 89 18 q 93 174 89 146 l 197 918 l 1058 918 l 1053 876 m 343 563 l 292 197 l 807 197 l 844 464 l 410 464 l 392 506 l 368 506 l 343 563 z "},"7":{"ha":969,"x_min":167,"x_max":1049,"o":"m 293 0 l 432 0 l 481 342 q 500 381 482 367 l 890 667 q 958 729 935 692 q 978 803 981 767 q 948 865 976 839 q 861 890 919 890 l 222 890 l 199 719 l 804 719 q 821 716 814 719 q 831 706 828 713 q 830 692 833 699 q 817 678 826 685 l 418 385 q 356 329 376 356 q 329 254 336 303 l 293 0 m 301 258 q 313 306 306 286 q 333 343 321 326 q 362 375 344 360 q 403 407 379 390 l 401 407 l 732 650 l 208 650 l 214 692 l 167 692 l 197 918 l 861 918 q 946 901 914 918 q 993 856 978 883 q 1035 814 1021 840 q 1049 757 1049 788 q 1022 673 1049 717 q 946 601 994 629 l 949 603 l 558 317 q 550 296 553 313 l 499 -69 l 303 -69 l 308 -28 l 261 -28 l 301 258 z "},"8":{"ha":997,"x_min":89,"x_max":1075,"o":"m 290 719 l 874 719 q 904 681 911 719 l 894 611 l 275 611 l 290 719 m 832 169 l 271 169 q 219 222 215 169 l 264 533 l 883 533 l 832 169 m 900 0 l 1001 719 q 908 890 1025 890 l 222 890 l 121 169 q 214 0 99 0 l 900 0 m 256 -69 q 150 -14 181 -69 q 89 119 89 18 q 93 174 89 146 l 197 918 l 908 918 q 1014 863 983 918 q 1075 729 1075 831 q 1071 674 1075 703 l 967 -69 l 256 -69 m 292 197 l 807 197 l 844 464 l 329 464 l 292 197 m 354 639 l 869 639 l 871 650 l 356 650 l 354 639 z "},"9":{"ha":999,"x_min":65,"x_max":1076,"o":"m 764 533 l 819 611 l 276 611 l 292 719 l 853 719 q 904 668 908 719 l 833 169 l 121 169 l 97 0 l 901 0 l 1003 719 q 910 890 1025 890 l 224 890 l 174 533 l 764 533 m 183 464 l 189 506 l 142 506 l 199 918 l 910 918 q 1015 863 985 918 q 1076 729 1076 831 q 1072 674 1076 700 l 968 -69 l 107 -69 l 113 -28 l 65 -28 l 96 197 l 808 197 l 853 511 l 819 464 l 183 464 m 356 639 l 872 639 l 874 650 l 357 650 l 356 639 m 865 597 l 871 635 l 843 597 l 865 597 z "},"!":{"ha":328,"x_min":65,"x_max":396,"o":"m 121 164 l 97 0 l 231 0 l 254 164 l 121 164 m 256 890 l 161 214 l 228 214 l 322 890 l 256 890 m 129 192 l 231 918 l 354 918 l 349 876 l 396 876 l 294 150 l 328 150 l 297 -69 l 107 -69 l 113 -28 l 65 -28 l 96 192 l 129 192 z "},"\"":{"ha":329,"x_min":146,"x_max":472,"o":"m 192 918 l 175 639 l 213 639 l 274 918 l 192 918 m 314 918 l 297 639 l 335 639 l 396 918 l 314 918 m 431 946 l 421 904 l 472 904 l 399 569 l 310 569 l 311 611 l 285 611 l 276 569 l 188 569 l 189 611 l 146 611 l 165 946 l 431 946 z "},"#":{"ha":774,"x_min":108,"x_max":836,"o":"m 279 396 l 299 533 l 564 533 l 544 396 l 279 396 m 188 324 l 228 324 l 182 0 l 224 0 l 269 324 l 535 324 l 489 0 l 582 0 l 628 324 l 722 324 l 732 396 l 638 396 l 657 533 l 751 533 l 763 611 l 668 611 l 707 890 l 614 890 l 575 611 l 310 611 l 349 890 l 307 890 l 268 611 l 183 611 l 217 533 l 257 533 l 238 396 l 153 396 l 188 324 m 108 424 l 213 424 l 224 501 l 222 506 l 199 506 l 142 639 l 243 639 l 282 918 l 381 918 l 375 876 l 422 876 l 389 639 l 550 639 l 589 918 l 739 918 l 733 876 l 781 876 l 747 639 l 794 639 l 789 597 l 836 597 l 818 464 l 722 464 l 717 424 l 764 424 l 758 382 l 806 382 l 789 254 l 693 254 l 649 -69 l 499 -69 l 504 -28 l 457 -28 l 496 254 l 335 254 l 290 -69 l 192 -69 l 197 -28 l 150 -28 l 194 289 l 190 296 l 169 296 l 108 424 m 358 424 l 519 424 l 525 464 l 364 464 l 358 424 z "},"$":{"ha":786,"x_min":93,"x_max":861,"o":"m 532 349 l 582 308 q 592 294 590 301 q 589 280 593 286 q 576 269 585 274 q 558 265 568 265 l 521 265 l 532 349 m 322 610 q 325 624 321 618 q 338 635 329 631 q 357 639 346 639 l 413 639 l 399 542 l 332 597 q 322 610 324 603 m 436 265 l 457 414 l 503 374 l 488 265 l 436 265 m 467 482 l 489 639 l 540 639 l 513 442 l 467 482 m 488 29 l 497 96 l 568 96 q 661 122 625 96 q 708 183 697 147 q 708 257 719 219 q 660 319 697 294 l 542 418 l 574 639 l 764 639 l 788 808 l 597 808 l 604 856 l 571 856 l 564 808 l 513 808 l 519 856 l 443 856 l 436 808 l 347 808 q 253 783 289 808 q 206 722 218 758 q 206 648 193 686 q 254 586 218 610 l 389 471 l 360 265 l 149 265 l 125 96 l 336 96 l 326 29 l 403 29 l 413 96 l 464 96 l 454 29 l 488 29 m 336 -40 l 342 1 l 294 1 l 297 26 l 135 26 l 140 68 l 93 68 l 124 293 l 335 293 l 358 454 l 278 524 l 281 521 q 239 563 253 538 q 189 617 206 585 q 172 685 172 650 q 183 741 172 714 q 217 789 194 768 q 272 823 239 810 q 347 836 304 836 l 411 836 l 418 883 l 636 883 l 629 842 l 678 842 l 676 836 l 819 836 l 814 794 l 861 794 l 831 569 l 639 569 l 614 393 l 678 340 l 675 342 q 715 301 700 325 l 719 299 l 717 300 q 767 244 750 276 q 783 178 783 213 q 772 122 783 149 q 739 74 761 94 q 685 40 717 53 q 610 26 653 26 l 563 26 l 554 -40 l 336 -40 m 239 563 l 238 563 l 238 564 l 236 565 l 239 563 z "},"%":{"ha":1074,"x_min":65,"x_max":1192,"o":"m 731 303 l 943 303 q 961 279 965 303 l 936 101 l 736 101 q 706 132 703 101 l 731 303 m 263 790 l 476 790 q 494 767 497 790 l 469 589 l 269 589 q 239 619 236 589 l 263 790 m 211 0 l 1085 890 l 1000 890 l 131 0 l 211 0 m 508 488 l 551 790 q 497 890 564 890 l 222 890 l 181 589 q 235 488 167 488 l 508 488 m 976 0 l 1019 303 q 964 403 1032 403 l 690 403 l 647 101 q 701 0 633 0 l 976 0 m 276 418 q 199 465 217 418 q 150 557 150 482 q 151 575 150 568 q 153 592 151 582 l 197 918 l 497 918 q 572 871 553 918 q 622 778 622 854 q 622 761 622 771 q 621 744 622 753 l 588 507 l 989 918 l 1150 918 l 1108 876 l 1192 876 l 754 431 l 964 431 q 1040 383 1024 431 q 1090 290 1090 367 q 1090 274 1090 283 q 1089 257 1090 265 l 1043 -69 l 743 -69 q 665 -22 685 -69 q 617 69 617 -3 q 617 88 617 81 q 619 104 618 94 l 650 324 l 264 -69 l 107 -69 l 147 -28 l 65 -28 l 500 418 l 276 418 m 314 617 l 444 617 l 460 721 l 328 721 l 314 617 m 781 129 l 911 129 l 926 233 l 796 233 l 781 129 z "},"&":{"ha":997,"x_min":65,"x_max":1060,"o":"m 213 164 l 264 533 l 753 533 l 701 164 l 213 164 m 592 719 l 615 890 l 339 890 q 199 719 224 890 l 97 0 l 900 0 l 924 164 l 808 164 l 860 533 l 975 533 l 986 611 l 275 611 l 285 681 q 326 719 290 719 l 592 719 m 368 650 q 354 639 358 650 l 1018 639 l 1013 597 l 1060 597 l 1042 464 l 925 464 l 888 192 l 956 192 l 950 150 l 997 150 l 967 -69 l 107 -69 l 113 -28 l 65 -28 l 171 724 q 339 918 199 918 l 647 918 l 642 876 l 689 876 l 658 650 l 368 650 m 292 192 l 676 192 l 714 464 l 329 464 l 292 192 z "},"'":{"ha":194,"x_min":139,"x_max":343,"o":"m 185 918 l 168 639 l 206 639 l 267 918 l 185 918 m 301 946 l 292 904 l 343 904 l 269 569 l 181 569 l 182 611 l 139 611 l 158 946 l 301 946 z "},"(":{"ha":390,"x_min":125,"x_max":519,"o":"m 285 -58 q 232 445 200 196 q 426 947 264 694 l 349 947 q 163 444 194 696 q 207 -58 131 193 l 285 -58 m 181 -67 q 125 296 125 114 q 176 632 125 463 q 333 975 226 801 l 478 975 q 465 954 471 964 q 451 933 458 944 l 519 933 q 347 586 403 751 q 292 265 292 421 q 310 79 292 178 q 365 -128 329 -19 l 249 -128 l 222 -108 q 218 -97 219 -101 q 215 -86 217 -92 l 207 -86 l 181 -67 z "},")":{"ha":390,"x_min":38,"x_max":432,"o":"m 231 946 q 283 442 315 692 q 89 -60 250 192 l 167 -60 q 352 442 319 192 q 308 946 385 693 l 231 946 m 376 913 q 432 550 432 733 q 381 214 432 382 q 224 -129 329 46 l 79 -129 q 92 -108 86 -118 q 106 -87 99 -99 l 38 -87 q 209 260 154 93 q 264 582 264 426 q 246 767 264 669 q 192 974 228 865 l 308 974 l 335 954 q 338 942 336 947 q 342 932 339 938 l 350 932 l 376 913 z "},"*":{"ha":758,"x_min":100,"x_max":821,"o":"m 531 650 l 500 864 l 413 650 l 190 660 l 358 536 l 251 328 l 444 467 l 600 328 l 551 536 l 754 660 l 531 650 m 513 971 l 528 864 l 554 929 l 590 681 l 767 688 l 778 644 l 808 646 l 821 601 l 624 481 l 688 208 l 485 389 l 300 257 l 263 288 l 274 310 l 258 299 l 221 329 l 318 519 l 142 650 l 157 649 l 100 692 l 393 678 l 513 971 z "},"+":{"ha":531,"x_min":128,"x_max":582,"o":"m 403 654 l 311 654 l 294 533 l 172 533 l 160 442 l 282 442 l 264 319 l 356 319 l 374 442 l 496 442 l 508 533 l 386 533 l 403 654 m 465 561 l 540 561 l 535 519 l 582 519 l 563 372 l 439 372 l 421 250 l 274 250 l 279 292 l 232 292 l 243 372 l 169 372 l 175 414 l 128 414 l 147 561 l 269 561 l 286 682 l 435 682 l 429 640 l 476 640 l 465 561 z "},",":{"ha":328,"x_min":26,"x_max":328,"o":"m 121 164 l 97 0 l 175 0 l 90 -92 l 131 -92 l 231 0 l 254 164 l 121 164 m 286 192 l 279 150 l 328 150 l 299 -56 l 185 -161 l 68 -161 l 106 -119 l 26 -119 l 110 -28 l 65 -28 l 96 192 l 286 192 z "},"-":{"ha":531,"x_min":133,"x_max":582,"o":"m 172 533 l 204 442 l 496 442 l 508 533 l 172 533 m 540 561 l 535 519 l 582 519 l 563 372 l 226 372 l 211 414 l 185 414 l 133 561 l 540 561 z "},".":{"ha":328,"x_min":65,"x_max":328,"o":"m 121 164 l 97 0 l 231 0 l 254 164 l 121 164 m 286 192 l 281 150 l 328 150 l 297 -69 l 107 -69 l 113 -28 l 65 -28 l 96 192 l 286 192 z "},"/":{"ha":610,"x_min":50,"x_max":726,"o":"m 156 0 l 638 890 l 575 890 l 97 0 l 156 0 m 92 -69 l 114 -28 l 50 -28 l 558 918 l 685 918 l 663 876 l 726 876 l 215 -69 l 92 -69 z "},":":{"ha":328,"x_min":65,"x_max":379,"o":"m 121 164 l 97 0 l 231 0 l 254 164 l 121 164 m 172 533 l 149 369 l 282 369 l 306 533 l 172 533 m 338 561 l 332 519 l 379 519 l 349 300 l 158 300 l 164 342 l 117 342 l 147 561 l 338 561 m 286 192 l 281 150 l 328 150 l 297 -69 l 107 -69 l 113 -28 l 65 -28 l 96 192 l 286 192 z "},";":{"ha":328,"x_min":26,"x_max":379,"o":"m 172 533 l 149 369 l 282 369 l 306 533 l 172 533 m 121 164 l 97 0 l 175 0 l 90 -92 l 131 -92 l 231 0 l 254 164 l 121 164 m 286 192 l 279 150 l 328 150 l 299 -56 l 185 -161 l 68 -161 l 106 -119 l 26 -119 l 110 -28 l 65 -28 l 96 192 l 286 192 m 338 561 l 332 519 l 379 519 l 349 300 l 158 300 l 164 342 l 117 342 l 147 561 l 338 561 z "},"<":{"ha":676,"x_min":128,"x_max":818,"o":"m 538 796 l 172 533 l 532 217 l 608 217 l 293 503 l 692 796 l 538 796 m 776 824 l 719 782 l 818 782 l 381 460 l 681 189 l 676 189 l 722 147 l 564 147 l 169 494 l 172 496 l 128 536 l 529 824 l 776 824 z "},"=":{"ha":553,"x_min":119,"x_max":618,"o":"m 186 636 l 222 569 l 536 569 l 544 636 l 186 636 m 165 483 l 200 415 l 514 415 l 524 483 l 165 483 m 576 664 l 571 622 l 618 622 l 603 500 l 554 500 l 550 469 l 597 469 l 581 346 l 225 346 l 203 388 l 183 388 l 119 511 l 239 511 l 224 542 l 204 542 l 139 664 l 576 664 z "},">":{"ha":676,"x_min":43,"x_max":732,"o":"m 282 215 l 646 478 l 286 794 l 211 794 l 525 508 l 128 215 l 282 215 m 85 146 l 140 188 l 43 188 l 479 508 l 182 781 l 186 781 l 140 822 l 296 822 l 690 475 l 688 472 l 732 433 l 332 146 l 85 146 z "},"?":{"ha":969,"x_min":167,"x_max":1049,"o":"m 322 164 l 299 0 l 432 0 l 456 164 l 322 164 m 332 233 l 465 233 l 481 342 q 500 381 482 367 l 890 667 q 958 729 935 692 q 978 803 981 767 q 948 865 976 839 q 861 890 919 890 l 222 890 l 199 719 l 804 719 q 821 716 814 719 q 831 706 828 713 q 830 692 833 699 q 817 678 826 685 l 418 385 q 358 324 376 356 q 335 254 340 293 l 332 233 m 307 258 q 334 338 314 303 q 403 407 354 374 l 401 407 l 732 650 l 208 650 l 214 692 l 167 692 l 197 918 l 861 918 q 946 901 914 918 q 993 856 978 883 q 1035 814 1021 840 q 1049 757 1049 788 q 1022 673 1049 717 q 946 601 994 629 l 949 603 l 558 317 q 550 296 553 313 l 532 164 l 483 164 l 482 150 l 529 150 l 499 -69 l 308 -69 l 314 -28 l 267 -28 l 297 192 l 344 192 l 347 206 l 300 206 l 307 258 z "},"@":{"ha":999,"x_min":65,"x_max":1099,"o":"m 418 592 l 736 592 q 754 569 758 592 l 710 261 l 406 261 q 376 292 372 261 l 418 592 m 922 158 l 1025 889 l 339 889 q 199 719 224 889 l 97 -1 l 901 -1 l 913 81 l 200 81 l 294 756 q 361 808 306 808 l 922 808 l 844 258 l 765 258 l 813 592 q 757 694 826 694 l 376 694 l 315 261 q 372 158 303 158 l 922 158 m 1051 875 l 1099 875 l 989 89 l 942 89 l 939 67 l 986 67 l 968 -71 l 107 -71 l 113 -29 l 65 -29 l 171 724 q 339 917 200 917 l 1057 917 l 1051 875 m 451 289 l 685 289 l 718 522 l 483 522 l 451 289 m 757 722 q 833 675 814 722 q 871 644 857 667 l 883 739 l 403 739 q 369 722 378 739 l 757 722 m 336 136 q 290 190 300 151 l 279 108 l 356 108 q 336 136 346 117 z "},"A":{"ha":1029,"x_min":-28,"x_max":1131,"o":"m 42 0 l 193 0 l 953 714 l 853 0 l 932 0 l 1057 890 l 1018 890 q 939 853 975 890 l 42 0 m 918 872 q 1018 918 961 918 l 1089 918 l 1083 876 l 1131 876 l 999 -69 l 863 -69 l 868 -28 l 821 -28 l 900 544 l 247 -69 l 14 -69 l 57 -28 l -28 -28 l 919 872 l 918 872 z "},"B":{"ha":931,"x_min":65,"x_max":1011,"o":"m 378 354 l 722 354 l 256 0 l 436 0 l 842 310 q 874 347 861 325 q 884 390 886 369 q 860 425 882 410 q 783 440 838 440 l 572 439 l 860 667 q 926 742 906 703 q 942 814 946 781 q 909 869 938 847 q 831 890 881 890 l 222 890 l 97 0 l 211 0 l 313 719 l 768 719 q 794 706 788 719 q 779 678 801 692 l 378 354 m 783 468 q 869 452 840 468 q 907 411 897 436 q 943 381 932 400 q 954 342 954 363 q 938 288 954 314 q 900 246 922 263 l 488 -69 l 107 -69 l 113 -28 l 65 -28 l 197 918 l 831 918 q 910 901 879 918 q 957 857 942 885 q 1011 761 1011 825 q 988 683 1011 725 q 918 603 965 642 l 747 468 l 783 468 m 338 358 l 699 650 l 378 650 l 338 358 m 390 326 l 333 326 l 296 65 l 585 285 l 339 285 l 390 326 z "},"C":{"ha":914,"x_min":89,"x_max":1015,"o":"m 222 890 l 121 169 q 214 0 99 0 l 817 0 l 840 169 l 271 169 q 219 222 215 169 l 290 719 l 918 719 l 942 890 l 222 890 m 974 918 l 968 876 l 1015 876 l 985 650 l 356 650 l 292 197 l 872 197 l 867 156 l 914 156 l 883 -69 l 256 -69 q 150 -14 181 -69 q 89 119 89 18 q 93 174 89 146 l 197 918 l 974 918 z "},"D":{"ha":917,"x_min":65,"x_max":1032,"o":"m 313 719 l 785 719 q 838 700 826 719 q 813 647 849 681 l 225 96 l 313 719 m 97 0 l 213 0 l 869 625 q 949 731 931 682 q 958 816 968 781 q 915 871 947 851 q 842 890 883 890 l 222 890 l 97 0 m 197 918 l 842 918 q 917 901 882 918 q 971 853 951 883 q 1015 808 999 835 q 1032 744 1032 781 q 1008 659 1032 704 q 931 563 985 614 l 931 564 l 265 -69 l 107 -69 l 113 -28 l 65 -28 l 197 918 m 318 222 l 774 650 l 378 650 l 318 222 z "},"E":{"ha":917,"x_min":65,"x_max":1018,"o":"m 331 611 l 374 522 l 893 522 l 906 611 l 331 611 m 222 890 l 97 0 l 819 0 l 843 167 l 254 167 l 332 719 l 921 719 l 944 890 l 222 890 m 976 918 l 971 876 l 1018 876 l 988 650 l 397 650 l 396 639 l 938 639 l 932 597 l 979 597 l 960 453 l 397 453 l 376 494 l 333 194 l 875 194 l 869 153 l 917 153 l 886 -69 l 107 -69 l 113 -28 l 65 -28 l 197 918 l 976 918 z "},"F":{"ha":917,"x_min":65,"x_max":1018,"o":"m 331 611 l 374 522 l 893 522 l 906 611 l 331 611 m 222 890 l 97 0 l 231 0 l 332 719 l 921 719 l 944 890 l 222 890 m 976 918 l 971 876 l 1018 876 l 988 650 l 397 650 l 396 639 l 938 639 l 932 597 l 979 597 l 960 453 l 397 453 l 376 494 l 297 -69 l 107 -69 l 113 -28 l 65 -28 l 197 918 l 976 918 z "},"G":{"ha":999,"x_min":89,"x_max":1100,"o":"m 353 611 l 386 533 l 883 533 l 832 169 l 271 169 q 219 222 215 169 l 290 719 l 1003 719 l 1026 890 l 222 890 l 121 169 q 214 0 99 0 l 900 0 l 986 611 l 353 611 m 1053 876 l 1100 876 l 1069 650 l 356 650 l 354 639 l 1018 639 l 1013 597 l 1060 597 l 967 -69 l 256 -69 q 150 -14 181 -69 q 89 119 89 18 q 93 174 89 146 l 197 918 l 1058 918 l 1053 876 m 343 563 l 292 197 l 807 197 l 844 464 l 410 464 l 392 506 l 368 506 l 343 563 z "},"H":{"ha":968,"x_min":65,"x_max":1069,"o":"m 97 0 l 211 0 l 336 890 l 222 890 l 97 0 m 315 611 l 358 522 l 806 522 l 732 0 l 871 0 l 996 890 l 857 890 l 818 611 l 315 611 m 197 918 l 368 918 l 363 876 l 410 876 l 376 639 l 793 639 l 832 918 l 1028 918 l 1022 876 l 1069 876 l 938 -69 l 742 -69 l 747 -28 l 700 -28 l 767 453 l 382 453 l 361 494 l 356 494 l 278 -69 l 107 -69 l 113 -28 l 65 -28 l 197 918 z "},"I":{"ha":350,"x_min":65,"x_max":451,"o":"m 222 890 l 97 0 l 253 0 l 378 890 l 222 890 m 410 918 l 404 876 l 451 876 l 319 -69 l 107 -69 l 113 -28 l 65 -28 l 197 918 l 410 918 z "},"J":{"ha":767,"x_min":65,"x_max":868,"o":"m 794 890 l 703 890 l 608 222 q 543 169 599 169 l 121 169 l 97 0 l 553 0 q 693 169 668 0 l 794 890 m 763 124 q 594 -69 733 -69 l 107 -69 l 113 -28 l 65 -28 l 96 197 l 543 197 q 581 228 574 197 l 581 226 l 678 918 l 826 918 l 821 876 l 868 876 l 763 124 z "},"K":{"ha":972,"x_min":65,"x_max":1160,"o":"m 97 0 l 211 0 l 336 890 l 222 890 l 97 0 m 290 347 l 713 0 l 914 0 l 440 403 l 1039 890 l 967 890 l 290 347 m 197 918 l 368 918 l 363 876 l 410 876 l 347 429 l 956 918 l 1118 918 l 1067 876 l 1160 876 l 529 363 l 989 -28 l 981 -28 l 1031 -69 l 744 -69 l 325 275 l 278 -69 l 107 -69 l 113 -28 l 65 -28 l 197 918 z "},"L":{"ha":917,"x_min":65,"x_max":917,"o":"m 222 890 l 97 0 l 819 0 l 843 167 l 254 167 l 356 890 l 222 890 m 388 918 l 382 876 l 429 876 l 333 194 l 875 194 l 869 153 l 917 153 l 886 -69 l 107 -69 l 113 -28 l 65 -28 l 197 918 l 388 918 z "},"M":{"ha":1086,"x_min":65,"x_max":1188,"o":"m 999 890 l 986 803 l 644 440 l 336 890 l 222 890 l 97 0 l 211 0 l 315 739 l 594 314 l 976 728 l 874 0 l 989 0 l 1114 890 l 999 890 m 1146 918 l 1140 876 l 1188 876 l 1056 -69 l 883 -69 l 889 -28 l 842 -28 l 921 539 l 632 226 l 599 276 l 590 268 l 371 601 l 278 -69 l 107 -69 l 113 -28 l 65 -28 l 197 918 l 350 918 l 378 876 l 392 876 l 654 492 l 960 815 l 974 918 l 1146 918 z "},"N":{"ha":1001,"x_min":65,"x_max":1103,"o":"m 307 683 l 765 0 l 904 0 l 1029 890 l 890 890 l 783 126 l 324 803 l 336 890 l 222 890 l 97 0 l 211 0 l 307 683 m 364 547 l 278 -69 l 107 -69 l 113 -28 l 65 -28 l 197 918 l 368 918 l 363 876 l 410 876 l 394 768 l 767 219 l 865 918 l 1061 918 l 1056 876 l 1103 876 l 971 -69 l 792 -69 l 764 -28 l 750 -28 l 364 547 z "},"O":{"ha":997,"x_min":89,"x_max":1075,"o":"m 290 719 l 874 719 q 904 681 911 719 l 832 169 l 271 169 q 219 222 215 169 l 290 719 m 900 0 l 1001 719 q 908 890 1025 890 l 222 890 l 121 169 q 214 0 99 0 l 900 0 m 256 -69 q 150 -14 181 -69 q 89 119 89 18 q 93 174 89 146 l 197 918 l 908 918 q 1014 863 983 918 q 1075 729 1075 831 q 1071 674 1075 703 l 967 -69 l 256 -69 m 292 197 l 807 197 l 871 650 l 356 650 l 292 197 z "},"P":{"ha":911,"x_min":65,"x_max":1029,"o":"m 313 719 l 785 719 q 803 716 796 719 q 813 706 810 713 q 811 692 815 699 q 797 678 807 685 l 296 347 l 385 347 l 871 667 q 938 729 915 692 q 959 803 961 767 q 928 865 957 839 q 842 890 900 890 l 222 890 l 97 0 l 211 0 l 313 719 m 842 918 q 926 901 894 918 q 974 856 958 883 q 1015 814 1001 840 q 1029 757 1029 788 q 1002 673 1029 717 q 926 601 975 629 l 928 601 l 435 278 l 326 278 l 278 -69 l 107 -69 l 113 -28 l 65 -28 l 197 918 l 842 918 m 344 414 l 704 650 l 378 650 l 344 414 z "},"Q":{"ha":1014,"x_min":89,"x_max":1075,"o":"m 728 -33 l 713 -135 l 951 -135 l 967 -33 l 728 -33 m 290 719 l 874 719 q 904 681 911 719 l 832 169 l 271 169 q 219 222 215 169 l 290 719 m 900 0 l 1001 719 q 908 890 1025 890 l 222 890 l 121 169 q 214 0 99 0 l 900 0 m 256 -69 q 150 -14 181 -69 q 89 119 89 18 q 93 174 89 146 l 197 918 l 908 918 q 1014 863 983 918 q 1075 729 1075 831 q 1071 674 1075 703 l 975 -6 l 999 -6 l 992 -47 l 1040 -47 l 1017 -204 l 722 -204 l 728 -162 l 681 -162 l 694 -69 l 256 -69 m 292 197 l 807 197 l 871 650 l 356 650 l 292 197 z "},"R":{"ha":911,"x_min":65,"x_max":1029,"o":"m 313 719 l 785 719 q 803 716 796 719 q 813 706 810 713 q 811 692 815 699 q 797 678 807 685 l 290 347 l 646 0 l 847 0 l 438 386 l 871 667 q 938 729 915 692 q 959 803 961 767 q 928 865 957 839 q 842 890 900 890 l 222 890 l 97 0 l 211 0 l 313 719 m 915 -28 l 960 -69 l 676 -69 l 325 272 l 278 -69 l 107 -69 l 113 -28 l 65 -28 l 197 918 l 842 918 q 926 901 894 918 q 974 856 958 883 q 1015 814 1001 840 q 1029 757 1029 788 q 1002 673 1029 717 q 926 601 975 629 l 928 601 l 526 342 l 918 -28 l 915 -28 m 346 417 l 703 650 l 378 650 l 346 417 z "},"S":{"ha":950,"x_min":78,"x_max":1049,"o":"m 133 169 l 110 0 l 717 0 q 810 26 775 0 q 858 88 846 51 q 858 161 871 124 q 810 224 846 199 l 344 678 q 333 692 335 685 q 336 706 332 699 q 349 716 340 713 q 368 719 357 719 l 951 719 l 975 890 l 358 890 q 265 865 300 890 q 217 803 229 839 q 217 729 206 767 q 265 667 229 692 l 732 213 q 742 199 740 206 q 739 185 743 192 q 726 174 735 178 q 707 169 718 169 l 133 169 m 288 604 q 256 638 267 619 l 246 646 q 199 702 214 669 q 185 767 185 735 q 196 823 185 796 q 228 871 207 850 q 283 905 250 892 q 358 918 315 918 l 1007 918 l 1001 876 l 1049 876 l 1018 650 l 411 650 l 828 243 q 848 227 839 236 q 864 207 857 218 l 869 201 q 917 147 901 178 q 933 82 933 115 q 922 26 933 53 q 889 -22 911 -1 q 834 -56 867 -43 q 758 -69 801 -69 l 119 -69 l 125 -28 l 78 -28 l 108 197 l 707 197 l 288 604 z "},"T":{"ha":917,"x_min":139,"x_max":1046,"o":"m 194 890 l 171 719 l 507 719 l 406 0 l 521 0 l 622 719 l 949 719 l 972 890 l 194 890 m 1004 918 l 999 876 l 1046 876 l 1015 650 l 688 650 l 588 -69 l 415 -69 l 421 -28 l 374 -28 l 468 650 l 181 650 l 186 692 l 139 692 l 169 918 l 1004 918 z "},"U":{"ha":997,"x_min":89,"x_max":1099,"o":"m 314 890 l 222 890 l 121 169 q 214 0 99 0 l 900 0 l 1025 890 l 933 890 l 832 169 l 271 169 q 219 222 215 169 l 314 890 m 340 876 l 388 876 l 292 197 l 807 197 l 908 918 l 1057 918 l 1051 876 l 1099 876 l 967 -69 l 256 -69 q 150 -14 181 -69 q 89 119 89 18 q 93 174 89 146 l 197 918 l 346 918 l 340 876 z "},"V":{"ha":1029,"x_min":65,"x_max":1224,"o":"m 1113 890 l 961 890 l 201 175 l 301 890 l 222 890 l 97 0 l 136 0 q 215 36 178 0 l 1113 890 m 276 -26 q 178 -69 231 -69 l 107 -69 l 113 -28 l 65 -28 l 197 918 l 333 918 l 328 876 l 375 876 l 294 301 l 949 918 l 1182 918 l 1138 876 l 1224 876 l 276 -25 l 276 -26 z "},"W":{"ha":1407,"x_min":65,"x_max":1601,"o":"m 1490 890 l 1339 890 l 579 175 l 679 890 l 600 890 l 543 481 l 201 175 l 301 890 l 222 890 l 97 0 l 136 0 q 215 36 178 0 l 521 326 l 475 0 l 514 0 q 593 36 556 0 l 1490 890 m 654 -26 q 556 -69 608 -69 l 485 -69 l 490 -28 l 443 -28 l 468 157 l 276 -26 q 178 -69 231 -69 l 107 -69 l 113 -28 l 65 -28 l 197 918 l 333 918 l 328 876 l 375 876 l 293 294 l 517 493 l 575 918 l 711 918 l 706 876 l 753 876 l 672 301 l 1326 918 l 1560 918 l 1515 876 l 1601 876 l 654 -25 l 654 -26 z "},"X":{"ha":1015,"x_min":-7,"x_max":1186,"o":"m 581 381 l 876 0 l 957 0 l 625 428 l 1079 890 l 928 890 l 560 514 l 268 890 l 183 890 l 513 465 l 58 0 l 206 0 l 581 381 m 614 292 l 258 -69 l 35 -69 l 75 -28 l -7 -28 l 475 467 l 126 918 l 282 918 l 314 876 l 324 876 l 568 561 l 917 918 l 1144 918 l 1103 876 l 1186 876 l 703 385 l 1056 -69 l 904 -69 l 871 -28 l 863 -28 l 614 292 z "},"Y":{"ha":999,"x_min":46,"x_max":1100,"o":"m 314 890 l 222 890 l 168 503 q 261 332 146 332 l 857 332 l 840 222 q 775 169 831 169 l 214 169 l 99 0 l 785 0 q 925 169 900 0 l 1026 890 l 933 890 l 868 425 l 307 425 q 256 476 251 425 l 314 890 m 340 876 l 388 876 l 328 453 l 843 453 l 908 918 l 1058 918 l 1053 876 l 1100 876 l 994 124 q 826 -69 965 -69 l 88 -69 l 115 -28 l 46 -28 l 199 197 l 775 197 q 813 228 806 197 l 813 226 l 818 263 l 303 263 q 196 318 226 263 q 136 451 136 350 q 140 507 136 479 l 197 918 l 346 918 l 340 876 z "},"Z":{"ha":972,"x_min":89,"x_max":1051,"o":"m 886 169 l 290 169 q 272 174 279 169 q 263 185 265 178 q 264 199 260 192 q 279 213 268 206 l 893 667 q 960 729 938 692 q 981 803 983 767 q 951 865 979 839 q 864 890 922 890 l 225 890 l 201 719 l 807 719 q 825 716 818 719 q 835 706 832 713 q 833 692 838 699 q 819 678 829 685 l 204 224 q 138 161 160 199 q 117 88 115 124 q 147 26 118 51 q 233 0 175 0 l 863 0 l 886 169 m 929 -69 l 275 -69 q 192 -52 224 -69 q 144 -7 160 -35 q 103 35 117 8 q 89 93 89 61 q 115 177 89 135 q 190 247 142 219 l 188 246 l 735 650 l 211 650 l 217 692 l 169 692 l 200 918 l 864 918 q 949 901 917 918 q 996 856 981 883 q 1038 814 1024 840 q 1051 757 1051 788 q 1024 673 1051 717 q 949 601 997 629 l 951 603 l 404 197 l 918 197 l 913 156 l 960 156 l 929 -69 z "},"[":{"ha":397,"x_min":72,"x_max":517,"o":"m 240 1022 l 104 51 q 197 -119 82 -119 l 283 -119 l 294 -37 l 242 -37 q 190 14 186 -37 l 321 942 l 432 942 l 443 1022 l 240 1022 m 475 1050 l 469 1008 l 517 1008 l 499 872 l 386 872 l 263 -10 l 326 -10 l 321 -51 l 368 -51 l 350 -189 l 239 -189 q 132 -133 164 -189 q 72 0 72 -101 q 76 56 72 28 l 215 1050 l 475 1050 z "},"\\":{"ha":746,"x_min":182,"x_max":731,"o":"m 222 890 l 567 0 l 649 0 l 307 890 l 222 890 m 326 918 l 342 876 l 368 876 l 731 -69 l 589 -69 l 572 -28 l 547 -28 l 182 918 l 326 918 z "},"]":{"ha":368,"x_min":49,"x_max":464,"o":"m 229 942 l 275 942 q 304 903 311 942 l 172 -37 l 92 -37 l 81 -119 l 254 -119 l 390 853 q 297 1022 413 1022 l 240 1022 l 229 942 m 215 1050 l 297 1050 q 403 994 371 1050 q 464 861 464 963 q 460 807 464 833 l 321 -189 l 90 -189 l 96 -147 l 49 -147 l 67 -10 l 147 -10 l 271 872 l 239 872 l 244 914 l 197 914 l 215 1050 z "},"^":{"ha":681,"x_min":96,"x_max":739,"o":"m 646 440 l 443 747 l 160 440 l 222 440 l 393 621 l 518 440 l 646 440 m 546 371 l 517 413 l 504 413 l 425 528 l 276 371 l 138 371 l 175 413 l 96 413 l 446 793 l 479 742 l 488 751 l 739 371 l 546 371 z "},"_":{"ha":757,"x_min":54,"x_max":728,"o":"m 92 -36 l 86 -81 l 649 -81 l 654 -36 l 92 -36 m 686 -8 l 681 -50 l 728 -50 l 715 -150 l 96 -150 l 100 -108 l 54 -108 l 67 -8 l 686 -8 z "},"`":{"ha":410,"x_min":200,"x_max":521,"o":"m 238 999 l 232 958 l 440 914 l 447 954 l 238 999 m 479 976 l 474 944 l 521 935 l 504 839 l 242 894 l 246 926 l 200 936 l 214 1032 l 479 976 z "},"a":{"ha":726,"x_min":89,"x_max":757,"o":"m 561 169 l 271 169 q 219 222 215 169 l 229 286 l 578 286 l 561 169 m 164 471 l 568 471 q 599 432 606 471 l 585 336 l 144 336 l 121 169 q 214 0 99 0 l 629 0 l 683 386 q 590 557 706 557 l 175 557 l 164 471 m 150 585 l 590 585 q 696 529 665 585 q 757 396 757 497 q 753 340 757 367 l 696 -69 l 256 -69 q 150 -14 181 -69 q 89 119 89 18 q 93 174 89 146 l 119 364 l 560 364 l 565 401 l 174 401 l 179 443 l 132 443 l 150 585 m 292 197 l 536 197 l 539 217 l 294 217 l 292 197 z "},"b":{"ha":726,"x_min":89,"x_max":757,"o":"m 256 471 l 568 471 q 599 432 606 471 l 561 169 l 271 169 q 219 222 215 169 l 256 471 m 629 0 l 683 386 q 590 557 706 557 l 267 557 l 314 890 l 222 890 l 121 169 q 214 0 99 0 l 629 0 m 256 -69 q 150 -14 181 -69 q 89 119 89 18 q 93 174 89 146 l 197 918 l 346 918 l 339 876 l 388 876 l 346 585 l 590 585 q 696 529 665 585 q 757 396 757 497 q 753 340 757 367 l 696 -69 l 256 -69 m 292 197 l 536 197 l 565 401 l 321 401 l 292 197 z "},"c":{"ha":608,"x_min":89,"x_max":663,"o":"m 175 557 l 121 169 q 214 0 99 0 l 511 0 l 535 169 l 271 169 q 219 222 215 169 l 256 471 l 578 471 l 589 557 l 175 557 m 621 585 l 615 543 l 663 543 l 644 401 l 321 401 l 292 197 l 567 197 l 561 156 l 608 156 l 578 -69 l 256 -69 q 150 -14 181 -69 q 89 119 89 18 q 93 174 89 146 l 150 585 l 621 585 z "},"d":{"ha":726,"x_min":89,"x_max":828,"o":"m 256 471 l 604 471 l 561 169 l 271 169 q 219 222 215 169 l 256 471 m 629 0 l 754 890 l 663 890 l 615 557 l 175 557 l 121 169 q 214 0 99 0 l 629 0 m 256 -69 q 150 -14 181 -69 q 89 119 89 18 q 93 174 89 146 l 150 585 l 590 585 l 638 918 l 786 918 l 781 876 l 828 876 l 696 -69 l 256 -69 m 292 197 l 536 197 l 565 401 l 321 401 l 292 197 z "},"e":{"ha":726,"x_min":89,"x_max":757,"o":"m 239 354 l 256 471 l 568 471 q 599 432 606 471 l 588 354 l 239 354 m 629 0 l 653 169 l 271 169 q 219 222 215 169 l 232 307 l 672 307 l 683 386 q 590 557 706 557 l 175 557 l 121 169 q 214 0 99 0 l 629 0 m 256 -69 q 150 -14 181 -69 q 89 119 89 18 q 93 174 89 146 l 150 585 l 590 585 q 696 529 665 585 q 757 396 757 497 q 753 340 757 367 l 739 238 l 297 238 l 292 197 l 685 197 l 679 156 l 726 156 l 696 -69 l 256 -69 m 318 382 l 563 382 l 565 401 l 321 401 l 318 382 z "},"f":{"ha":429,"x_min":65,"x_max":531,"o":"m 97 0 l 189 0 l 256 471 l 347 471 l 403 557 l 267 557 l 283 668 q 349 719 293 719 l 433 719 l 457 890 l 339 890 q 199 719 224 890 l 97 0 m 171 724 q 339 918 199 918 l 489 918 l 483 876 l 531 876 l 500 650 l 390 650 q 353 621 358 650 l 353 622 l 347 585 l 454 585 l 426 543 l 496 543 l 404 401 l 321 401 l 256 -69 l 107 -69 l 113 -28 l 65 -28 l 171 724 z "},"g":{"ha":729,"x_min":89,"x_max":758,"o":"m 256 471 l 568 471 q 599 432 606 471 l 561 169 l 271 169 q 219 222 215 169 l 256 471 m 538 0 l 532 -36 q 467 -92 515 -92 l 260 -92 l 242 -222 l 482 -222 q 622 -53 597 -222 l 683 386 q 590 557 710 557 l 175 557 l 121 169 q 214 0 99 0 l 538 0 m 590 585 q 699 529 667 585 q 758 401 758 497 q 757 371 758 386 q 753 340 756 356 l 692 -99 q 524 -292 663 -292 l 251 -292 l 257 -250 l 210 -250 l 233 -68 q 150 -14 175 -60 q 89 119 89 18 q 93 174 89 146 l 150 585 l 590 585 m 292 197 l 536 197 l 565 401 l 321 401 l 292 197 z "},"h":{"ha":682,"x_min":65,"x_max":713,"o":"m 222 890 l 97 3 l 189 3 l 256 471 l 479 471 q 510 432 517 471 l 449 0 l 585 0 l 639 386 q 546 557 661 557 l 267 557 l 314 890 l 222 890 m 346 918 l 339 876 l 388 876 l 346 585 l 546 585 q 651 529 621 585 q 713 396 713 497 q 708 340 713 367 l 651 -69 l 458 -69 l 464 -28 l 417 -28 l 476 401 l 321 401 l 256 -67 l 107 -67 l 113 -25 l 65 -25 l 197 918 l 346 918 z "},"i":{"ha":308,"x_min":76,"x_max":394,"o":"m 188 644 l 301 644 l 321 778 l 207 778 l 188 644 m 186 557 l 108 3 l 200 3 l 278 557 l 186 557 m 182 806 l 353 806 l 347 764 l 394 764 l 368 575 l 308 575 l 304 543 l 351 543 l 267 -67 l 118 -67 l 124 -25 l 76 -25 l 161 585 l 199 585 l 203 617 l 156 617 l 182 806 z "},"j":{"ha":335,"x_min":-76,"x_max":421,"o":"m 213 644 l 328 644 l 347 778 l 232 778 l 213 644 m 206 557 l 128 0 q 64 -53 119 -53 l -21 -53 l -44 -222 l 74 -222 q 214 -53 189 -222 l 299 557 l 206 557 m 207 806 l 379 806 l 374 764 l 421 764 l 394 575 l 329 575 l 325 543 l 372 543 l 283 -99 q 115 -292 254 -292 l -35 -292 l -29 -250 l -76 -250 l -46 -25 l 64 -25 q 100 4 96 -25 l 181 585 l 224 585 l 228 617 l 181 617 l 207 806 z "},"k":{"ha":643,"x_min":65,"x_max":692,"o":"m 97 0 l 211 0 l 249 269 l 406 0 l 546 0 l 347 324 l 583 557 l 511 557 l 254 310 l 336 890 l 222 890 l 97 0 m 197 918 l 368 918 l 363 876 l 410 876 l 347 438 l 500 585 l 650 585 l 607 543 l 692 543 l 424 278 l 636 -69 l 432 -69 l 407 -28 l 390 -28 l 304 119 l 278 -69 l 107 -69 l 113 -28 l 65 -28 l 197 918 z "},"l":{"ha":308,"x_min":65,"x_max":410,"o":"m 222 890 l 97 3 l 211 3 l 336 890 l 222 890 m 368 918 l 363 876 l 410 876 l 278 -67 l 107 -67 l 113 -25 l 65 -25 l 197 918 l 368 918 z "},"m":{"ha":967,"x_min":65,"x_max":997,"o":"m 175 557 l 97 3 l 189 3 l 256 471 l 424 471 q 454 432 461 471 l 393 0 l 529 0 l 596 471 l 764 471 q 794 432 800 471 l 733 0 l 869 0 l 924 386 q 831 557 946 557 l 175 557 m 831 585 q 936 529 906 585 q 997 396 997 497 q 993 340 997 367 l 936 -69 l 743 -69 l 749 -28 l 701 -28 l 761 401 l 661 401 l 596 -69 l 403 -69 l 408 -28 l 361 -28 l 421 401 l 321 401 l 256 -67 l 107 -67 l 113 -25 l 65 -25 l 150 585 l 831 585 z "},"n":{"ha":682,"x_min":65,"x_max":713,"o":"m 175 557 l 97 3 l 189 3 l 256 471 l 479 471 q 510 432 517 471 l 449 0 l 585 0 l 639 386 q 546 557 661 557 l 175 557 m 546 585 q 651 529 621 585 q 713 396 713 497 q 708 340 713 367 l 651 -69 l 458 -69 l 464 -28 l 417 -28 l 476 401 l 321 401 l 256 -67 l 107 -67 l 113 -25 l 65 -25 l 150 585 l 546 585 z "},"o":{"ha":726,"x_min":89,"x_max":757,"o":"m 256 471 l 568 471 q 599 432 606 471 l 561 169 l 271 169 q 219 222 215 169 l 256 471 m 629 0 l 683 386 q 590 557 706 557 l 175 557 l 121 169 q 214 0 99 0 l 629 0 m 256 -69 q 150 -14 181 -69 q 89 119 89 18 q 93 174 89 146 l 150 585 l 590 585 q 696 529 665 585 q 757 396 757 497 q 753 340 757 367 l 696 -69 l 256 -69 m 292 197 l 536 197 l 565 401 l 321 401 l 292 197 z "},"p":{"ha":726,"x_min":35,"x_max":757,"o":"m 561 169 l 213 169 l 256 471 l 568 471 q 599 432 606 471 l 561 169 m 629 0 l 683 386 q 590 557 706 557 l 175 557 l 67 -222 l 158 -222 l 189 0 l 629 0 m 254 -69 l 225 -292 l 76 -292 l 82 -250 l 35 -250 l 150 585 l 590 585 q 696 529 665 585 q 757 396 757 497 q 753 340 757 367 l 696 -69 l 254 -69 m 293 197 l 536 197 l 565 401 l 321 401 l 293 197 z "},"q":{"ha":726,"x_min":89,"x_max":757,"o":"m 256 471 l 568 471 q 599 432 606 471 l 561 169 l 271 169 q 219 222 215 169 l 256 471 m 599 -222 l 683 386 q 590 557 706 557 l 175 557 l 121 169 q 214 0 99 0 l 538 0 l 507 -222 l 599 -222 m 517 -292 l 522 -250 l 475 -250 l 500 -69 l 256 -69 q 150 -14 181 -69 q 89 119 89 18 q 93 174 89 146 l 150 585 l 590 585 q 696 529 665 585 q 757 396 757 497 q 753 340 757 367 l 665 -292 l 517 -292 m 292 197 l 536 197 l 565 401 l 321 401 l 292 197 z "},"r":{"ha":429,"x_min":65,"x_max":483,"o":"m 97 0 l 189 0 l 236 335 q 301 386 246 386 l 386 386 l 410 557 l 292 557 q 151 386 176 557 l 97 0 m 124 390 q 292 585 151 585 l 442 585 l 436 543 l 483 543 l 453 317 l 343 317 q 306 288 311 317 l 306 289 l 256 -69 l 107 -69 l 113 -28 l 65 -28 l 124 390 z "},"s":{"ha":726,"x_min":65,"x_max":781,"o":"m 238 342 l 250 432 q 292 471 256 471 l 696 471 l 707 557 l 292 557 q 151 386 176 557 l 136 269 l 575 269 l 568 222 q 503 169 558 169 l 121 169 l 97 0 l 513 0 q 653 169 628 0 l 678 342 l 238 342 m 733 543 l 781 543 l 763 401 l 333 401 q 319 386 322 401 l 317 369 l 710 369 l 703 328 l 751 328 l 722 124 q 554 -69 693 -69 l 107 -69 l 113 -28 l 65 -28 l 96 197 l 503 197 q 519 200 515 197 l 146 200 l 151 242 l 104 242 l 124 390 q 292 585 151 585 l 739 585 l 733 543 z "},"t":{"ha":429,"x_min":89,"x_max":503,"o":"m 332 0 l 356 169 l 271 169 q 219 222 215 169 l 256 471 l 354 471 l 410 557 l 267 557 l 299 776 l 207 776 l 121 169 q 214 0 99 0 l 332 0 m 256 -69 q 150 -14 181 -69 q 89 119 89 18 q 93 174 89 146 l 182 804 l 331 804 l 324 763 l 372 763 l 347 585 l 461 585 l 433 543 l 503 543 l 411 401 l 321 401 l 292 197 l 388 197 l 382 156 l 429 156 l 399 -69 l 256 -69 z "},"u":{"ha":704,"x_min":89,"x_max":758,"o":"m 607 0 l 685 557 l 593 557 l 539 169 l 271 169 q 219 222 215 169 l 267 557 l 175 557 l 121 169 q 214 0 99 0 l 607 0 m 256 -69 q 150 -14 181 -69 q 89 119 89 18 q 93 174 89 146 l 150 585 l 299 585 l 293 543 l 340 543 l 292 197 l 514 197 l 568 585 l 717 585 l 711 543 l 758 543 l 674 -69 l 256 -69 z "},"v":{"ha":725,"x_min":65,"x_max":872,"o":"m 97 0 l 136 0 q 215 36 178 0 l 761 557 l 606 557 l 201 175 l 254 557 l 175 557 l 97 0 m 150 585 l 286 585 l 281 543 l 328 543 l 294 301 l 593 585 l 831 585 l 786 543 l 872 543 l 276 -26 q 178 -69 231 -69 l 107 -69 l 113 -28 l 65 -28 l 150 585 z "},"w":{"ha":1014,"x_min":65,"x_max":1161,"o":"m 386 0 l 425 0 q 504 36 467 0 l 1050 557 l 894 557 l 490 175 l 543 557 l 464 557 l 440 390 l 201 175 l 254 557 l 175 557 l 97 0 l 136 0 q 215 36 178 0 l 419 236 l 386 0 m 367 63 l 276 -26 q 178 -69 231 -69 l 107 -69 l 113 -28 l 65 -28 l 150 585 l 286 585 l 281 543 l 328 543 l 293 294 l 414 403 l 439 585 l 575 585 l 569 543 l 617 543 l 583 301 l 882 585 l 1119 585 l 1075 543 l 1161 543 l 565 -26 q 467 -69 519 -69 l 396 -69 l 401 -28 l 354 -28 l 367 63 z "},"x":{"ha":810,"x_min":32,"x_max":897,"o":"m 500 261 l 790 557 l 639 557 l 435 347 l 272 557 l 189 557 l 388 299 l 97 0 l 244 0 l 456 214 l 622 0 l 703 0 l 500 261 m 814 543 l 897 543 l 578 218 l 801 -69 l 650 -69 l 617 -28 l 608 -28 l 489 125 l 297 -69 l 74 -69 l 114 -28 l 32 -28 l 350 300 l 132 585 l 286 585 l 318 543 l 328 543 l 442 394 l 628 585 l 856 585 l 814 543 z "},"y":{"ha":726,"x_min":89,"x_max":781,"o":"m 267 557 l 175 557 l 121 169 q 214 0 99 0 l 538 0 l 532 -36 q 467 -92 515 -92 l 260 -92 l 242 -222 l 482 -222 q 622 -53 597 -222 l 707 557 l 615 557 l 561 169 l 271 169 q 219 222 215 169 l 267 557 m 293 543 l 340 543 l 292 197 l 536 197 l 590 585 l 739 585 l 733 543 l 781 543 l 692 -99 q 524 -292 663 -292 l 251 -292 l 257 -250 l 210 -250 l 233 -68 q 150 -14 175 -60 q 89 119 89 18 q 93 174 89 146 l 150 585 l 299 585 l 293 543 z "},"z":{"ha":658,"x_min":65,"x_max":713,"o":"m 251 169 l 631 493 l 639 557 l 175 557 l 164 471 l 522 471 l 115 125 l 97 0 l 561 0 l 585 169 l 251 169 m 665 543 l 713 543 l 699 438 l 417 197 l 617 197 l 611 156 l 658 156 l 628 -69 l 107 -69 l 113 -28 l 65 -28 l 89 139 l 397 401 l 174 401 l 179 443 l 132 443 l 150 585 l 671 585 l 665 543 z "},"|":{"ha":268,"x_min":22,"x_max":371,"o":"m 224 942 l 54 -269 l 128 -269 l 297 942 l 224 942 m 329 969 l 324 928 l 371 928 l 194 -339 l 64 -339 l 69 -297 l 22 -297 l 199 969 l 329 969 z "},"~":{"ha":778,"x_min":279,"x_max":707,"o":"m 522 629 q 554 632 539 629 q 585 644 569 635 q 613 666 601 653 q 633 697 625 679 l 594 750 q 539 706 567 706 l 535 706 q 511 711 524 706 q 483 724 499 717 q 453 736 467 731 q 431 742 439 742 l 428 742 q 369 724 399 742 q 315 665 340 706 l 363 621 q 429 668 404 668 q 450 663 438 668 q 477 649 463 657 q 522 629 492 640 m 556 561 q 516 576 529 569 q 492 589 503 583 q 471 599 472 599 q 406 539 457 599 l 321 618 l 322 619 l 279 660 q 353 744 315 718 q 428 769 392 769 l 431 769 q 463 763 450 769 q 492 750 475 757 q 517 738 506 743 q 535 733 529 733 l 539 733 q 592 800 549 733 l 628 750 q 633 758 631 756 l 707 658 q 642 582 681 604 q 564 560 604 560 l 556 561 z "},"€":{"ha":914,"x_min":79,"x_max":1036,"o":"m 456 333 l 514 404 l 267 404 l 279 493 l 478 493 l 536 561 l 289 561 l 311 719 l 939 719 l 963 890 l 243 890 l 197 561 l 143 561 l 133 493 l 188 493 l 175 404 l 121 404 l 111 333 l 165 333 l 142 169 q 235 0 119 0 l 838 0 l 861 169 l 292 169 q 240 222 236 169 l 257 333 l 456 333 m 322 264 l 313 197 l 893 197 l 888 156 l 935 156 l 904 -69 l 276 -69 q 171 -14 201 -69 q 110 119 110 18 q 114 174 110 146 l 126 264 l 121 264 l 126 306 l 79 306 l 96 432 l 144 432 l 149 465 l 101 465 l 118 589 l 172 589 l 218 918 l 994 918 l 989 876 l 1036 876 l 1006 650 l 376 650 l 368 589 l 596 589 l 560 547 l 638 547 l 539 432 l 572 432 l 538 390 l 614 390 l 510 264 l 322 264 z "},"‚":{"ha":328,"x_min":47,"x_max":349,"o":"m 142 164 l 118 0 l 196 0 l 111 -92 l 151 -92 l 251 0 l 275 164 l 142 164 m 307 192 l 300 150 l 349 150 l 319 -56 l 206 -161 l 89 -161 l 126 -119 l 47 -119 l 131 -28 l 86 -28 l 117 192 l 307 192 z "},"„":{"ha":551,"x_min":47,"x_max":565,"o":"m 142 164 l 118 0 l 196 0 l 111 -92 l 151 -92 l 251 0 l 275 164 l 142 164 m 358 164 l 335 0 l 413 0 l 328 -92 l 368 -92 l 468 0 l 492 164 l 358 164 m 307 192 l 300 150 l 328 150 l 333 192 l 524 192 l 517 150 l 565 150 l 536 -56 l 422 -161 l 306 -161 l 343 -119 l 264 -119 l 347 -28 l 324 -28 l 319 -56 l 206 -161 l 89 -161 l 126 -119 l 47 -119 l 131 -28 l 86 -28 l 117 192 l 307 192 z "},"…":{"ha":2094,"x_min":343,"x_max":1817,"o":"m 399 164 l 375 0 l 508 0 l 532 164 l 399 164 m 564 192 l 558 150 l 606 150 l 575 -69 l 385 -69 l 390 -28 l 343 -28 l 374 192 l 564 192 m 1004 164 l 981 0 l 1114 0 l 1138 164 l 1004 164 m 1169 192 l 1164 150 l 1211 150 l 1181 -69 l 990 -69 l 996 -28 l 949 -28 l 979 192 l 1169 192 m 1610 164 l 1586 0 l 1719 0 l 1743 164 l 1610 164 m 1775 192 l 1769 150 l 1817 150 l 1786 -69 l 1596 -69 l 1601 -28 l 1554 -28 l 1585 192 l 1775 192 z "},"†":{"ha":914,"x_min":65,"x_max":958,"o":"m 808 364 l 871 364 l 885 467 l 822 467 l 808 364 m 732 467 l 313 467 l 325 554 l 447 554 l 454 601 l 742 601 l 761 743 l 474 743 l 482 796 l 229 796 l 186 492 l 118 492 l 97 349 l 271 349 l 257 250 l 218 250 l 211 193 l 250 193 l 231 58 l 732 58 l 760 256 l 406 256 l 418 349 l 715 349 l 732 467 m 824 336 l 789 336 l 782 283 l 792 283 l 786 242 l 833 242 l 799 -11 l 240 -11 l 246 31 l 199 31 l 217 165 l 179 165 l 193 278 l 232 278 l 232 279 l 107 279 l 113 321 l 65 321 l 93 519 l 161 519 l 204 824 l 515 824 l 508 782 l 557 782 l 554 771 l 793 771 l 788 729 l 835 729 l 808 532 l 519 532 l 514 494 l 764 494 l 758 453 l 792 453 l 797 494 l 917 494 l 911 453 l 958 453 l 938 294 l 818 294 l 824 336 z "},"‡":{"ha":778,"x_min":135,"x_max":813,"o":"m 535 750 l 549 846 l 257 846 l 243 750 l 535 750 m 621 508 l 500 508 l 526 696 l 235 696 l 167 210 l 458 210 l 481 367 l 601 367 l 568 132 l 329 132 l 315 28 l 646 28 l 739 696 l 647 696 l 621 508 m 600 681 l 579 536 l 596 536 l 622 724 l 771 724 l 765 682 l 813 682 l 713 -42 l 325 -42 l 331 0 l 283 0 l 301 140 l 176 140 l 182 182 l 135 182 l 210 724 l 211 724 l 232 874 l 581 874 l 575 832 l 622 832 l 601 681 l 600 681 m 528 160 l 543 160 l 563 297 l 546 297 l 528 160 z "},"ˆ":{"ha":469,"x_min":190,"x_max":581,"o":"m 508 964 l 376 1008 l 233 964 l 225 907 l 368 951 l 500 907 l 508 964 m 565 828 l 410 881 l 232 825 l 240 882 l 190 867 l 208 985 l 376 1038 l 539 982 l 535 956 l 581 940 l 565 828 z "},"‰":{"ha":1506,"x_min":65,"x_max":1507,"o":"m 1147 303 l 1360 303 q 1378 279 1382 303 l 1353 101 l 1153 101 q 1122 132 1119 101 l 1147 303 m 731 303 l 943 303 q 961 279 965 303 l 936 101 l 736 101 q 706 132 703 101 l 731 303 m 263 790 l 476 790 q 494 767 497 790 l 469 589 l 269 589 q 239 619 236 589 l 263 790 m 211 0 l 1085 890 l 1000 890 l 131 0 l 211 0 m 508 488 l 551 790 q 497 890 564 890 l 222 890 l 181 589 q 235 488 167 488 l 508 488 m 1393 0 l 1436 303 q 1381 403 1449 403 l 1107 403 l 1064 101 q 1118 0 1050 0 l 1393 0 m 976 0 l 1019 303 q 964 403 1032 403 l 690 403 l 647 101 q 701 0 633 0 l 976 0 m 276 418 q 199 465 217 418 q 150 557 150 482 q 151 575 150 568 q 153 592 151 582 l 197 918 l 497 918 q 572 871 553 918 q 622 778 622 854 q 622 761 622 771 q 621 744 622 753 l 588 507 l 989 918 l 1150 918 l 1108 876 l 1192 876 l 754 431 l 964 431 q 1040 383 1024 431 q 1058 374 1051 381 q 1072 361 1065 368 l 1082 431 l 1381 431 q 1457 383 1440 431 q 1507 290 1507 367 q 1507 274 1507 283 q 1506 257 1507 265 l 1460 -69 l 1160 -69 q 1082 -22 1101 -69 q 1053 0 1064 -17 l 1043 -69 l 743 -69 q 665 -22 685 -69 q 617 69 617 -3 q 617 88 617 81 q 619 104 618 94 l 650 324 l 264 -69 l 107 -69 l 147 -28 l 65 -28 l 500 418 l 276 418 m 314 617 l 444 617 l 460 721 l 328 721 l 314 617 m 1197 129 l 1328 129 l 1343 233 l 1213 233 l 1197 129 m 781 129 l 911 129 l 926 233 l 796 233 l 781 129 z "},"Š":{"ha":950,"x_min":99,"x_max":1069,"o":"m 482 950 l 614 906 l 757 950 l 765 1007 l 621 963 l 490 1007 l 482 950 m 154 169 l 131 0 l 738 0 q 831 26 796 0 q 879 88 867 51 q 879 161 892 124 q 831 224 867 199 l 365 678 q 354 692 356 685 q 357 706 353 699 q 369 716 361 713 q 389 719 378 719 l 972 719 l 996 890 l 379 890 q 285 865 321 890 q 238 803 250 839 q 238 729 226 767 q 286 667 250 692 l 753 213 q 763 199 761 206 q 760 185 764 192 q 747 174 756 178 q 728 169 739 169 l 154 169 m 467 1044 l 621 992 l 800 1046 l 790 989 l 842 1004 l 828 918 l 1028 918 l 1022 876 l 1069 876 l 1039 650 l 432 650 l 849 243 q 869 227 860 236 q 885 207 878 218 l 890 201 q 938 147 922 178 q 954 82 954 115 q 943 26 954 53 q 910 -22 932 -1 q 855 -56 888 -43 q 779 -69 822 -69 l 140 -69 l 146 -28 l 99 -28 l 129 197 l 728 197 l 308 604 q 276 638 288 619 l 267 646 q 220 702 235 669 q 206 767 206 735 q 217 823 206 796 q 249 871 228 850 q 303 905 271 892 q 379 918 336 918 l 492 918 l 451 932 l 467 1044 z "},"‹":{"ha":386,"x_min":85,"x_max":471,"o":"m 300 796 l 117 533 l 297 217 l 335 217 l 178 503 l 376 796 l 300 796 m 429 824 l 400 782 l 471 782 l 253 460 l 424 147 l 324 147 l 300 189 l 282 189 l 85 535 l 286 824 l 429 824 z "},"Œ":{"ha":1056,"x_min":89,"x_max":1157,"o":"m 674 611 l 717 522 l 1032 522 l 1044 611 l 674 611 m 290 719 l 561 719 q 590 681 597 719 l 518 169 l 271 169 q 219 222 215 169 l 290 719 m 958 0 l 982 167 l 596 167 l 674 719 l 1060 719 l 1083 890 l 222 890 l 121 169 q 214 0 99 0 l 958 0 m 256 -69 q 150 -14 181 -69 q 89 119 89 18 q 93 174 89 146 l 197 918 l 1115 918 l 1110 876 l 1157 876 l 1126 650 l 739 650 l 738 639 l 1076 639 l 1071 597 l 1118 597 l 1099 453 l 740 453 l 719 494 l 717 494 l 675 194 l 1014 194 l 1008 153 l 1056 153 l 1025 -69 l 256 -69 m 292 197 l 493 197 l 557 650 l 356 650 l 292 197 z "},"Ž":{"ha":972,"x_min":110,"x_max":1072,"o":"m 497 950 l 629 906 l 772 950 l 781 1007 l 636 963 l 506 1007 l 497 950 m 907 169 l 311 169 q 293 174 300 169 q 283 185 286 178 q 285 199 281 192 q 300 213 289 206 l 914 667 q 981 729 958 692 q 1002 803 1004 767 q 972 865 1000 839 q 885 890 943 890 l 246 890 l 222 719 l 828 719 q 846 716 839 719 q 856 706 853 713 q 854 692 858 699 q 840 678 850 685 l 225 224 q 158 161 181 199 q 138 88 136 124 q 167 26 139 51 q 254 0 196 0 l 883 0 l 907 169 m 482 1044 l 636 992 l 815 1046 l 806 989 l 857 1004 l 843 918 l 885 918 q 969 901 938 918 q 1017 856 1001 883 q 1058 814 1044 840 q 1072 757 1072 788 q 1045 673 1072 717 q 969 601 1018 629 l 972 603 l 425 197 l 939 197 l 933 156 l 981 156 l 950 -69 l 296 -69 q 213 -52 244 -69 q 165 -7 181 -35 q 124 35 138 8 q 110 93 110 61 q 136 177 110 135 q 211 247 163 219 l 208 246 l 756 650 l 232 650 l 238 692 l 190 692 l 221 918 l 507 918 l 467 932 l 482 1044 z "},"‘":{"ha":251,"x_min":124,"x_max":424,"o":"m 289 697 l 311 861 l 233 861 l 318 953 l 278 953 l 178 861 l 156 697 l 289 697 m 165 628 l 171 669 l 124 669 l 151 875 l 265 981 l 382 981 l 343 939 l 424 939 l 339 847 l 385 847 l 356 628 l 165 628 z "},"’":{"ha":251,"x_min":93,"x_max":394,"o":"m 188 917 l 164 753 l 242 753 l 157 661 l 197 661 l 297 753 l 321 917 l 188 917 m 353 944 l 346 903 l 394 903 l 365 697 l 251 592 l 135 592 l 172 633 l 93 633 l 176 725 l 132 725 l 163 944 l 353 944 z "},"“":{"ha":456,"x_min":128,"x_max":622,"o":"m 488 697 l 510 861 l 432 861 l 517 953 l 476 953 l 376 861 l 354 697 l 488 697 m 293 697 l 315 861 l 238 861 l 322 953 l 282 953 l 182 861 l 160 697 l 293 697 m 169 628 l 175 669 l 128 669 l 156 875 l 269 981 l 386 981 l 347 939 l 418 939 l 464 981 l 581 981 l 542 939 l 622 939 l 538 847 l 583 847 l 554 628 l 364 628 l 369 669 l 365 669 l 360 628 l 169 628 m 346 847 l 347 850 l 343 847 l 346 847 z "},"”":{"ha":451,"x_min":92,"x_max":588,"o":"m 381 917 l 357 753 l 435 753 l 350 661 l 390 661 l 490 753 l 514 917 l 381 917 m 186 917 l 163 753 l 240 753 l 156 661 l 196 661 l 296 753 l 319 917 l 186 917 m 546 944 l 539 903 l 588 903 l 558 697 l 444 592 l 328 592 l 365 633 l 294 633 l 250 592 l 133 592 l 171 633 l 92 633 l 175 725 l 131 725 l 161 944 l 351 944 l 344 903 l 350 903 l 356 944 l 546 944 m 368 725 l 367 722 l 369 725 l 368 725 z "},"•":{"ha":778,"x_min":104,"x_max":832,"o":"m 504 807 l 235 686 l 136 415 l 279 197 l 557 197 l 761 415 l 738 686 l 504 807 m 764 704 l 765 683 l 806 663 l 832 363 l 611 128 l 306 128 l 278 169 l 264 169 l 104 411 l 213 706 l 506 838 l 764 704 z "},"–":{"ha":769,"x_min":133,"x_max":824,"o":"m 172 533 l 204 442 l 738 442 l 750 533 l 172 533 m 782 561 l 776 519 l 824 519 l 804 372 l 226 372 l 211 414 l 185 414 l 133 561 l 782 561 z "},"—":{"ha":1110,"x_min":133,"x_max":1149,"o":"m 172 533 l 204 442 l 1063 442 l 1075 533 l 172 533 m 1107 561 l 1101 519 l 1149 519 l 1129 372 l 226 372 l 211 414 l 185 414 l 133 561 l 1107 561 z "},"˜":{"ha":371,"x_min":169,"x_max":515,"o":"m 358 931 q 383 933 371 931 q 407 941 396 935 q 427 957 418 947 q 442 981 436 967 l 413 1019 q 372 986 393 986 l 369 986 q 351 992 361 988 q 330 1001 342 996 q 308 1010 318 1006 q 292 1014 299 1014 l 290 1014 q 247 1000 268 1014 q 206 957 225 986 l 239 924 q 289 958 271 958 l 290 958 q 306 954 296 958 q 326 944 315 950 q 358 931 336 939 m 390 863 q 366 874 376 868 q 349 882 356 879 q 332 889 335 889 l 331 889 q 282 842 324 889 l 169 954 q 231 1020 200 999 q 290 1042 261 1042 l 292 1042 q 315 1037 301 1042 q 343 1025 329 1032 l 342 1026 q 372 1014 361 1017 l 374 1014 l 372 1014 l 374 1014 q 410 1069 379 1015 l 446 1019 q 449 1024 447 1022 q 451 1028 450 1025 l 515 942 q 464 879 496 897 q 400 861 432 861 l 390 863 z "},"™":{"ha":985,"x_min":150,"x_max":1099,"o":"m 197 889 l 182 782 l 294 782 l 244 422 l 324 422 l 374 782 l 482 782 l 497 889 l 197 889 m 631 889 l 557 889 l 492 422 l 571 422 l 619 771 l 750 572 l 926 765 l 879 422 l 960 422 l 1025 889 l 944 889 l 938 838 l 779 669 l 631 889 m 529 917 l 524 875 l 526 875 l 532 917 l 646 917 l 674 875 l 688 875 l 790 722 l 911 850 l 919 917 l 1057 917 l 1051 875 l 1099 875 l 1026 353 l 889 353 l 894 394 l 847 394 l 872 578 l 788 485 l 754 535 l 746 526 l 676 632 l 638 353 l 501 353 l 507 394 l 460 394 l 503 713 l 439 713 l 390 353 l 254 353 l 260 394 l 213 394 l 256 713 l 192 713 l 197 754 l 150 754 l 172 917 l 529 917 z "},"š":{"ha":726,"x_min":86,"x_max":801,"o":"m 347 617 l 479 572 l 622 617 l 631 674 l 486 629 l 356 674 l 347 617 m 258 342 l 271 432 q 313 471 276 471 l 717 471 l 728 557 l 313 557 q 172 386 197 557 l 157 269 l 596 269 l 589 222 q 524 169 579 169 l 142 169 l 118 0 l 533 0 q 674 169 649 0 l 699 342 l 258 342 m 332 711 l 486 658 l 665 713 l 656 656 l 707 671 l 693 585 l 760 585 l 754 543 l 801 543 l 783 401 l 354 401 q 340 386 343 401 l 338 369 l 731 369 l 724 328 l 772 328 l 743 124 q 575 -69 714 -69 l 128 -69 l 133 -28 l 86 -28 l 117 197 l 524 197 q 540 200 536 197 l 167 200 l 172 242 l 125 242 l 144 390 q 313 585 172 585 l 357 585 l 317 599 l 332 711 z "},"›":{"ha":392,"x_min":42,"x_max":428,"o":"m 172 215 l 354 478 l 174 794 l 136 794 l 293 508 l 94 215 l 172 215 m 83 146 l 111 188 l 42 188 l 260 510 l 89 822 l 189 822 l 213 781 l 231 781 l 428 435 l 228 146 l 83 146 z "},"œ":{"ha":969,"x_min":89,"x_max":1000,"o":"m 586 354 l 603 471 l 811 471 q 840 432 847 471 l 829 354 l 586 354 m 256 471 l 474 471 q 504 432 511 471 l 467 169 l 271 169 q 219 222 215 169 l 256 471 m 872 0 l 896 169 l 618 169 q 567 222 563 169 l 579 307 l 915 307 l 926 386 q 833 557 949 557 l 175 557 l 121 169 q 214 0 99 0 l 872 0 m 256 -69 q 150 -14 181 -69 q 89 119 89 18 q 93 174 89 146 l 150 585 l 833 585 q 939 529 908 585 q 1000 396 1000 497 q 996 340 1000 367 l 982 238 l 644 238 l 639 197 l 928 197 l 922 156 l 969 156 l 939 -69 l 256 -69 m 292 197 l 442 197 l 471 401 l 321 401 l 292 197 m 665 382 l 804 382 l 807 401 l 668 401 l 665 382 z "},"ž":{"ha":658,"x_min":86,"x_max":733,"o":"m 304 617 l 436 572 l 579 617 l 588 674 l 443 629 l 313 674 l 304 617 m 272 169 l 651 493 l 660 557 l 196 557 l 185 471 l 543 471 l 136 125 l 118 0 l 582 0 l 606 169 l 272 169 m 289 711 l 443 658 l 622 713 l 613 656 l 664 671 l 650 585 l 692 585 l 686 543 l 733 543 l 719 438 l 438 197 l 638 197 l 632 156 l 679 156 l 649 -69 l 128 -69 l 133 -28 l 86 -28 l 110 139 l 418 401 l 194 401 l 200 443 l 153 443 l 171 585 l 314 585 l 274 599 l 289 711 z "},"Ÿ":{"ha":999,"x_min":67,"x_max":1121,"o":"m 706 1029 l 690 919 l 804 919 l 819 1029 l 706 1029 m 517 1029 l 501 919 l 615 919 l 631 1029 l 517 1029 m 335 890 l 243 890 l 189 503 q 282 332 167 332 l 878 332 l 861 222 q 796 169 851 169 l 235 169 l 119 0 l 806 0 q 946 169 921 0 l 1047 890 l 954 890 l 889 425 l 328 425 q 276 476 272 425 l 335 890 m 361 876 l 408 876 l 349 453 l 864 453 l 929 918 l 1079 918 l 1074 876 l 1121 876 l 1015 124 q 847 -69 986 -69 l 108 -69 l 136 -28 l 67 -28 l 219 197 l 796 197 q 833 228 826 197 l 833 226 l 839 263 l 324 263 q 217 318 247 263 q 157 451 157 350 q 161 507 157 479 l 218 918 l 367 918 l 361 876 m 851 1057 l 846 1015 l 893 1015 l 871 850 l 700 850 l 706 892 l 688 892 l 682 850 l 511 850 l 517 892 l 469 892 l 492 1057 l 663 1057 l 657 1015 l 675 1015 l 681 1057 l 851 1057 z "},"¡":{"ha":328,"x_min":42,"x_max":372,"o":"m 275 504 l 299 668 l 165 668 l 142 504 l 275 504 m 140 -222 l 235 454 l 168 454 l 74 -222 l 140 -222 m 83 -292 l 89 -250 l 42 -250 l 142 476 l 110 476 l 140 696 l 331 696 l 325 654 l 372 654 l 342 435 l 307 435 l 207 -292 l 83 -292 z "},"¢":{"ha":608,"x_min":131,"x_max":704,"o":"m 297 617 l 396 617 l 367 315 l 313 315 q 261 368 257 315 l 297 617 m 417 835 l 404 703 l 217 703 l 163 315 q 256 146 140 146 l 351 146 l 336 -11 l 371 -11 l 386 146 l 553 146 l 576 315 l 401 315 l 431 617 l 619 617 l 631 703 l 439 703 l 451 835 l 417 835 m 482 863 l 478 821 l 524 821 l 515 731 l 663 731 l 657 689 l 704 689 l 686 547 l 497 547 l 478 343 l 608 343 l 603 301 l 650 301 l 619 76 l 453 76 l 438 -81 l 347 -81 l 351 -39 l 306 -39 l 317 76 l 297 76 q 192 132 221 76 q 131 265 131 164 q 135 319 131 292 l 192 731 l 379 731 l 392 863 l 482 863 m 340 343 l 356 501 l 333 343 l 340 343 z "},"£":{"ha":692,"x_min":65,"x_max":793,"o":"m 238 557 l 182 471 l 314 471 l 271 167 l 121 167 l 97 0 l 594 0 l 618 167 l 363 167 l 406 471 l 497 471 l 553 557 l 417 557 l 433 668 q 499 719 443 719 l 696 719 l 719 890 l 489 890 q 349 719 374 890 l 325 557 l 238 557 m 300 585 l 321 724 q 489 918 349 918 l 751 918 l 746 876 l 793 876 l 763 650 l 540 650 q 503 621 508 650 l 503 622 l 497 585 l 604 585 l 576 543 l 646 543 l 554 401 l 471 401 l 442 194 l 650 194 l 644 153 l 692 153 l 661 -69 l 107 -69 l 113 -28 l 65 -28 l 96 194 l 246 194 l 275 401 l 172 401 l 199 443 l 131 443 l 222 585 l 300 585 z "},"¤":{"ha":914,"x_min":58,"x_max":1015,"o":"m 435 333 l 493 404 l 246 404 l 258 493 l 457 493 l 515 561 l 268 561 l 290 719 l 918 719 l 942 890 l 222 890 l 176 561 l 122 561 l 113 493 l 167 493 l 154 404 l 100 404 l 90 333 l 144 333 l 121 169 q 214 0 99 0 l 817 0 l 840 169 l 271 169 q 219 222 215 169 l 236 333 l 435 333 m 301 264 l 292 197 l 872 197 l 867 156 l 914 156 l 883 -69 l 256 -69 q 150 -14 181 -69 q 89 119 89 18 q 93 174 89 146 l 106 264 l 100 264 l 106 306 l 58 306 l 75 432 l 124 432 l 128 465 l 81 465 l 97 589 l 151 589 l 197 918 l 974 918 l 968 876 l 1015 876 l 985 650 l 356 650 l 347 589 l 575 589 l 539 547 l 617 547 l 518 432 l 551 432 l 517 390 l 593 390 l 489 264 l 301 264 z "},"¥":{"ha":1015,"x_min":126,"x_max":1186,"o":"m 500 376 l 375 376 l 410 310 l 490 310 l 479 224 l 354 224 l 389 156 l 469 156 l 449 0 l 567 0 l 588 156 l 703 156 l 713 224 l 597 224 l 608 310 l 724 310 l 733 376 l 618 376 l 625 428 l 1079 890 l 928 890 l 560 514 l 268 890 l 183 890 l 513 465 l 500 376 m 329 404 l 475 404 l 483 457 l 126 918 l 282 918 l 314 876 l 324 876 l 568 561 l 917 918 l 1144 918 l 1103 876 l 1186 876 l 722 404 l 765 404 l 760 363 l 807 363 l 790 240 l 743 240 l 739 210 l 786 210 l 769 86 l 654 86 l 633 -69 l 458 -69 l 464 -28 l 417 -28 l 432 86 l 414 86 l 392 128 l 372 128 l 308 251 l 429 251 l 413 282 l 393 282 l 329 404 z "},"¦":{"ha":268,"x_min":22,"x_max":371,"o":"m 297 942 l 224 942 l 158 476 l 232 476 l 297 942 m 54 -269 l 128 -269 l 193 200 l 119 200 l 54 -269 m 94 228 l 225 228 l 219 186 l 267 186 l 194 -339 l 64 -339 l 69 -297 l 22 -297 l 94 228 m 299 407 l 168 407 l 174 449 l 126 449 l 199 969 l 329 969 l 324 928 l 371 928 l 299 407 z "},"§":{"ha":726,"x_min":64,"x_max":828,"o":"m 243 381 l 258 499 q 300 538 264 538 l 613 538 l 599 431 q 556 381 589 389 l 243 381 m 717 624 l 301 624 q 276 621 288 624 l 296 765 q 338 804 301 804 l 742 804 l 754 890 l 339 890 q 203 747 224 890 l 174 547 l 214 547 q 161 453 169 510 l 140 308 l 581 308 l 568 222 q 503 169 558 169 l 119 169 l 96 0 l 513 0 q 653 169 628 0 l 683 381 l 649 381 q 697 489 688 404 l 717 624 m 767 444 q 759 401 764 421 q 747 367 754 382 l 757 367 l 722 124 q 554 -69 693 -69 l 106 -69 l 111 -28 l 64 -28 l 94 197 l 503 197 q 540 228 533 197 l 540 226 l 542 239 l 150 239 l 156 281 l 108 281 l 133 457 q 154 519 138 490 l 142 519 l 175 751 q 339 918 197 918 l 786 918 l 781 876 l 828 876 l 808 735 l 379 735 q 365 719 368 735 l 356 651 l 749 651 l 742 610 l 790 610 l 767 443 l 767 444 m 571 435 l 575 468 l 342 468 q 328 453 331 468 l 322 408 l 553 408 q 572 438 565 414 l 571 435 m 549 407 l 551 407 l 549 407 z "},"¨":{"ha":497,"x_min":194,"x_max":618,"o":"m 242 1029 l 226 919 l 340 919 l 356 1029 l 242 1029 m 431 1029 l 415 919 l 529 919 l 544 1029 l 431 1029 m 388 1057 l 382 1015 l 400 1015 l 406 1057 l 576 1057 l 571 1015 l 618 1015 l 596 850 l 425 850 l 431 892 l 413 892 l 407 850 l 236 850 l 242 892 l 194 892 l 217 1057 l 388 1057 z "},"©":{"ha":997,"x_min":89,"x_max":1075,"o":"m 274 803 l 885 803 q 938 722 950 803 l 849 86 l 232 86 q 182 153 176 86 l 274 803 m 900 0 l 1001 719 q 908 890 1025 890 l 222 890 l 121 169 q 214 0 99 0 l 900 0 m 256 -69 q 150 -14 181 -69 q 89 119 89 18 q 93 174 89 146 l 197 918 l 908 918 q 1014 863 983 918 q 1075 729 1075 831 q 1071 674 1075 703 l 967 -69 l 256 -69 m 910 726 q 910 730 910 729 q 911 733 911 731 l 339 733 l 251 114 l 824 114 l 910 726 m 458 636 l 418 354 q 486 231 403 231 l 701 231 l 719 354 l 528 354 q 490 393 488 354 l 517 574 l 750 574 l 758 636 l 458 636 m 782 657 l 778 626 l 811 626 l 799 522 l 564 522 l 543 374 l 742 374 l 738 344 l 772 344 l 750 181 l 517 181 q 439 221 463 181 q 394 318 394 244 q 399 357 394 338 l 439 657 l 782 657 z "},"«":{"ha":544,"x_min":111,"x_max":686,"o":"m 513 796 l 311 533 l 468 217 l 507 217 l 369 503 l 589 796 l 513 796 m 346 796 l 144 533 l 301 217 l 340 217 l 203 503 l 422 796 l 346 796 m 644 824 l 613 782 l 686 782 l 443 458 l 593 147 l 492 147 l 471 189 l 450 189 l 300 489 l 276 458 l 426 147 l 325 147 l 304 189 l 283 189 l 111 536 l 332 824 l 478 824 l 446 782 l 467 782 l 499 824 l 644 824 z "},"®":{"ha":806,"x_min":106,"x_max":871,"o":"m 360 688 l 594 688 q 603 685 600 688 q 608 680 607 683 q 607 673 608 676 q 600 667 606 669 l 349 501 l 525 329 l 625 329 l 422 521 l 638 661 q 670 692 658 674 q 681 729 682 711 q 666 760 681 747 q 622 772 651 772 l 314 772 l 251 329 l 308 329 l 360 688 m 251 825 l 711 825 q 750 764 760 825 l 683 285 l 219 285 q 183 335 178 285 l 251 825 m 722 221 l 799 761 q 729 890 817 890 l 213 890 l 136 347 q 206 221 119 221 l 722 221 m 247 151 q 158 201 181 151 q 106 310 106 225 q 106 330 106 321 q 108 350 107 339 l 188 918 l 729 918 q 817 867 793 918 q 871 760 871 843 q 871 736 871 749 q 868 714 871 725 l 868 715 l 789 151 l 247 151 m 511 476 l 661 333 l 699 599 q 696 597 697 597 q 693 596 694 597 l 694 596 l 511 476 m 397 414 l 382 313 l 501 313 l 397 414 m 425 618 l 421 582 l 475 618 l 425 618 m 704 751 q 718 744 710 750 l 719 756 l 703 756 q 704 751 704 754 z "},"¯":{"ha":560,"x_min":194,"x_max":689,"o":"m 240 1015 l 228 933 l 601 933 l 614 1015 l 240 1015 m 647 1043 l 640 1001 l 689 1001 l 667 864 l 236 864 l 243 906 l 194 906 l 217 1043 l 647 1043 z "},"°":{"ha":626,"x_min":135,"x_max":708,"o":"m 218 654 q 242 725 224 692 q 290 783 261 758 q 353 822 318 807 q 426 836 389 836 q 495 822 464 836 q 547 783 526 807 q 578 725 568 758 q 582 654 588 692 q 558 583 576 617 q 510 526 539 550 q 447 487 482 501 q 375 472 413 472 q 306 487 338 472 q 253 526 275 501 q 222 583 232 550 q 218 654 213 617 m 165 653 q 171 561 158 604 q 210 486 183 518 q 278 436 238 454 q 367 418 318 418 q 461 436 415 418 q 544 486 507 454 q 605 561 581 518 q 636 653 629 604 q 631 744 643 701 q 590 819 618 788 q 522 870 563 851 q 433 889 482 889 q 339 870 385 889 q 257 819 293 851 q 197 744 221 788 q 165 653 172 701 m 138 657 q 172 758 144 711 q 239 841 199 806 q 329 897 279 876 q 433 917 379 917 q 540 892 493 917 q 619 828 588 868 q 685 749 661 796 q 708 644 708 703 q 708 624 708 633 q 706 607 707 615 q 672 506 699 553 q 603 424 644 460 q 513 369 563 389 q 408 349 463 349 q 300 372 347 349 q 221 436 253 396 q 158 515 181 468 q 135 619 135 561 q 135 639 135 631 q 138 656 136 647 l 138 657 m 288 608 q 286 596 286 601 q 286 588 286 592 q 304 518 286 550 q 375 500 338 500 q 438 513 407 500 q 492 547 468 525 q 533 597 517 568 q 554 658 550 625 q 556 669 556 665 q 556 679 556 674 q 536 747 556 717 q 468 767 506 767 q 406 754 436 767 q 350 720 375 742 q 308 670 325 699 q 288 608 292 642 z "},"²":{"ha":663,"x_min":151,"x_max":733,"o":"m 263 889 l 244 764 l 567 764 q 579 750 581 764 l 575 719 l 239 719 l 183 322 l 599 322 l 615 446 l 278 446 l 307 649 l 644 649 l 661 775 q 599 889 678 889 l 263 889 m 599 917 q 682 867 661 917 q 733 769 733 846 q 733 749 733 757 q 731 729 732 740 l 711 579 l 372 579 l 358 474 l 647 474 l 642 432 l 689 432 l 665 253 l 193 253 l 199 294 l 151 294 l 214 747 l 238 917 l 599 917 z "},"³":{"ha":626,"x_min":146,"x_max":669,"o":"m 239 764 l 507 764 q 518 750 519 764 l 514 721 l 233 721 l 224 650 l 504 650 l 475 447 l 194 447 l 178 324 l 535 324 l 597 775 q 532 890 614 890 l 257 890 l 239 764 m 208 749 l 232 918 l 532 918 q 617 868 596 918 q 669 768 669 847 q 669 748 669 757 q 667 729 668 739 l 601 254 l 188 254 l 193 296 l 146 296 l 169 475 l 450 475 l 465 581 l 233 581 l 239 622 l 192 622 l 207 736 l 208 749 z "},"´":{"ha":410,"x_min":190,"x_max":528,"o":"m 447 958 l 453 999 l 232 954 l 225 914 l 447 958 m 232 836 l 240 888 l 190 878 l 207 978 l 486 1035 l 479 983 l 528 993 l 514 893 l 232 836 z "},"µ":{"ha":704,"x_min":35,"x_max":758,"o":"m 607 0 l 685 557 l 593 557 l 539 169 l 271 169 q 219 208 222 169 l 268 557 l 175 557 l 67 -217 l 160 -217 l 190 0 l 607 0 m 256 -69 l 226 -286 l 76 -286 l 82 -244 l 35 -244 l 150 585 l 300 585 l 294 543 l 342 543 l 293 197 l 514 197 l 568 585 l 717 585 l 711 543 l 758 543 l 674 -69 l 256 -69 z "},"¶":{"ha":722,"x_min":158,"x_max":832,"o":"m 200 810 l 188 722 l 264 629 l 335 629 l 246 0 l 360 0 l 449 629 l 653 629 l 564 0 l 633 0 l 758 890 l 300 890 l 200 810 m 289 918 l 790 918 l 785 876 l 832 876 l 700 -69 l 574 -69 l 579 -28 l 532 -28 l 614 560 l 514 560 l 426 -69 l 256 -69 l 261 -28 l 214 -28 l 297 560 l 293 560 l 258 601 l 251 601 l 158 715 l 174 825 l 289 918 z "},"¸":{"ha":354,"x_min":29,"x_max":349,"o":"m 275 -22 l 164 -22 l 168 8 l 93 8 l 78 -99 l 231 -99 l 218 -185 l 65 -185 l 61 -221 l 247 -221 l 275 -22 m 314 -290 l 71 -290 l 75 -249 l 29 -249 l 40 -157 l 89 -157 l 93 -126 l 46 -126 l 68 36 l 200 36 l 196 6 l 307 6 l 301 -36 l 349 -36 l 314 -290 z "},"¹":{"ha":396,"x_min":183,"x_max":450,"o":"m 215 765 l 286 765 q 296 751 297 765 l 236 325 l 315 325 l 379 776 q 313 892 392 892 l 233 892 l 215 765 m 208 919 l 313 919 q 397 869 374 919 q 450 764 450 849 q 450 747 450 757 q 449 731 450 738 l 382 256 l 246 256 l 251 297 l 204 297 l 260 696 l 225 696 l 231 738 l 183 738 l 208 919 z "},"»":{"ha":531,"x_min":44,"x_max":618,"o":"m 343 215 l 543 478 l 386 794 l 349 794 l 485 508 l 267 215 l 343 215 m 176 215 l 376 478 l 219 794 l 182 794 l 318 508 l 100 215 l 176 215 m 86 146 l 117 188 l 44 188 l 285 511 l 138 822 l 238 822 l 258 781 l 279 781 l 428 479 l 451 511 l 304 822 l 404 822 l 425 781 l 446 781 l 618 433 l 399 146 l 253 146 l 283 188 l 264 188 l 232 146 l 86 146 z "},"¼":{"ha":1142,"x_min":157,"x_max":1167,"o":"m 951 200 l 728 200 l 982 419 l 951 200 m 268 765 l 339 765 q 349 751 350 765 l 289 325 l 368 325 l 432 776 q 365 892 444 892 l 286 892 l 268 765 m 276 0 l 1064 890 l 1001 890 l 218 0 l 276 0 m 981 540 l 533 139 l 943 139 l 924 0 l 993 0 l 1072 567 l 1036 567 q 981 539 1004 567 l 981 540 m 261 919 l 365 919 q 450 869 426 919 q 503 764 503 849 q 503 747 503 757 q 501 731 503 738 l 440 293 l 989 918 l 1125 918 l 1088 876 l 1167 876 l 601 238 l 974 572 l 1008 603 l 1008 590 q 1036 594 1021 594 l 1104 594 l 1099 553 l 1146 553 l 1060 -69 l 933 -69 l 939 -28 l 892 -28 l 904 69 l 503 69 l 549 111 l 489 111 l 331 -69 l 199 -69 l 235 -28 l 157 -28 l 406 256 l 299 256 l 304 297 l 257 297 l 313 696 l 278 696 l 283 738 l 236 738 l 261 919 m 926 228 l 932 261 l 892 228 l 926 228 z "},"½":{"ha":1351,"x_min":179,"x_max":1358,"o":"m 257 764 l 328 764 q 338 750 339 764 l 278 324 l 357 324 l 419 775 q 354 890 433 890 l 275 890 l 257 764 m 299 0 l 1086 890 l 1024 890 l 240 0 l 299 0 m 886 567 l 869 442 l 1192 442 q 1203 428 1206 442 l 1199 397 l 863 397 l 807 0 l 1222 0 l 1240 124 l 903 124 l 931 326 l 1268 326 l 1286 453 q 1222 567 1301 567 l 886 567 m 221 -69 l 257 -28 l 179 -28 l 1011 918 l 1147 918 l 1110 876 l 1189 876 l 939 594 l 1222 594 q 1307 544 1286 594 q 1358 444 1358 524 q 1358 425 1358 433 q 1356 407 1357 417 l 1335 257 l 996 257 l 982 151 l 1272 151 l 1267 110 l 1314 110 l 1289 -69 l 817 -69 l 822 -28 l 775 -28 l 838 425 l 839 425 l 847 490 l 353 -69 l 221 -69 m 250 918 l 354 918 q 439 868 415 918 q 492 765 492 847 q 491 746 492 754 q 489 729 490 738 l 424 254 l 288 254 l 293 296 l 246 296 l 301 694 l 267 694 l 272 736 l 225 736 l 250 918 z "},"¾":{"ha":1379,"x_min":146,"x_max":1400,"o":"m 1206 200 l 982 200 l 1236 419 l 1206 200 m 447 0 l 1235 890 l 1172 890 l 389 0 l 447 0 m 1235 540 l 788 139 l 1197 139 l 1178 0 l 1247 0 l 1326 567 l 1290 567 q 1235 539 1258 567 l 1235 540 m 239 764 l 507 764 q 518 750 519 764 l 514 721 l 233 721 l 224 650 l 504 650 l 475 447 l 194 447 l 178 324 l 535 324 l 597 775 q 532 890 614 890 l 257 890 l 239 764 m 369 -69 l 406 -28 l 328 -28 l 575 254 l 188 254 l 193 296 l 146 296 l 169 475 l 450 475 l 465 581 l 233 581 l 239 622 l 192 622 l 207 736 l 208 749 l 232 918 l 532 918 q 617 868 596 918 q 669 768 669 847 q 669 748 669 757 q 667 729 668 739 l 606 289 l 1160 918 l 1296 918 l 1258 876 l 1338 876 l 501 -69 l 369 -69 m 1263 590 q 1290 594 1275 594 l 1358 594 l 1353 553 l 1400 553 l 1314 -69 l 1188 -69 l 1193 -28 l 1146 -28 l 1158 69 l 757 69 l 803 111 l 715 111 l 1228 572 l 1263 603 l 1263 590 m 1181 228 l 1186 261 l 1146 228 l 1181 228 z "},"¿":{"ha":943,"x_min":13,"x_max":894,"o":"m 697 506 l 721 669 l 588 669 l 564 506 l 697 506 m 688 436 l 554 436 l 539 328 q 519 289 538 303 l 129 3 q 62 -60 85 -22 q 41 -133 39 -97 q 72 -195 43 -169 q 158 -221 100 -221 l 797 -221 l 821 -50 l 215 -50 q 199 -47 206 -50 q 189 -36 192 -43 q 190 -22 186 -29 q 203 -8 193 -15 l 601 285 q 661 345 643 314 q 685 415 679 376 l 688 436 m 754 369 q 727 290 747 325 q 658 221 707 254 l 660 221 l 329 -22 l 853 -22 l 847 -64 l 894 -64 l 864 -290 l 200 -290 q 115 -273 147 -290 q 68 -228 83 -256 q 26 -186 39 -212 q 13 -129 13 -160 q 40 -45 13 -89 q 115 26 67 -1 l 113 25 l 503 311 q 511 331 508 315 l 529 464 l 578 464 l 579 478 l 532 478 l 563 697 l 753 697 l 747 656 l 794 656 l 764 436 l 715 436 l 714 422 l 761 422 l 754 369 z "},"À":{"ha":1029,"x_min":-7,"x_max":1199,"o":"m 915 999 l 910 958 l 1118 914 l 1125 954 l 915 999 m 63 0 l 214 0 l 974 714 l 874 0 l 953 0 l 1078 890 l 1039 890 q 960 853 996 890 l 63 0 m 1157 976 l 1151 944 l 1199 935 l 1182 839 l 1147 846 l 1019 -69 l 883 -69 l 889 -28 l 842 -28 l 921 544 l 268 -69 l 35 -69 l 78 -28 l -7 -28 l 940 872 l 939 872 q 954 886 943 878 l 919 894 l 924 926 l 878 936 l 892 1032 l 1157 976 z "},"Á":{"ha":1029,"x_min":-7,"x_max":1222,"o":"m 1142 958 l 1147 999 l 926 954 l 919 914 l 1142 958 m 63 0 l 214 0 l 974 714 l 874 0 l 953 0 l 1078 890 l 1039 890 q 960 853 996 890 l 63 0 m 1124 876 l 1151 876 l 1019 -69 l 883 -69 l 889 -28 l 842 -28 l 921 544 l 268 -69 l 35 -69 l 78 -28 l -7 -28 l 931 863 l 935 888 l 885 878 l 901 978 l 1181 1035 l 1174 983 l 1222 993 l 1208 893 l 1124 876 z "},"Â":{"ha":1029,"x_min":-7,"x_max":1253,"o":"m 1181 964 l 1049 1008 l 906 964 l 897 907 l 1040 951 l 1172 907 l 1181 964 m 63 0 l 214 0 l 974 714 l 874 0 l 953 0 l 1078 890 l 1039 890 q 960 853 996 890 l 63 0 m 1238 828 l 1149 857 l 1019 -69 l 883 -69 l 889 -28 l 842 -28 l 921 544 l 268 -69 l 35 -69 l 78 -28 l -7 -28 l 906 840 l 913 882 l 863 867 l 881 985 l 1049 1038 l 1211 982 l 1207 956 l 1253 940 l 1238 828 z "},"Ã":{"ha":1029,"x_min":-7,"x_max":1243,"o":"m 1086 931 q 1111 933 1099 931 q 1135 941 1124 935 q 1155 957 1146 947 q 1169 981 1164 967 l 1140 1019 q 1100 986 1121 986 l 1097 986 q 1079 992 1089 988 q 1058 1001 1069 996 q 1036 1010 1046 1006 q 1019 1014 1026 1014 l 1018 1014 q 974 1000 996 1014 q 933 957 953 986 l 967 924 q 1017 958 999 958 l 1018 958 q 1033 954 1024 958 q 1053 944 1043 950 q 1086 931 1064 939 m 63 0 l 214 0 l 974 714 l 874 0 l 953 0 l 1078 890 l 1039 890 q 960 853 996 890 l 63 0 m 939 872 q 949 882 944 878 q 960 890 954 886 l 897 954 q 958 1020 928 999 q 1018 1042 989 1042 l 1019 1042 q 1043 1037 1029 1042 q 1071 1025 1057 1032 l 1069 1026 q 1100 1014 1089 1017 l 1101 1014 q 1138 1069 1107 1015 l 1174 1019 q 1176 1024 1175 1022 q 1179 1028 1178 1025 l 1243 942 q 1202 886 1228 904 q 1149 863 1176 868 l 1019 -69 l 883 -69 l 889 -28 l 842 -28 l 921 544 l 268 -69 l 35 -69 l 78 -28 l -7 -28 l 940 872 l 939 872 z "},"Ä":{"ha":1029,"x_min":-7,"x_max":1285,"o":"m 1097 1029 l 1082 919 l 1196 919 l 1211 1029 l 1097 1029 m 908 1029 l 893 919 l 1007 919 l 1022 1029 l 908 1029 m 63 0 l 214 0 l 974 714 l 874 0 l 953 0 l 1078 890 l 1039 890 q 960 853 996 890 l 63 0 m 1243 1057 l 1238 1015 l 1285 1015 l 1263 850 l 1147 850 l 1019 -69 l 883 -69 l 889 -28 l 842 -28 l 921 544 l 268 -69 l 35 -69 l 78 -28 l -7 -28 l 917 850 l 903 850 l 908 892 l 861 892 l 883 1057 l 1054 1057 l 1049 1015 l 1067 1015 l 1072 1057 l 1243 1057 z "},"Å":{"ha":1029,"x_min":-7,"x_max":1242,"o":"m 1086 949 l 968 949 l 985 1065 l 1103 1065 l 1086 949 m 958 1089 l 933 908 l 1143 908 l 1168 1089 l 958 1089 m 63 0 l 214 0 l 974 714 l 874 0 l 953 0 l 1078 890 l 1039 890 q 960 853 996 890 l 63 0 m 1200 1117 l 1194 1075 l 1242 1075 l 1210 839 l 1146 839 l 1019 -69 l 883 -69 l 889 -28 l 842 -28 l 921 544 l 268 -69 l 35 -69 l 78 -28 l -7 -28 l 940 872 l 939 872 l 947 881 l 901 881 l 933 1117 l 1200 1117 m 1047 976 l 1061 976 l 1064 996 l 1050 996 l 1047 976 z "},"Æ":{"ha":1464,"x_min":28,"x_max":1565,"o":"m 1081 611 l 1124 522 l 1440 522 l 1453 611 l 1081 611 m 1008 714 l 908 0 l 1367 0 l 1390 167 l 1004 167 l 1082 719 l 1468 719 l 1492 890 l 1074 890 q 994 853 1031 890 l 97 0 l 249 0 l 1008 714 m 1417 153 l 1464 153 l 1433 -69 l 918 -69 l 924 -28 l 876 -28 l 956 544 l 303 -69 l 69 -69 l 113 -28 l 28 -28 l 975 872 l 974 872 q 1074 918 1017 918 l 1524 918 l 1518 876 l 1565 876 l 1535 650 l 1147 650 l 1146 639 l 1485 639 l 1479 597 l 1526 597 l 1507 453 l 1147 453 l 1126 494 l 1083 194 l 1422 194 l 1417 153 z "},"Ç":{"ha":914,"x_min":110,"x_max":1036,"o":"m 583 -22 l 472 -22 l 475 0 l 838 0 l 861 169 l 292 169 q 240 222 236 169 l 311 719 l 939 719 l 963 890 l 243 890 l 142 169 q 235 0 119 0 l 400 0 l 386 -99 l 539 -99 l 526 -185 l 374 -185 l 369 -221 l 556 -221 l 583 -22 m 888 156 l 935 156 l 904 -69 l 651 -69 l 622 -290 l 379 -290 l 383 -249 l 338 -249 l 349 -157 l 397 -157 l 401 -126 l 354 -126 l 361 -69 l 276 -69 q 171 -14 201 -69 q 110 119 110 18 q 114 174 110 146 l 218 918 l 994 918 l 989 876 l 1036 876 l 1006 650 l 376 650 l 313 197 l 893 197 l 888 156 z "},"È":{"ha":917,"x_min":86,"x_max":1039,"o":"m 518 999 l 513 958 l 721 914 l 728 954 l 518 999 m 351 611 l 394 522 l 914 522 l 926 611 l 351 611 m 243 890 l 118 0 l 840 0 l 864 167 l 275 167 l 353 719 l 942 719 l 965 890 l 243 890 m 760 976 l 754 944 l 801 935 l 799 918 l 997 918 l 992 876 l 1039 876 l 1008 650 l 418 650 l 417 639 l 958 639 l 953 597 l 1000 597 l 981 453 l 418 453 l 397 494 l 354 194 l 896 194 l 890 153 l 938 153 l 907 -69 l 128 -69 l 133 -28 l 86 -28 l 218 918 l 525 918 l 526 926 l 481 936 l 494 1032 l 760 976 z "},"É":{"ha":917,"x_min":86,"x_max":1039,"o":"m 738 958 l 743 999 l 522 954 l 515 914 l 738 958 m 351 611 l 394 522 l 914 522 l 926 611 l 351 611 m 243 890 l 118 0 l 840 0 l 864 167 l 275 167 l 353 719 l 942 719 l 965 890 l 243 890 m 488 918 l 497 978 l 776 1035 l 769 983 l 818 993 l 807 918 l 997 918 l 992 876 l 1039 876 l 1008 650 l 418 650 l 417 639 l 958 639 l 953 597 l 1000 597 l 981 453 l 418 453 l 397 494 l 354 194 l 896 194 l 890 153 l 938 153 l 907 -69 l 128 -69 l 133 -28 l 86 -28 l 218 918 l 488 918 z "},"Ê":{"ha":917,"x_min":86,"x_max":1039,"o":"m 761 964 l 629 1008 l 486 964 l 478 907 l 621 951 l 753 907 l 761 964 m 351 611 l 394 522 l 914 522 l 926 611 l 351 611 m 243 890 l 118 0 l 840 0 l 864 167 l 275 167 l 353 719 l 942 719 l 965 890 l 243 890 m 831 918 l 997 918 l 992 876 l 1039 876 l 1008 650 l 418 650 l 417 639 l 958 639 l 953 597 l 1000 597 l 981 453 l 418 453 l 397 494 l 354 194 l 896 194 l 890 153 l 938 153 l 907 -69 l 128 -69 l 133 -28 l 86 -28 l 218 918 l 450 918 l 461 985 l 629 1038 l 792 982 l 788 956 l 833 940 l 831 918 z "},"Ë":{"ha":917,"x_min":86,"x_max":1039,"o":"m 476 1029 l 461 919 l 575 919 l 590 1029 l 476 1029 m 665 1029 l 650 919 l 764 919 l 779 1029 l 665 1029 m 351 611 l 394 522 l 914 522 l 926 611 l 351 611 m 243 890 l 118 0 l 840 0 l 864 167 l 275 167 l 353 719 l 942 719 l 965 890 l 243 890 m 811 1057 l 806 1015 l 853 1015 l 839 918 l 997 918 l 992 876 l 1039 876 l 1008 650 l 418 650 l 417 639 l 958 639 l 953 597 l 1000 597 l 981 453 l 418 453 l 397 494 l 354 194 l 896 194 l 890 153 l 938 153 l 907 -69 l 128 -69 l 133 -28 l 86 -28 l 218 918 l 432 918 l 451 1057 l 622 1057 l 617 1015 l 635 1015 l 640 1057 l 811 1057 z "},"Ì":{"ha":350,"x_min":86,"x_max":513,"o":"m 229 999 l 224 958 l 432 914 l 439 954 l 229 999 m 243 890 l 118 0 l 274 0 l 399 890 l 243 890 m 471 976 l 465 944 l 513 935 l 496 839 l 468 844 l 340 -69 l 128 -69 l 133 -28 l 86 -28 l 218 918 l 236 918 l 238 926 l 192 936 l 206 1032 l 471 976 z "},"Í":{"ha":350,"x_min":86,"x_max":528,"o":"m 447 958 l 453 999 l 232 954 l 225 914 l 447 958 m 243 890 l 118 0 l 274 0 l 399 890 l 243 890 m 431 876 l 472 876 l 340 -69 l 128 -69 l 133 -28 l 86 -28 l 213 882 l 190 878 l 207 978 l 486 1035 l 479 983 l 528 993 l 514 893 l 431 876 z "},"Î":{"ha":350,"x_min":86,"x_max":547,"o":"m 475 964 l 343 1008 l 200 964 l 192 907 l 335 951 l 467 907 l 475 964 m 243 890 l 118 0 l 274 0 l 399 890 l 243 890 m 532 828 l 468 849 l 340 -69 l 128 -69 l 133 -28 l 86 -28 l 206 826 l 199 825 l 207 882 l 157 867 l 175 985 l 343 1038 l 506 982 l 501 956 l 547 940 l 532 828 z "},"Ï":{"ha":350,"x_min":86,"x_max":568,"o":"m 381 1029 l 365 919 l 479 919 l 494 1029 l 381 1029 m 192 1029 l 176 919 l 290 919 l 306 1029 l 192 1029 m 243 890 l 118 0 l 274 0 l 399 890 l 243 890 m 526 1057 l 521 1015 l 568 1015 l 546 850 l 468 850 l 340 -69 l 128 -69 l 133 -28 l 86 -28 l 208 850 l 186 850 l 192 892 l 144 892 l 167 1057 l 338 1057 l 332 1015 l 350 1015 l 356 1057 l 526 1057 z "},"Ð":{"ha":917,"x_min":51,"x_max":1053,"o":"m 333 719 l 806 719 q 858 700 847 719 q 833 647 869 681 l 246 96 l 294 442 l 414 442 l 426 533 l 307 533 l 333 719 m 90 533 l 122 442 l 179 442 l 118 0 l 233 0 l 890 625 q 970 731 951 682 q 978 816 989 781 q 936 871 968 851 q 863 890 904 890 l 243 890 l 193 533 l 90 533 m 168 561 l 218 918 l 863 918 q 938 901 903 918 q 992 853 972 883 q 1036 808 1019 835 q 1053 744 1053 781 q 1029 659 1053 704 q 951 563 1006 614 l 951 564 l 286 -69 l 128 -69 l 133 -28 l 86 -28 l 142 378 l 129 414 l 103 414 l 51 561 l 168 561 m 453 519 l 500 519 l 481 372 l 360 372 l 339 222 l 794 650 l 399 650 l 386 561 l 458 561 l 453 519 z "},"Ñ":{"ha":1001,"x_min":86,"x_max":1124,"o":"m 679 931 q 704 933 692 931 q 728 941 717 935 q 748 957 739 947 q 763 981 757 967 l 733 1019 q 693 986 714 986 l 690 986 q 672 992 682 988 q 651 1001 663 996 q 629 1010 639 1006 q 613 1014 619 1014 l 611 1014 q 567 1000 589 1014 q 526 957 546 986 l 560 924 q 610 958 592 958 l 611 958 q 626 954 617 958 q 647 944 636 950 q 679 931 657 939 m 328 683 l 786 0 l 925 0 l 1050 890 l 911 890 l 804 126 l 344 803 l 357 890 l 243 890 l 118 0 l 232 0 l 328 683 m 385 547 l 299 -69 l 128 -69 l 133 -28 l 86 -28 l 218 918 l 389 918 l 383 876 l 431 876 l 415 768 l 788 219 l 886 918 l 1082 918 l 1076 876 l 1124 876 l 992 -69 l 813 -69 l 785 -28 l 771 -28 l 385 547 m 711 863 q 687 874 697 868 q 669 882 676 879 q 653 889 656 889 l 651 889 q 603 842 644 889 l 490 954 q 551 1020 521 999 q 611 1042 582 1042 l 613 1042 q 636 1037 622 1042 q 664 1025 650 1032 l 663 1026 q 682 1018 672 1022 q 694 1014 692 1014 q 731 1069 700 1015 l 767 1019 q 769 1024 768 1022 q 772 1028 771 1025 l 836 942 q 785 879 817 897 q 721 861 753 861 l 711 863 z "},"Ò":{"ha":997,"x_min":110,"x_max":1096,"o":"m 546 999 l 540 958 l 749 914 l 756 954 l 546 999 m 311 719 l 894 719 q 925 681 932 719 l 853 169 l 292 169 q 240 222 236 169 l 311 719 m 921 0 l 1022 719 q 929 890 1046 890 l 243 890 l 142 169 q 235 0 119 0 l 921 0 m 788 976 l 782 944 l 829 935 l 826 918 l 929 918 q 1035 863 1004 918 q 1096 729 1096 831 q 1092 674 1096 703 l 988 -69 l 276 -69 q 171 -14 201 -69 q 110 119 110 18 q 114 174 110 146 l 218 918 l 553 918 l 554 926 l 508 936 l 522 1032 l 788 976 m 313 197 l 828 197 l 892 650 l 376 650 l 313 197 z "},"Ó":{"ha":997,"x_min":110,"x_max":1096,"o":"m 739 958 l 744 999 l 524 954 l 517 914 l 739 958 m 311 719 l 894 719 q 925 681 932 719 l 853 169 l 292 169 q 240 222 236 169 l 311 719 m 921 0 l 1022 719 q 929 890 1046 890 l 243 890 l 142 169 q 235 0 119 0 l 921 0 m 276 -69 q 171 -14 201 -69 q 110 119 110 18 q 114 174 110 146 l 218 918 l 489 918 l 499 978 l 778 1035 l 771 983 l 819 993 l 808 918 l 929 918 q 1035 863 1004 918 q 1096 729 1096 831 q 1092 674 1096 703 l 988 -69 l 276 -69 m 313 197 l 828 197 l 892 650 l 376 650 l 313 197 z "},"Ô":{"ha":997,"x_min":110,"x_max":1096,"o":"m 767 964 l 635 1008 l 492 964 l 483 907 l 626 951 l 758 907 l 767 964 m 311 719 l 894 719 q 925 681 932 719 l 853 169 l 292 169 q 240 222 236 169 l 311 719 m 921 0 l 1022 719 q 929 890 1046 890 l 243 890 l 142 169 q 235 0 119 0 l 921 0 m 836 918 l 929 918 q 1035 863 1004 918 q 1096 729 1096 831 q 1092 674 1096 703 l 988 -69 l 276 -69 q 171 -14 201 -69 q 110 119 110 18 q 114 174 110 146 l 218 918 l 456 918 l 467 985 l 635 1038 l 797 982 l 793 956 l 839 940 l 836 918 m 313 197 l 828 197 l 892 650 l 376 650 l 313 197 z "},"Õ":{"ha":997,"x_min":110,"x_max":1096,"o":"m 675 931 q 700 933 688 931 q 724 941 713 935 q 744 957 735 947 q 758 981 753 967 l 729 1019 q 689 986 710 986 l 686 986 q 668 992 678 988 q 647 1001 658 996 q 625 1010 635 1006 q 608 1014 615 1014 l 607 1014 q 563 1000 585 1014 q 522 957 542 986 l 556 924 q 606 958 588 958 l 607 958 q 622 954 613 958 q 642 944 632 950 q 675 931 653 939 m 311 719 l 894 719 q 925 681 932 719 l 853 169 l 292 169 q 240 222 236 169 l 311 719 m 921 0 l 1022 719 q 929 890 1046 890 l 243 890 l 142 169 q 235 0 119 0 l 921 0 m 276 -69 q 171 -14 201 -69 q 110 119 110 18 q 114 174 110 146 l 218 918 l 522 918 l 486 954 q 547 1020 517 999 q 607 1042 578 1042 l 608 1042 q 632 1037 618 1042 q 660 1025 646 1032 l 658 1026 q 689 1014 678 1017 q 726 1069 694 1014 l 763 1019 q 765 1024 764 1022 q 768 1028 767 1025 l 832 942 q 826 929 829 935 q 819 918 822 924 l 929 918 q 1035 863 1004 918 q 1096 729 1096 831 q 1092 674 1096 703 l 988 -69 l 276 -69 m 313 197 l 828 197 l 892 650 l 376 650 l 313 197 z "},"Ö":{"ha":997,"x_min":110,"x_max":1096,"o":"m 504 1029 l 489 919 l 603 919 l 618 1029 l 504 1029 m 693 1029 l 678 919 l 792 919 l 807 1029 l 693 1029 m 311 719 l 894 719 q 925 681 932 719 l 853 169 l 292 169 q 240 222 236 169 l 311 719 m 921 0 l 1022 719 q 929 890 1046 890 l 243 890 l 142 169 q 235 0 119 0 l 921 0 m 839 1057 l 833 1015 l 881 1015 l 867 918 l 929 918 q 1035 863 1004 918 q 1096 729 1096 831 q 1092 674 1096 703 l 988 -69 l 276 -69 q 171 -14 201 -69 q 110 119 110 18 q 114 174 110 146 l 218 918 l 460 918 l 479 1057 l 650 1057 l 644 1015 l 663 1015 l 668 1057 l 839 1057 m 313 197 l 828 197 l 892 650 l 376 650 l 313 197 z "},"Ø":{"ha":997,"x_min":110,"x_max":1096,"o":"m 311 719 l 689 719 l 393 169 l 292 169 q 240 222 236 169 l 311 719 m 894 719 q 925 681 932 719 l 853 169 l 453 169 l 750 719 l 894 719 m 921 0 l 1022 719 q 929 890 1046 890 l 243 890 l 142 169 q 235 0 119 0 l 921 0 m 276 -69 q 171 -14 201 -69 q 110 119 110 18 q 114 174 110 146 l 218 918 l 929 918 q 1035 863 1004 918 q 1096 729 1096 831 q 1092 674 1096 703 l 988 -69 l 276 -69 m 564 197 l 828 197 l 892 650 l 808 650 l 564 197 m 313 197 l 376 197 l 619 650 l 376 650 l 313 197 z "},"Ù":{"ha":997,"x_min":110,"x_max":1119,"o":"m 542 999 l 536 958 l 744 914 l 751 954 l 542 999 m 335 890 l 243 890 l 142 169 q 235 0 119 0 l 921 0 l 1046 890 l 954 890 l 853 169 l 292 169 q 240 222 236 169 l 335 890 m 361 876 l 408 876 l 313 197 l 828 197 l 929 918 l 1078 918 l 1072 876 l 1119 876 l 988 -69 l 276 -69 q 171 -14 201 -69 q 110 119 110 18 q 114 174 110 146 l 218 918 l 367 918 l 361 876 m 783 976 l 778 944 l 825 935 l 808 839 l 546 894 l 550 926 l 504 936 l 518 1032 l 783 976 z "},"Ú":{"ha":997,"x_min":110,"x_max":1119,"o":"m 760 958 l 765 999 l 544 954 l 538 914 l 760 958 m 335 890 l 243 890 l 142 169 q 235 0 119 0 l 921 0 l 1046 890 l 954 890 l 853 169 l 292 169 q 240 222 236 169 l 335 890 m 361 876 l 408 876 l 313 197 l 828 197 l 929 918 l 1078 918 l 1072 876 l 1119 876 l 988 -69 l 276 -69 q 171 -14 201 -69 q 110 119 110 18 q 114 174 110 146 l 218 918 l 367 918 l 361 876 m 544 836 l 553 888 l 503 878 l 519 978 l 799 1035 l 792 983 l 840 993 l 826 893 l 544 836 z "},"Û":{"ha":997,"x_min":110,"x_max":1119,"o":"m 765 964 l 633 1008 l 490 964 l 482 907 l 625 951 l 757 907 l 765 964 m 335 890 l 243 890 l 142 169 q 235 0 119 0 l 921 0 l 1046 890 l 954 890 l 853 169 l 292 169 q 240 222 236 169 l 335 890 m 361 876 l 408 876 l 313 197 l 828 197 l 929 918 l 1078 918 l 1072 876 l 1119 876 l 988 -69 l 276 -69 q 171 -14 201 -69 q 110 119 110 18 q 114 174 110 146 l 218 918 l 367 918 l 361 876 m 822 828 l 667 881 l 489 825 l 497 882 l 447 867 l 465 985 l 633 1038 l 796 982 l 792 956 l 838 940 l 822 828 z "},"Ü":{"ha":997,"x_min":110,"x_max":1119,"o":"m 685 1029 l 669 919 l 783 919 l 799 1029 l 685 1029 m 496 1029 l 481 919 l 594 919 l 610 1029 l 496 1029 m 335 890 l 243 890 l 142 169 q 235 0 119 0 l 921 0 l 1046 890 l 954 890 l 853 169 l 292 169 q 240 222 236 169 l 335 890 m 361 876 l 408 876 l 313 197 l 828 197 l 929 918 l 1078 918 l 1072 876 l 1119 876 l 988 -69 l 276 -69 q 171 -14 201 -69 q 110 119 110 18 q 114 174 110 146 l 218 918 l 367 918 l 361 876 m 831 1057 l 825 1015 l 872 1015 l 850 850 l 679 850 l 685 892 l 667 892 l 661 850 l 490 850 l 496 892 l 449 892 l 471 1057 l 642 1057 l 636 1015 l 654 1015 l 660 1057 l 831 1057 z "},"Ý":{"ha":999,"x_min":67,"x_max":1121,"o":"m 765 958 l 771 999 l 550 954 l 543 914 l 765 958 m 335 890 l 243 890 l 189 503 q 282 332 167 332 l 878 332 l 861 222 q 796 169 851 169 l 235 169 l 119 0 l 806 0 q 946 169 921 0 l 1047 890 l 954 890 l 889 425 l 328 425 q 276 476 272 425 l 335 890 m 361 876 l 408 876 l 349 453 l 864 453 l 929 918 l 1079 918 l 1074 876 l 1121 876 l 1015 124 q 847 -69 986 -69 l 108 -69 l 136 -28 l 67 -28 l 219 197 l 796 197 q 833 228 826 197 l 833 226 l 839 263 l 324 263 q 217 318 247 263 q 157 451 157 350 q 161 507 157 479 l 218 918 l 367 918 l 361 876 m 550 836 l 558 888 l 508 878 l 525 978 l 804 1035 l 797 983 l 846 993 l 832 893 l 550 836 z "},"Þ":{"ha":726,"x_min":65,"x_max":779,"o":"m 583 322 l 236 322 l 278 624 l 589 624 q 619 585 626 624 l 583 322 m 190 0 l 211 153 l 650 153 l 706 539 q 613 710 728 710 l 290 710 l 293 733 l 292 733 l 314 890 l 222 890 l 97 0 l 190 0 m 107 -69 l 113 -28 l 65 -28 l 197 918 l 346 918 l 340 876 l 388 876 l 368 738 l 613 738 q 718 682 688 738 q 779 549 779 650 q 775 493 779 519 l 717 83 l 276 83 l 257 -69 l 107 -69 m 315 350 l 558 350 l 586 554 l 343 554 l 315 350 z "},"ß":{"ha":997,"x_min":65,"x_max":1075,"o":"m 290 719 l 874 719 q 904 681 911 719 l 900 651 q 849 611 896 614 l 400 611 l 344 533 l 840 533 q 876 486 881 532 l 832 169 l 404 169 l 269 0 l 900 0 l 969 490 q 921 575 981 569 q 994 668 983 592 l 1001 719 q 908 890 1025 890 l 222 890 l 97 0 l 189 0 l 290 719 m 908 918 q 1014 863 983 918 q 1075 729 1075 831 q 1071 674 1075 703 l 1064 622 q 1022 535 1056 564 q 1040 471 1040 513 q 1040 457 1040 464 q 1039 444 1040 451 l 967 -69 l 107 -69 l 113 -28 l 65 -28 l 197 918 l 908 918 m 390 197 l 807 197 l 844 464 l 332 464 l 361 506 l 336 506 l 271 47 l 390 197 m 847 639 q 871 650 867 640 l 356 650 l 347 585 l 386 639 l 847 639 m 261 -28 l 256 -67 l 286 -28 l 261 -28 z "},"à":{"ha":726,"x_min":110,"x_max":778,"o":"m 350 665 l 344 625 l 553 581 l 560 621 l 350 665 m 582 169 l 292 169 q 240 222 236 169 l 250 286 l 599 286 l 582 169 m 185 471 l 589 471 q 619 432 626 471 l 606 336 l 165 336 l 142 169 q 235 0 119 0 l 650 0 l 704 386 q 611 557 726 557 l 196 557 l 185 471 m 592 643 l 586 611 l 633 601 l 631 583 q 717 529 692 576 q 778 396 778 497 q 774 340 778 367 l 717 -69 l 276 -69 q 171 -14 201 -69 q 110 119 110 18 q 114 174 110 146 l 140 364 l 581 364 l 586 401 l 194 401 l 200 443 l 153 443 l 171 585 l 357 585 l 358 593 l 313 603 l 326 699 l 592 643 m 313 197 l 557 197 l 560 217 l 315 217 l 313 197 z "},"á":{"ha":726,"x_min":110,"x_max":778,"o":"m 578 625 l 583 665 l 363 621 l 356 581 l 578 625 m 582 169 l 292 169 q 240 222 236 169 l 250 286 l 599 286 l 582 169 m 185 471 l 589 471 q 619 432 626 471 l 606 336 l 165 336 l 142 169 q 235 0 119 0 l 650 0 l 704 386 q 611 557 726 557 l 196 557 l 185 471 m 171 585 l 328 585 l 338 644 l 617 701 l 610 650 l 658 660 l 647 581 q 717 529 696 569 q 778 396 778 497 q 774 340 778 367 l 717 -69 l 276 -69 q 171 -14 201 -69 q 110 119 110 18 q 114 174 110 146 l 140 364 l 581 364 l 586 401 l 194 401 l 200 443 l 153 443 l 171 585 m 313 197 l 557 197 l 560 217 l 315 217 l 313 197 z "},"â":{"ha":726,"x_min":110,"x_max":778,"o":"m 624 631 l 492 675 l 349 631 l 340 574 l 483 618 l 615 574 l 624 631 m 582 169 l 292 169 q 240 222 236 169 l 250 286 l 599 286 l 582 169 m 185 471 l 589 471 q 619 432 626 471 l 606 336 l 165 336 l 142 169 q 235 0 119 0 l 650 0 l 704 386 q 611 557 726 557 l 196 557 l 185 471 m 689 561 q 717 529 706 549 q 778 396 778 497 q 774 340 778 367 l 717 -69 l 276 -69 q 171 -14 201 -69 q 110 119 110 18 q 114 174 110 146 l 140 364 l 581 364 l 586 401 l 194 401 l 200 443 l 153 443 l 171 585 l 313 585 l 324 651 l 492 704 l 654 649 l 650 622 l 696 607 l 689 561 m 313 197 l 557 197 l 560 217 l 315 217 l 313 197 z "},"ã":{"ha":726,"x_min":110,"x_max":778,"o":"m 501 597 q 526 599 514 597 q 550 608 539 601 q 570 624 561 614 q 585 647 579 633 l 556 686 q 515 653 536 653 l 513 653 q 494 658 504 654 q 473 667 485 663 q 451 676 461 672 q 435 681 442 681 l 433 681 q 390 667 411 681 q 349 624 368 653 l 382 590 q 432 625 414 625 l 433 625 q 449 621 439 625 q 469 611 458 617 q 501 597 479 606 m 582 169 l 292 169 q 240 222 236 169 l 250 286 l 599 286 l 582 169 m 185 471 l 589 471 q 619 432 626 471 l 606 336 l 165 336 l 142 169 q 235 0 119 0 l 650 0 l 704 386 q 611 557 726 557 l 196 557 l 185 471 m 171 585 l 349 585 l 313 621 q 374 687 343 665 q 433 708 404 708 l 435 708 q 458 703 444 708 q 486 692 472 699 l 485 693 q 504 685 494 689 q 517 681 514 681 q 553 736 522 682 l 589 686 q 592 690 590 689 q 594 694 593 692 l 658 608 q 651 594 656 601 q 644 582 647 588 q 717 529 693 572 q 778 396 778 497 q 774 340 778 367 l 717 -69 l 276 -69 q 171 -14 201 -69 q 110 119 110 18 q 114 174 110 146 l 140 364 l 581 364 l 586 401 l 194 401 l 200 443 l 153 443 l 171 585 m 313 197 l 557 197 l 560 217 l 315 217 l 313 197 z "},"ä":{"ha":726,"x_min":110,"x_max":778,"o":"m 328 696 l 313 586 l 426 586 l 442 696 l 328 696 m 517 696 l 501 586 l 615 586 l 631 696 l 517 696 m 582 169 l 292 169 q 240 222 236 169 l 250 286 l 599 286 l 582 169 m 185 471 l 589 471 q 619 432 626 471 l 606 336 l 165 336 l 142 169 q 235 0 119 0 l 650 0 l 704 386 q 611 557 726 557 l 196 557 l 185 471 m 663 724 l 657 682 l 704 682 l 688 563 q 717 529 706 550 q 778 396 778 497 q 774 340 778 367 l 717 -69 l 276 -69 q 171 -14 201 -69 q 110 119 110 18 q 114 174 110 146 l 140 364 l 581 364 l 586 401 l 194 401 l 200 443 l 153 443 l 171 585 l 283 585 l 303 724 l 474 724 l 468 682 l 486 682 l 492 724 l 663 724 m 313 197 l 557 197 l 560 217 l 315 217 l 313 197 z "},"å":{"ha":726,"x_min":110,"x_max":778,"o":"m 499 615 l 381 615 l 397 732 l 515 732 l 499 615 m 371 756 l 346 575 l 556 575 l 581 756 l 371 756 m 582 169 l 292 169 q 240 222 236 169 l 250 286 l 599 286 l 582 169 m 185 471 l 589 471 q 619 432 626 471 l 606 336 l 165 336 l 142 169 q 235 0 119 0 l 650 0 l 704 386 q 611 557 726 557 l 196 557 l 185 471 m 613 783 l 607 742 l 654 742 l 632 583 q 717 529 693 575 q 778 396 778 497 q 774 340 778 367 l 717 -69 l 276 -69 q 171 -14 201 -69 q 110 119 110 18 q 114 174 110 146 l 140 364 l 581 364 l 586 401 l 194 401 l 200 443 l 153 443 l 171 585 l 318 585 l 346 783 l 613 783 m 313 197 l 557 197 l 560 217 l 315 217 l 313 197 m 460 643 l 474 643 l 476 663 l 463 663 l 460 643 z "},"æ":{"ha":936,"x_min":89,"x_max":967,"o":"m 463 169 l 271 169 q 219 222 215 169 l 229 286 l 479 286 l 463 169 m 544 354 l 561 471 l 778 471 q 807 432 814 471 l 796 354 l 544 354 m 839 0 l 863 169 l 576 169 q 525 222 521 169 l 538 307 l 882 307 l 893 386 q 800 557 915 557 l 175 557 l 164 471 l 471 471 q 500 432 507 471 l 486 336 l 144 336 l 121 169 q 214 0 99 0 l 839 0 m 256 -69 q 150 -14 181 -69 q 89 119 89 18 q 93 174 89 146 l 119 364 l 461 364 l 467 401 l 174 401 l 179 443 l 132 443 l 150 585 l 800 585 q 906 529 875 585 q 967 396 967 497 q 963 340 967 367 l 949 238 l 603 238 l 597 197 l 894 197 l 889 156 l 936 156 l 906 -69 l 256 -69 m 624 382 l 771 382 l 774 401 l 626 401 l 624 382 m 292 197 l 438 197 l 440 217 l 294 217 l 292 197 z "},"ç":{"ha":608,"x_min":110,"x_max":683,"o":"m 456 -22 l 344 -22 l 347 0 l 532 0 l 556 169 l 292 169 q 240 222 236 169 l 276 471 l 599 471 l 610 557 l 196 557 l 142 169 q 235 0 119 0 l 272 0 l 258 -99 l 411 -99 l 399 -185 l 246 -185 l 242 -221 l 428 -221 l 456 -22 m 582 156 l 629 156 l 599 -69 l 524 -69 l 494 -290 l 251 -290 l 256 -249 l 210 -249 l 221 -157 l 269 -157 l 274 -126 l 226 -126 l 235 -64 q 171 -14 192 -51 q 110 119 110 18 q 114 174 110 146 l 171 585 l 642 585 l 636 543 l 683 543 l 665 401 l 342 401 l 313 197 l 588 197 l 582 156 z "},"è":{"ha":726,"x_min":110,"x_max":778,"o":"m 364 665 l 358 625 l 567 581 l 574 621 l 364 665 m 260 354 l 276 471 l 589 471 q 619 432 626 471 l 608 354 l 260 354 m 650 0 l 674 169 l 292 169 q 240 222 236 169 l 253 307 l 693 307 l 704 386 q 611 557 726 557 l 196 557 l 142 169 q 235 0 119 0 l 650 0 m 606 643 l 600 611 l 647 601 l 643 582 q 717 529 693 571 q 778 396 778 497 q 774 340 778 367 l 760 238 l 318 238 l 313 197 l 706 197 l 700 156 l 747 156 l 717 -69 l 276 -69 q 171 -14 201 -69 q 110 119 110 18 q 114 174 110 146 l 171 585 l 371 585 l 372 593 l 326 603 l 340 699 l 606 643 m 339 382 l 583 382 l 586 401 l 342 401 l 339 382 z "},"é":{"ha":726,"x_min":110,"x_max":778,"o":"m 569 625 l 575 665 l 354 621 l 347 581 l 569 625 m 260 354 l 276 471 l 589 471 q 619 432 626 471 l 608 354 l 260 354 m 650 0 l 674 169 l 292 169 q 240 222 236 169 l 253 307 l 693 307 l 704 386 q 611 557 726 557 l 196 557 l 142 169 q 235 0 119 0 l 650 0 m 276 -69 q 171 -14 201 -69 q 110 119 110 18 q 114 174 110 146 l 171 585 l 319 585 l 329 644 l 608 701 l 601 650 l 650 660 l 639 582 q 717 529 693 574 q 778 396 778 497 q 774 340 778 367 l 760 238 l 318 238 l 313 197 l 706 197 l 700 156 l 747 156 l 717 -69 l 276 -69 m 339 382 l 583 382 l 586 401 l 342 401 l 339 382 z "},"ê":{"ha":726,"x_min":110,"x_max":778,"o":"m 608 631 l 476 675 l 333 631 l 325 574 l 468 618 l 600 574 l 608 631 m 260 354 l 276 471 l 589 471 q 619 432 626 471 l 608 354 l 260 354 m 650 0 l 674 169 l 292 169 q 240 222 236 169 l 253 307 l 693 307 l 704 386 q 611 557 726 557 l 196 557 l 142 169 q 235 0 119 0 l 650 0 m 675 571 q 717 529 701 556 q 778 396 778 497 q 774 340 778 367 l 760 238 l 318 238 l 313 197 l 706 197 l 700 156 l 747 156 l 717 -69 l 276 -69 q 171 -14 201 -69 q 110 119 110 18 q 114 174 110 146 l 171 585 l 297 585 l 308 651 l 476 704 l 639 649 l 635 622 l 681 607 l 675 571 m 339 382 l 583 382 l 586 401 l 342 401 l 339 382 z "},"ë":{"ha":726,"x_min":110,"x_max":778,"o":"m 333 696 l 318 586 l 432 586 l 447 696 l 333 696 m 522 696 l 507 586 l 621 586 l 636 696 l 522 696 m 260 354 l 276 471 l 589 471 q 619 432 626 471 l 608 354 l 260 354 m 650 0 l 674 169 l 292 169 q 240 222 236 169 l 253 307 l 693 307 l 704 386 q 611 557 726 557 l 196 557 l 142 169 q 235 0 119 0 l 650 0 m 668 724 l 663 682 l 710 682 l 693 560 q 717 529 707 547 q 778 396 778 497 q 774 340 778 367 l 760 238 l 318 238 l 313 197 l 706 197 l 700 156 l 747 156 l 717 -69 l 276 -69 q 171 -14 201 -69 q 110 119 110 18 q 114 174 110 146 l 171 585 l 289 585 l 308 724 l 479 724 l 474 682 l 492 682 l 497 724 l 668 724 m 339 382 l 583 382 l 586 401 l 342 401 l 339 382 z "},"ì":{"ha":308,"x_min":97,"x_max":442,"o":"m 158 665 l 153 625 l 361 581 l 368 621 l 158 665 m 207 557 l 129 3 l 221 3 l 299 557 l 207 557 m 400 643 l 394 611 l 442 601 l 425 506 l 368 517 l 288 -67 l 139 -67 l 144 -25 l 97 -25 l 178 557 l 163 561 l 167 593 l 121 603 l 135 699 l 400 643 z "},"í":{"ha":308,"x_min":97,"x_max":451,"o":"m 371 625 l 376 665 l 156 621 l 149 581 l 371 625 m 207 557 l 129 3 l 221 3 l 299 557 l 207 557 m 354 543 l 372 543 l 288 -67 l 139 -67 l 144 -25 l 97 -25 l 171 506 l 156 503 l 164 554 l 114 544 l 131 644 l 410 701 l 403 650 l 451 660 l 438 560 l 354 543 z "},"î":{"ha":308,"x_min":83,"x_max":474,"o":"m 401 631 l 269 675 l 126 631 l 118 574 l 261 618 l 393 574 l 401 631 m 207 557 l 129 3 l 221 3 l 299 557 l 207 557 m 458 494 l 369 524 l 288 -67 l 139 -67 l 144 -25 l 97 -25 l 171 506 l 125 492 l 133 549 l 83 533 l 101 651 l 269 704 l 432 649 l 428 622 l 474 607 l 458 494 z "},"ï":{"ha":308,"x_min":72,"x_max":496,"o":"m 308 696 l 293 586 l 407 586 l 422 696 l 308 696 m 119 696 l 104 586 l 218 586 l 233 696 l 119 696 m 207 557 l 129 3 l 221 3 l 299 557 l 207 557 m 454 724 l 449 682 l 496 682 l 474 517 l 368 517 l 288 -67 l 139 -67 l 144 -25 l 97 -25 l 172 517 l 114 517 l 119 558 l 72 558 l 94 724 l 265 724 l 260 682 l 278 682 l 283 724 l 454 724 z "},"ð":{"ha":999,"x_min":82,"x_max":1131,"o":"m 721 638 l 751 546 l 901 546 l 856 222 q 790 169 846 169 l 229 169 l 253 333 l 750 333 l 806 411 l 172 411 l 114 0 l 800 0 q 940 169 915 0 l 993 546 l 1043 546 l 1057 638 l 1007 638 l 1042 890 l 238 890 l 214 719 l 926 719 l 915 638 l 721 638 m 686 650 l 224 650 l 229 692 l 182 692 l 213 918 l 1074 918 l 1068 876 l 1115 876 l 1086 665 l 1089 665 l 1082 624 l 1131 624 l 1108 476 l 1058 476 l 1010 124 q 842 -69 981 -69 l 124 -69 l 129 -28 l 82 -28 l 147 439 l 858 439 l 863 476 l 774 476 l 760 518 l 732 518 l 686 650 m 828 226 l 839 311 l 806 264 l 318 264 l 310 197 l 790 197 q 828 228 821 197 l 828 226 m 851 397 l 857 436 l 829 397 l 851 397 z "},"ñ":{"ha":682,"x_min":86,"x_max":733,"o":"m 472 597 q 497 599 485 597 q 521 608 510 601 q 541 624 532 614 q 556 647 550 633 l 526 686 q 486 653 507 653 l 483 653 q 465 658 475 654 q 444 667 456 663 q 422 676 432 672 q 406 681 413 681 l 404 681 q 360 667 382 681 q 319 624 339 653 l 353 590 q 403 625 385 625 l 404 625 q 419 621 410 625 q 440 611 429 617 q 472 597 450 606 m 196 557 l 118 3 l 210 3 l 276 471 l 500 471 q 531 432 538 471 l 469 0 l 606 0 l 660 386 q 567 557 682 557 l 196 557 m 319 585 l 283 621 q 344 687 314 665 q 404 708 375 708 l 406 708 q 429 703 415 708 q 457 692 443 699 l 456 693 q 486 681 475 683 l 488 681 q 524 736 493 682 l 560 686 q 563 690 561 689 q 565 694 564 692 l 629 608 q 621 592 625 600 q 613 578 617 585 q 672 529 653 565 q 733 396 733 497 q 729 340 733 367 l 672 -69 l 479 -69 l 485 -28 l 438 -28 l 497 401 l 342 401 l 276 -67 l 128 -67 l 133 -25 l 86 -25 l 171 585 l 319 585 z "},"ò":{"ha":726,"x_min":110,"x_max":778,"o":"m 365 665 l 360 625 l 568 581 l 575 621 l 365 665 m 276 471 l 589 471 q 619 432 626 471 l 582 169 l 292 169 q 240 222 236 169 l 276 471 m 650 0 l 704 386 q 611 557 726 557 l 196 557 l 142 169 q 235 0 119 0 l 650 0 m 607 643 l 601 611 l 649 601 l 644 582 q 717 529 693 572 q 778 396 778 497 q 774 340 778 367 l 717 -69 l 276 -69 q 171 -14 201 -69 q 110 119 110 18 q 114 174 110 146 l 171 585 l 372 585 l 374 593 l 328 603 l 342 699 l 607 643 m 313 197 l 557 197 l 586 401 l 342 401 l 313 197 z "},"ó":{"ha":726,"x_min":110,"x_max":778,"o":"m 575 625 l 581 665 l 360 621 l 353 581 l 575 625 m 276 471 l 589 471 q 619 432 626 471 l 582 169 l 292 169 q 240 222 236 169 l 276 471 m 650 0 l 704 386 q 611 557 726 557 l 196 557 l 142 169 q 235 0 119 0 l 650 0 m 276 -69 q 171 -14 201 -69 q 110 119 110 18 q 114 174 110 146 l 171 585 l 325 585 l 335 644 l 614 701 l 607 650 l 656 660 l 644 582 q 717 529 693 572 q 778 396 778 497 q 774 340 778 367 l 717 -69 l 276 -69 m 313 197 l 557 197 l 586 401 l 342 401 l 313 197 z "},"ô":{"ha":726,"x_min":110,"x_max":778,"o":"m 603 631 l 471 675 l 328 631 l 319 574 l 463 618 l 594 574 l 603 631 m 276 471 l 589 471 q 619 432 626 471 l 582 169 l 292 169 q 240 222 236 169 l 276 471 m 650 0 l 704 386 q 611 557 726 557 l 196 557 l 142 169 q 235 0 119 0 l 650 0 m 669 574 q 717 529 701 558 q 778 396 778 497 q 774 340 778 367 l 717 -69 l 276 -69 q 171 -14 201 -69 q 110 119 110 18 q 114 174 110 146 l 171 585 l 292 585 l 303 651 l 471 704 l 633 649 l 629 622 l 675 607 l 669 574 m 313 197 l 557 197 l 586 401 l 342 401 l 313 197 z "},"õ":{"ha":726,"x_min":110,"x_max":778,"o":"m 500 597 q 525 599 513 597 q 549 608 538 601 q 569 624 560 614 q 583 647 578 633 l 554 686 q 514 653 535 653 l 511 653 q 493 658 503 654 q 472 667 483 663 q 450 676 460 672 q 433 681 440 681 l 432 681 q 388 667 410 681 q 347 624 367 653 l 381 590 q 431 625 413 625 l 432 625 q 447 621 438 625 q 467 611 457 617 q 500 597 478 606 m 276 471 l 589 471 q 619 432 626 471 l 582 169 l 292 169 q 240 222 236 169 l 276 471 m 650 0 l 704 386 q 611 557 726 557 l 196 557 l 142 169 q 235 0 119 0 l 650 0 m 276 -69 q 171 -14 201 -69 q 110 119 110 18 q 114 174 110 146 l 171 585 l 347 585 l 311 621 q 372 687 342 665 q 432 708 403 708 l 433 708 q 457 703 443 708 q 485 692 471 699 l 483 693 q 514 681 503 683 q 551 736 519 681 l 588 686 q 590 690 589 689 q 593 694 592 692 l 657 608 q 650 594 654 601 q 643 582 646 588 q 717 529 693 571 q 778 396 778 497 q 774 340 778 367 l 717 -69 l 276 -69 m 313 197 l 557 197 l 586 401 l 342 401 l 313 197 z "},"ö":{"ha":726,"x_min":110,"x_max":778,"o":"m 322 696 l 307 586 l 421 586 l 436 696 l 322 696 m 511 696 l 496 586 l 610 586 l 625 696 l 511 696 m 276 471 l 589 471 q 619 432 626 471 l 582 169 l 292 169 q 240 222 236 169 l 276 471 m 650 0 l 704 386 q 611 557 726 557 l 196 557 l 142 169 q 235 0 119 0 l 650 0 m 657 724 l 651 682 l 699 682 l 683 565 q 717 529 704 553 q 778 396 778 497 q 774 340 778 367 l 717 -69 l 276 -69 q 171 -14 201 -69 q 110 119 110 18 q 114 174 110 146 l 171 585 l 278 585 l 297 724 l 468 724 l 463 682 l 481 682 l 486 724 l 657 724 m 313 197 l 557 197 l 586 401 l 342 401 l 313 197 z "},"ø":{"ha":726,"x_min":89,"x_max":757,"o":"m 371 169 l 535 471 l 568 471 q 599 432 606 471 l 561 169 l 371 169 m 256 471 l 482 471 l 319 169 l 271 169 q 219 222 215 169 l 256 471 m 629 0 l 683 386 q 590 557 706 557 l 175 557 l 121 169 q 214 0 99 0 l 629 0 m 256 -69 q 150 -14 181 -69 q 89 119 89 18 q 93 174 89 146 l 150 585 l 590 585 q 696 529 665 585 q 757 396 757 497 q 753 340 757 367 l 696 -69 l 256 -69 m 303 197 l 413 401 l 321 401 l 292 197 l 303 197 m 536 197 l 556 331 l 483 197 l 536 197 z "},"ù":{"ha":704,"x_min":110,"x_max":779,"o":"m 360 665 l 354 625 l 563 581 l 569 621 l 360 665 m 628 0 l 706 557 l 614 557 l 560 169 l 292 169 q 240 222 236 169 l 288 557 l 196 557 l 142 169 q 235 0 119 0 l 628 0 m 601 643 l 596 611 l 643 601 l 640 585 l 738 585 l 732 543 l 779 543 l 694 -69 l 276 -69 q 171 -14 201 -69 q 110 119 110 18 q 114 174 110 146 l 171 585 l 319 585 l 314 543 l 361 543 l 313 197 l 535 197 l 579 515 l 364 561 l 368 593 l 322 603 l 336 699 l 601 643 z "},"ú":{"ha":704,"x_min":110,"x_max":779,"o":"m 567 625 l 572 665 l 351 621 l 344 581 l 567 625 m 628 0 l 706 557 l 614 557 l 560 169 l 292 169 q 240 222 236 169 l 288 557 l 196 557 l 142 169 q 235 0 119 0 l 628 0 m 276 -69 q 171 -14 201 -69 q 110 119 110 18 q 114 174 110 146 l 171 585 l 317 585 l 326 644 l 606 701 l 599 650 l 647 660 l 636 585 l 738 585 l 732 543 l 779 543 l 694 -69 l 276 -69 m 313 197 l 535 197 l 583 550 l 356 503 l 313 197 m 314 543 l 358 543 l 360 554 l 314 544 l 314 543 z "},"û":{"ha":704,"x_min":110,"x_max":779,"o":"m 597 631 l 465 675 l 322 631 l 314 574 l 457 618 l 589 574 l 597 631 m 628 0 l 706 557 l 614 557 l 560 169 l 292 169 q 240 222 236 169 l 288 557 l 196 557 l 142 169 q 235 0 119 0 l 628 0 m 667 585 l 738 585 l 732 543 l 779 543 l 694 -69 l 276 -69 q 171 -14 201 -69 q 110 119 110 18 q 114 174 110 146 l 171 585 l 286 585 l 297 651 l 465 704 l 628 649 l 624 622 l 669 607 l 667 585 m 313 197 l 535 197 l 579 519 l 499 547 l 356 503 l 313 197 m 314 543 l 328 543 l 329 549 l 314 544 l 314 543 z "},"ü":{"ha":704,"x_min":110,"x_max":779,"o":"m 511 696 l 496 586 l 610 586 l 625 696 l 511 696 m 322 696 l 307 586 l 421 586 l 436 696 l 322 696 m 628 0 l 706 557 l 614 557 l 560 169 l 292 169 q 240 222 236 169 l 288 557 l 196 557 l 142 169 q 235 0 119 0 l 628 0 m 657 724 l 651 682 l 699 682 l 685 585 l 738 585 l 732 543 l 779 543 l 694 -69 l 276 -69 q 171 -14 201 -69 q 110 119 110 18 q 114 174 110 146 l 171 585 l 278 585 l 297 724 l 468 724 l 463 682 l 481 682 l 486 724 l 657 724 m 357 517 l 313 197 l 535 197 l 579 517 l 506 517 l 511 558 l 493 558 l 488 517 l 357 517 m 314 543 l 319 543 l 322 558 l 315 558 l 314 543 z "},"ý":{"ha":726,"x_min":110,"x_max":801,"o":"m 583 625 l 589 665 l 368 621 l 361 581 l 583 625 m 288 557 l 196 557 l 142 169 q 235 0 119 0 l 558 0 l 553 -36 q 488 -92 536 -92 l 281 -92 l 263 -222 l 503 -222 q 643 -53 618 -222 l 728 557 l 636 557 l 582 169 l 292 169 q 240 222 236 169 l 288 557 m 314 543 l 361 543 l 313 197 l 557 197 l 606 550 l 368 503 l 376 554 l 326 544 l 343 644 l 622 701 l 615 650 l 664 660 l 653 585 l 760 585 l 754 543 l 801 543 l 713 -99 q 544 -292 683 -292 l 272 -292 l 278 -250 l 231 -250 l 254 -68 q 171 -14 196 -60 q 110 119 110 18 q 114 174 110 146 l 171 585 l 319 585 l 314 543 z "},"þ":{"ha":726,"x_min":86,"x_max":800,"o":"m 604 322 l 257 322 l 299 624 l 610 624 q 640 585 647 624 l 604 322 m 211 0 l 232 153 l 671 153 l 726 539 q 633 710 749 710 l 311 710 l 314 733 l 313 733 l 335 890 l 243 890 l 118 0 l 211 0 m 128 -69 l 133 -28 l 86 -28 l 218 918 l 367 918 l 361 876 l 408 876 l 389 738 l 633 738 q 739 682 708 738 q 800 549 800 650 q 796 493 800 519 l 738 83 l 297 83 l 278 -69 l 128 -69 m 336 350 l 579 350 l 607 554 l 364 554 l 336 350 z "},"ÿ":{"ha":726,"x_min":110,"x_max":801,"o":"m 514 696 l 499 586 l 613 586 l 628 696 l 514 696 m 325 696 l 310 586 l 424 586 l 439 696 l 325 696 m 288 557 l 196 557 l 142 169 q 235 0 119 0 l 558 0 l 553 -36 q 488 -92 536 -92 l 281 -92 l 263 -222 l 503 -222 q 643 -53 618 -222 l 728 557 l 636 557 l 582 169 l 292 169 q 240 222 236 169 l 288 557 m 660 724 l 654 682 l 701 682 l 688 585 l 760 585 l 754 543 l 801 543 l 713 -99 q 544 -292 683 -292 l 272 -292 l 278 -250 l 231 -250 l 254 -68 q 171 -14 196 -60 q 110 119 110 18 q 114 174 110 146 l 171 585 l 281 585 l 300 724 l 471 724 l 465 682 l 483 682 l 489 724 l 660 724 m 357 517 l 313 197 l 557 197 l 601 517 l 508 517 l 514 558 l 496 558 l 490 517 l 357 517 m 314 543 l 322 543 l 325 558 l 315 558 l 314 543 z "},"ˇ":{"ha":469,"x_min":200,"x_max":590,"o":"m 231 950 l 363 906 l 506 950 l 514 1007 l 369 963 l 239 1007 l 231 950 m 215 1044 l 369 992 l 549 1046 l 539 989 l 590 1004 l 572 888 l 404 835 l 242 890 l 244 917 l 200 932 l 215 1044 z "},"˘":{"ha":475,"x_min":199,"x_max":594,"o":"m 229 943 q 363 903 303 903 q 510 943 422 903 l 518 1003 q 368 958 429 958 q 238 1003 310 958 l 229 943 m 251 1026 q 368 986 319 986 q 553 1051 419 986 l 544 985 q 594 1010 567 994 l 578 883 q 404 833 469 833 q 240 886 338 833 l 243 906 q 221 915 232 910 q 199 928 210 921 l 210 1007 l 251 1026 z "},"˙":{"ha":308,"x_min":194,"x_max":429,"o":"m 242 1029 l 226 919 l 340 919 l 356 1029 l 242 1029 m 388 1057 l 382 1015 l 429 1015 l 407 850 l 236 850 l 242 892 l 194 892 l 217 1057 l 388 1057 z "},"˚":{"ha":404,"x_min":193,"x_max":533,"o":"m 378 949 l 260 949 l 276 1065 l 394 1065 l 378 949 m 250 1089 l 225 908 l 435 908 l 460 1089 l 250 1089 m 492 1117 l 486 1075 l 533 1075 l 501 839 l 235 839 l 240 881 l 193 881 l 225 1117 l 492 1117 m 339 976 l 353 976 l 356 996 l 342 996 l 339 976 z "},"˝":{"ha":538,"x_min":153,"x_max":704,"o":"m 382 1054 l 226 919 l 274 919 l 429 1054 l 382 1054 m 382 919 l 435 919 l 589 1054 l 538 1054 l 382 919 m 503 1082 l 454 1040 l 479 1040 l 528 1082 l 663 1082 l 614 1040 l 704 1040 l 486 850 l 350 850 l 397 892 l 372 892 l 325 850 l 194 850 l 242 892 l 153 892 l 372 1082 l 503 1082 z "},"˛":{"ha":354,"x_min":21,"x_max":344,"o":"m 192 -22 l 81 -22 l 53 -221 l 239 -221 l 243 -185 l 90 -185 l 103 -99 l 256 -99 l 271 8 l 196 8 l 192 -22 m 56 6 l 167 6 l 171 36 l 303 36 l 297 -6 l 344 -6 l 322 -168 l 274 -168 l 269 -199 l 317 -199 l 306 -290 l 63 -290 l 68 -249 l 21 -249 l 56 6 z "},"ı":{"ha":308,"x_min":76,"x_max":351,"o":"m 186 557 l 108 3 l 200 3 l 278 557 l 186 557 m 310 585 l 304 543 l 351 543 l 267 -67 l 118 -67 l 124 -25 l 76 -25 l 161 585 l 310 585 z "},"Ł":{"ha":917,"x_min":54,"x_max":938,"o":"m 126 407 l 178 429 l 182 453 l 75 407 l 126 407 m 556 593 l 500 593 l 324 515 l 321 492 l 556 593 m 243 890 l 182 453 l 324 515 l 376 890 l 243 890 m 321 492 l 178 429 l 118 0 l 840 0 l 864 167 l 275 167 l 321 492 m 388 431 l 354 194 l 896 194 l 890 153 l 938 153 l 907 -69 l 128 -69 l 133 -28 l 86 -28 l 136 338 l 106 338 l 97 379 l 64 379 l 54 428 l 156 471 l 218 918 l 408 918 l 403 876 l 450 876 l 410 582 l 496 621 l 567 621 l 575 579 l 608 579 l 618 531 l 388 431 z "},"ł":{"ha":308,"x_min":69,"x_max":538,"o":"m 133 388 l 175 407 l 118 3 l 232 3 l 297 467 l 472 551 l 428 551 l 300 489 l 357 890 l 243 890 l 178 429 l 93 388 l 133 388 m 485 579 l 494 538 l 526 538 l 538 490 l 364 406 l 299 -67 l 128 -67 l 133 -25 l 86 -25 l 133 318 l 122 318 l 113 360 l 81 360 l 69 407 l 151 447 l 218 918 l 389 918 l 383 876 l 431 876 l 386 563 l 421 579 l 485 579 z "},"∕":{"ha":883,"x_min":36,"x_max":1046,"o":"m 156 0 l 943 890 l 881 890 l 97 0 l 156 0 m 78 -69 l 114 -28 l 36 -28 l 868 918 l 1004 918 l 967 876 l 1046 876 l 210 -69 l 78 -69 z "},"Ś":{"ha":950,"x_min":99,"x_max":1069,"o":"m 731 958 l 736 999 l 515 954 l 508 914 l 731 958 m 154 169 l 131 0 l 738 0 q 831 26 796 0 q 879 88 867 51 q 879 161 892 124 q 831 224 867 199 l 365 678 q 354 692 356 685 q 357 706 353 699 q 369 716 361 713 q 389 719 378 719 l 972 719 l 996 890 l 379 890 q 285 865 321 890 q 238 803 250 839 q 238 729 226 767 q 286 667 250 692 l 753 213 q 763 199 761 206 q 760 185 764 192 q 747 174 756 178 q 728 169 739 169 l 154 169 m 308 604 q 290 620 299 611 q 275 638 282 629 l 267 646 q 220 702 235 669 q 206 767 206 735 q 217 823 206 796 q 249 871 228 850 q 303 905 271 892 q 379 918 336 918 l 481 918 l 490 978 l 769 1035 l 763 983 l 811 993 l 800 918 l 1028 918 l 1022 876 l 1069 876 l 1039 650 l 432 650 l 849 243 q 869 227 860 236 q 885 207 878 218 l 890 201 q 938 147 922 178 q 954 82 954 115 q 943 26 954 53 q 910 -22 932 -1 q 855 -56 888 -43 q 779 -69 822 -69 l 140 -69 l 146 -28 l 99 -28 l 129 197 l 728 197 l 308 604 m 846 246 l 847 244 l 846 244 l 846 246 z "},"Ť":{"ha":917,"x_min":160,"x_max":1067,"o":"m 482 950 l 614 906 l 757 950 l 765 1007 l 621 963 l 490 1007 l 482 950 m 215 890 l 192 719 l 528 719 l 426 0 l 542 0 l 643 719 l 969 719 l 993 890 l 215 890 m 467 1044 l 621 992 l 800 1046 l 790 989 l 842 1004 l 828 918 l 1025 918 l 1019 876 l 1067 876 l 1036 650 l 708 650 l 608 -69 l 436 -69 l 442 -28 l 394 -28 l 489 650 l 201 650 l 207 692 l 160 692 l 190 918 l 492 918 l 451 932 l 467 1044 z "},"Ź":{"ha":972,"x_min":110,"x_max":1072,"o":"m 760 958 l 765 999 l 544 954 l 538 914 l 760 958 m 907 169 l 311 169 q 293 174 300 169 q 283 185 286 178 q 285 199 281 192 q 300 213 289 206 l 914 667 q 981 729 958 692 q 1002 803 1004 767 q 972 865 1000 839 q 885 890 943 890 l 246 890 l 222 719 l 828 719 q 846 716 839 719 q 856 706 853 713 q 854 692 858 699 q 840 678 850 685 l 225 224 q 158 161 181 199 q 138 88 136 124 q 167 26 139 51 q 254 0 196 0 l 883 0 l 907 169 m 950 -69 l 296 -69 q 213 -52 244 -69 q 165 -7 181 -35 q 124 35 138 8 q 110 93 110 61 q 136 177 110 135 q 211 247 163 219 l 208 246 l 756 650 l 232 650 l 238 692 l 190 692 l 221 918 l 510 918 l 519 978 l 799 1035 l 792 983 l 840 993 l 829 918 l 885 918 q 969 901 938 918 q 1017 856 1001 883 q 1058 814 1044 840 q 1072 757 1072 788 q 1045 673 1072 717 q 969 601 1018 629 l 972 603 l 425 197 l 939 197 l 933 156 l 981 156 l 950 -69 z "},"ś":{"ha":726,"x_min":86,"x_max":801,"o":"m 592 625 l 597 665 l 376 621 l 369 581 l 592 625 m 258 342 l 271 432 q 313 471 276 471 l 717 471 l 728 557 l 313 557 q 172 386 197 557 l 157 269 l 596 269 l 589 222 q 524 169 579 169 l 142 169 l 118 0 l 533 0 q 674 169 649 0 l 699 342 l 258 342 m 754 543 l 801 543 l 783 401 l 354 401 q 340 386 343 401 l 338 369 l 731 369 l 724 328 l 772 328 l 743 124 q 575 -69 714 -69 l 128 -69 l 133 -28 l 86 -28 l 117 197 l 524 197 q 540 200 536 197 l 167 200 l 172 242 l 125 242 l 144 390 q 313 585 172 585 l 342 585 l 351 644 l 631 701 l 624 650 l 672 660 l 661 585 l 760 585 l 754 543 z "},"ť":{"ha":429,"x_min":110,"x_max":582,"o":"m 375 890 l 351 726 l 429 726 l 344 635 l 385 635 l 485 726 l 508 890 l 375 890 m 353 0 l 376 169 l 292 169 q 240 222 236 169 l 276 471 l 375 471 l 431 557 l 288 557 l 319 776 l 228 776 l 142 169 q 235 0 119 0 l 353 0 m 540 918 l 533 876 l 582 876 l 553 671 l 460 585 l 482 585 l 454 543 l 524 543 l 432 401 l 342 401 l 313 197 l 408 197 l 403 156 l 450 156 l 419 -69 l 276 -69 q 171 -14 201 -69 q 110 119 110 18 q 114 174 110 146 l 203 804 l 333 804 l 350 918 l 540 918 z "},"ź":{"ha":658,"x_min":86,"x_max":733,"o":"m 554 625 l 560 665 l 339 621 l 332 581 l 554 625 m 272 169 l 651 493 l 660 557 l 196 557 l 185 471 l 543 471 l 136 125 l 118 0 l 582 0 l 606 169 l 272 169 m 686 543 l 733 543 l 719 438 l 438 197 l 638 197 l 632 156 l 679 156 l 649 -69 l 128 -69 l 133 -28 l 86 -28 l 110 139 l 418 401 l 194 401 l 200 443 l 153 443 l 171 585 l 304 585 l 314 644 l 593 701 l 586 650 l 635 660 l 624 585 l 692 585 l 686 543 z "},"Ą":{"ha":1029,"x_min":-7,"x_max":1151,"o":"m 871 -22 l 760 -22 l 732 -221 l 918 -221 l 922 -185 l 769 -185 l 782 -99 l 935 -99 l 949 0 l 953 0 l 1078 890 l 1039 890 q 960 853 996 890 l 63 0 l 214 0 l 974 714 l 875 8 l 874 0 l 871 -22 m 735 6 l 846 6 l 847 13 l 921 544 l 268 -69 l 35 -69 l 78 -28 l -7 -28 l 940 872 l 939 872 q 1039 918 982 918 l 1110 918 l 1104 876 l 1151 876 l 1019 -69 l 1014 -69 l 1001 -168 l 953 -168 l 949 -199 l 996 -199 l 985 -290 l 742 -290 l 747 -249 l 700 -249 l 735 6 z "},"Ş":{"ha":950,"x_min":99,"x_max":1069,"o":"m 600 -22 l 489 -22 l 492 0 l 738 0 q 831 26 796 0 q 879 88 867 51 q 879 161 892 124 q 831 224 867 199 l 365 678 q 354 692 356 685 q 357 706 353 699 q 369 716 361 713 q 389 719 378 719 l 972 719 l 996 890 l 379 890 q 285 865 321 890 q 238 803 250 839 q 238 729 226 767 q 286 667 250 692 l 753 213 q 763 199 761 206 q 760 185 764 192 q 747 174 756 178 q 728 169 739 169 l 154 169 l 131 0 l 417 0 l 403 -99 l 556 -99 l 543 -185 l 390 -185 l 386 -221 l 572 -221 l 600 -22 m 849 243 q 869 227 860 236 q 885 207 878 218 l 890 201 q 938 147 922 178 q 954 82 954 115 q 943 26 954 53 q 910 -22 932 -1 q 855 -56 888 -43 q 779 -69 822 -69 l 668 -69 l 639 -290 l 396 -290 l 400 -249 l 354 -249 l 365 -157 l 414 -157 l 418 -126 l 371 -126 l 378 -69 l 140 -69 l 146 -28 l 99 -28 l 129 197 l 728 197 l 308 604 q 276 638 288 619 l 267 646 q 220 702 235 669 q 206 767 206 735 q 217 823 206 796 q 249 871 228 850 q 303 905 271 892 q 379 918 336 918 l 1028 918 l 1022 876 l 1069 876 l 1039 650 l 432 650 l 849 243 m 846 246 l 847 244 l 846 244 l 846 246 z "},"Ż":{"ha":972,"x_min":110,"x_max":1072,"o":"m 590 1029 l 575 919 l 689 919 l 704 1029 l 590 1029 m 907 169 l 311 169 q 293 174 300 169 q 283 185 286 178 q 285 199 281 192 q 300 213 289 206 l 914 667 q 981 729 958 692 q 1002 803 1004 767 q 972 865 1000 839 q 885 890 943 890 l 246 890 l 222 719 l 828 719 q 846 716 839 719 q 856 706 853 713 q 854 692 858 699 q 840 678 850 685 l 225 224 q 158 161 181 199 q 138 88 136 124 q 167 26 139 51 q 254 0 196 0 l 883 0 l 907 169 m 736 1057 l 731 1015 l 778 1015 l 764 918 l 885 918 q 969 901 938 918 q 1017 856 1001 883 q 1058 814 1044 840 q 1072 757 1072 788 q 1045 673 1072 717 q 969 601 1018 629 l 972 603 l 425 197 l 939 197 l 933 156 l 981 156 l 950 -69 l 296 -69 q 213 -52 244 -69 q 165 -7 181 -35 q 124 35 138 8 q 110 93 110 61 q 136 177 110 135 q 211 247 163 219 l 208 246 l 756 650 l 232 650 l 238 692 l 190 692 l 221 918 l 546 918 l 565 1057 l 736 1057 z "},"ą":{"ha":726,"x_min":110,"x_max":778,"o":"m 582 169 l 292 169 q 240 222 236 169 l 250 286 l 599 286 l 582 169 m 375 -22 l 264 -22 l 236 -221 l 422 -221 l 426 -185 l 274 -185 l 286 -99 l 439 -99 l 453 0 l 650 0 l 704 386 q 611 557 726 557 l 196 557 l 185 471 l 589 471 q 619 432 626 471 l 606 336 l 165 336 l 142 169 q 235 0 119 0 l 378 0 l 375 -22 m 611 585 q 717 529 686 585 q 778 396 778 497 q 774 340 778 367 l 717 -69 l 518 -69 l 506 -168 l 457 -168 l 453 -199 l 500 -199 l 489 -290 l 246 -290 l 251 -249 l 204 -249 l 229 -62 q 171 -14 190 -50 q 110 119 110 18 q 114 174 110 146 l 140 364 l 581 364 l 586 401 l 194 401 l 200 443 l 153 443 l 171 585 l 611 585 m 313 197 l 557 197 l 560 217 l 315 217 l 313 197 z "},"ş":{"ha":726,"x_min":86,"x_max":801,"o":"m 467 -22 l 356 -22 l 358 0 l 533 0 q 674 169 649 0 l 699 342 l 258 342 l 271 432 q 313 471 276 471 l 717 471 l 728 557 l 313 557 q 172 386 197 557 l 157 269 l 596 269 l 589 222 q 524 169 579 169 l 142 169 l 118 0 l 283 0 l 269 -99 l 422 -99 l 410 -185 l 257 -185 l 253 -221 l 439 -221 l 467 -22 m 724 328 l 772 328 l 743 124 q 575 -69 714 -69 l 535 -69 l 506 -290 l 263 -290 l 267 -249 l 221 -249 l 232 -157 l 281 -157 l 285 -126 l 238 -126 l 244 -69 l 128 -69 l 133 -28 l 86 -28 l 117 197 l 524 197 q 540 200 536 197 l 167 200 l 172 242 l 125 242 l 144 390 q 313 585 172 585 l 760 585 l 754 543 l 801 543 l 783 401 l 354 401 q 340 386 343 401 l 338 369 l 731 369 l 724 328 z "},"Ľ":{"ha":917,"x_min":86,"x_max":938,"o":"m 425 889 l 401 725 l 479 725 l 394 633 l 435 633 l 535 725 l 558 889 l 425 889 m 243 890 l 118 0 l 840 0 l 864 167 l 275 167 l 376 890 l 243 890 m 408 918 l 408 917 l 590 917 l 583 875 l 632 875 l 603 669 l 489 564 l 406 564 l 354 194 l 896 194 l 890 153 l 938 153 l 907 -69 l 128 -69 l 133 -28 l 86 -28 l 218 918 l 408 918 z "},"ľ":{"ha":374,"x_min":86,"x_max":588,"o":"m 381 890 l 357 726 l 435 726 l 350 635 l 390 635 l 490 726 l 514 890 l 381 890 m 243 890 l 118 3 l 232 3 l 357 890 l 243 890 m 546 918 l 539 876 l 588 876 l 558 671 l 444 565 l 388 565 l 299 -67 l 128 -67 l 133 -25 l 86 -25 l 218 918 l 546 918 z "},"ż":{"ha":658,"x_min":86,"x_max":733,"o":"m 400 696 l 385 586 l 499 586 l 514 696 l 400 696 m 272 169 l 651 493 l 660 557 l 196 557 l 185 471 l 543 471 l 136 125 l 118 0 l 582 0 l 606 169 l 272 169 m 546 724 l 540 682 l 588 682 l 574 585 l 692 585 l 686 543 l 733 543 l 719 438 l 438 197 l 638 197 l 632 156 l 679 156 l 649 -69 l 128 -69 l 133 -28 l 86 -28 l 110 139 l 418 401 l 194 401 l 200 443 l 153 443 l 171 585 l 356 585 l 375 724 l 546 724 z "},"Ŕ":{"ha":911,"x_min":86,"x_max":1050,"o":"m 692 958 l 697 999 l 476 954 l 469 914 l 692 958 m 333 719 l 806 719 q 824 716 817 719 q 833 706 831 713 q 832 692 836 699 q 818 678 828 685 l 311 347 l 667 0 l 868 0 l 458 386 l 892 667 q 959 729 936 692 q 980 803 982 767 q 949 865 978 839 q 863 890 921 890 l 243 890 l 118 0 l 232 0 l 333 719 m 936 -28 l 981 -69 l 697 -69 l 346 272 l 299 -69 l 128 -69 l 133 -28 l 86 -28 l 218 918 l 442 918 l 451 978 l 731 1035 l 724 983 l 772 993 l 761 918 l 863 918 q 947 901 915 918 q 994 856 979 883 q 1036 814 1022 840 q 1050 757 1050 788 q 1023 673 1050 717 q 947 601 996 629 l 949 601 l 547 342 l 939 -28 l 936 -28 m 367 417 l 724 650 l 399 650 l 367 417 z "},"Ă":{"ha":1029,"x_min":-7,"x_max":1268,"o":"m 903 943 q 1036 903 976 903 q 1183 943 1096 903 l 1192 1003 q 1042 958 1103 958 q 911 1003 983 958 l 903 943 m 63 0 l 214 0 l 974 714 l 874 0 l 953 0 l 1078 890 l 1039 890 q 960 853 996 890 l 63 0 m 925 1026 q 1042 986 993 986 q 1226 1051 1093 986 l 1218 985 q 1268 1010 1240 994 l 1251 883 q 1146 843 1192 856 l 1019 -69 l 883 -69 l 889 -28 l 842 -28 l 921 544 l 268 -69 l 35 -69 l 78 -28 l -7 -28 l 940 872 l 939 872 q 926 878 932 875 q 914 886 921 882 l 917 906 q 894 915 906 910 q 872 928 883 921 l 883 1007 l 925 1026 z "},"Ĺ":{"ha":917,"x_min":86,"x_max":938,"o":"m 432 958 l 438 999 l 217 954 l 210 914 l 432 958 m 243 890 l 118 0 l 840 0 l 864 167 l 275 167 l 376 890 l 243 890 m 415 876 l 450 876 l 354 194 l 896 194 l 890 153 l 938 153 l 907 -69 l 128 -69 l 133 -28 l 86 -28 l 213 885 l 175 878 l 192 978 l 471 1035 l 464 983 l 513 993 l 499 893 l 415 876 z "},"Ć":{"ha":914,"x_min":110,"x_max":1036,"o":"m 725 958 l 731 999 l 510 954 l 503 914 l 725 958 m 243 890 l 142 169 q 235 0 119 0 l 838 0 l 861 169 l 292 169 q 240 222 236 169 l 311 719 l 939 719 l 963 890 l 243 890 m 475 918 l 485 978 l 764 1035 l 757 983 l 806 993 l 794 918 l 994 918 l 989 876 l 1036 876 l 1006 650 l 376 650 l 313 197 l 893 197 l 888 156 l 935 156 l 904 -69 l 276 -69 q 171 -14 201 -69 q 110 119 110 18 q 114 174 110 146 l 218 918 l 475 918 z "},"Č":{"ha":914,"x_min":110,"x_max":1036,"o":"m 482 950 l 614 906 l 757 950 l 765 1007 l 621 963 l 490 1007 l 482 950 m 243 890 l 142 169 q 235 0 119 0 l 838 0 l 861 169 l 292 169 q 240 222 236 169 l 311 719 l 939 719 l 963 890 l 243 890 m 467 1044 l 621 992 l 800 1046 l 790 989 l 842 1004 l 828 918 l 994 918 l 989 876 l 1036 876 l 1006 650 l 376 650 l 313 197 l 893 197 l 888 156 l 935 156 l 904 -69 l 276 -69 q 171 -14 201 -69 q 110 119 110 18 q 114 174 110 146 l 218 918 l 492 918 l 451 932 l 467 1044 z "},"Ę":{"ha":917,"x_min":86,"x_max":1039,"o":"m 514 -22 l 403 -22 l 375 -221 l 561 -221 l 565 -185 l 413 -185 l 425 -99 l 578 -99 l 592 0 l 517 0 l 514 -22 m 351 611 l 394 522 l 914 522 l 926 611 l 351 611 m 243 890 l 118 0 l 517 0 l 518 8 l 593 8 l 592 0 l 840 0 l 864 167 l 275 167 l 353 719 l 942 719 l 965 890 l 243 890 m 997 918 l 992 876 l 1039 876 l 1008 650 l 418 650 l 417 639 l 958 639 l 953 597 l 1000 597 l 981 453 l 418 453 l 397 494 l 354 194 l 896 194 l 890 153 l 938 153 l 907 -69 l 657 -69 l 644 -168 l 596 -168 l 592 -199 l 639 -199 l 628 -290 l 385 -290 l 390 -249 l 343 -249 l 367 -69 l 128 -69 l 133 -28 l 86 -28 l 218 918 l 997 918 z "},"Ě":{"ha":917,"x_min":86,"x_max":1039,"o":"m 472 950 l 604 906 l 747 950 l 756 1007 l 611 963 l 481 1007 l 472 950 m 351 611 l 394 522 l 914 522 l 926 611 l 351 611 m 243 890 l 118 0 l 840 0 l 864 167 l 275 167 l 353 719 l 942 719 l 965 890 l 243 890 m 457 1044 l 611 992 l 790 1046 l 781 989 l 832 1004 l 818 918 l 997 918 l 992 876 l 1039 876 l 1008 650 l 418 650 l 417 639 l 958 639 l 953 597 l 1000 597 l 981 453 l 418 453 l 397 494 l 354 194 l 896 194 l 890 153 l 938 153 l 907 -69 l 128 -69 l 133 -28 l 86 -28 l 218 918 l 482 918 l 442 932 l 457 1044 z "},"Ď":{"ha":917,"x_min":86,"x_max":1053,"o":"m 433 950 l 565 906 l 708 950 l 717 1007 l 572 963 l 442 1007 l 433 950 m 333 719 l 806 719 q 858 700 847 719 q 833 647 869 681 l 246 96 l 333 719 m 118 0 l 233 0 l 890 625 q 970 731 951 682 q 978 816 989 781 q 936 871 968 851 q 863 890 904 890 l 243 890 l 118 0 m 418 1044 l 572 992 l 751 1046 l 742 989 l 793 1004 l 779 918 l 863 918 q 938 901 903 918 q 992 853 972 883 q 1036 808 1019 835 q 1053 744 1053 781 q 1029 659 1053 704 q 951 563 1006 614 l 951 564 l 286 -69 l 128 -69 l 133 -28 l 86 -28 l 218 918 l 443 918 l 403 932 l 418 1044 m 339 222 l 794 650 l 399 650 l 339 222 z "},"Đ":{"ha":917,"x_min":43,"x_max":1053,"o":"m 333 719 l 806 719 q 858 700 847 719 q 833 647 869 681 l 246 96 l 294 442 l 406 442 l 418 533 l 307 533 l 333 719 m 82 533 l 114 442 l 179 442 l 118 0 l 233 0 l 890 625 q 970 731 951 682 q 978 816 989 781 q 936 871 968 851 q 863 890 904 890 l 243 890 l 193 533 l 82 533 m 168 561 l 218 918 l 863 918 q 938 901 903 918 q 992 853 972 883 q 1036 808 1019 835 q 1053 744 1053 781 q 1029 659 1053 704 q 951 563 1006 614 l 951 564 l 286 -69 l 128 -69 l 133 -28 l 86 -28 l 142 372 l 136 372 l 121 414 l 94 414 l 43 561 l 168 561 m 444 519 l 492 519 l 472 372 l 360 372 l 339 222 l 794 650 l 399 650 l 386 561 l 450 561 l 444 519 z "},"Ń":{"ha":1001,"x_min":86,"x_max":1124,"o":"m 740 958 l 746 999 l 525 954 l 518 914 l 740 958 m 328 683 l 786 0 l 925 0 l 1050 890 l 911 890 l 804 126 l 344 803 l 357 890 l 243 890 l 118 0 l 232 0 l 328 683 m 385 547 l 299 -69 l 128 -69 l 133 -28 l 86 -28 l 218 918 l 389 918 l 383 876 l 431 876 l 415 768 l 788 219 l 886 918 l 1082 918 l 1076 876 l 1124 876 l 992 -69 l 813 -69 l 785 -28 l 771 -28 l 385 547 m 525 836 l 533 888 l 483 878 l 500 978 l 779 1035 l 772 983 l 821 993 l 807 893 l 525 836 z "},"Ň":{"ha":1001,"x_min":86,"x_max":1124,"o":"m 482 950 l 614 906 l 757 950 l 765 1007 l 621 963 l 490 1007 l 482 950 m 328 683 l 786 0 l 925 0 l 1050 890 l 911 890 l 804 126 l 344 803 l 357 890 l 243 890 l 118 0 l 232 0 l 328 683 m 385 547 l 299 -69 l 128 -69 l 133 -28 l 86 -28 l 218 918 l 389 918 l 383 876 l 431 876 l 415 768 l 788 219 l 886 918 l 1082 918 l 1076 876 l 1124 876 l 992 -69 l 813 -69 l 785 -28 l 771 -28 l 385 547 m 467 1044 l 621 992 l 800 1046 l 790 989 l 842 1004 l 824 888 l 656 835 l 493 890 l 496 917 l 451 932 l 467 1044 z "},"Ő":{"ha":997,"x_min":110,"x_max":1096,"o":"m 607 1054 l 451 919 l 499 919 l 654 1054 l 607 1054 m 607 919 l 660 919 l 814 1054 l 763 1054 l 607 919 m 311 719 l 894 719 q 925 681 932 719 l 853 169 l 292 169 q 240 222 236 169 l 311 719 m 921 0 l 1022 719 q 929 890 1046 890 l 243 890 l 142 169 q 235 0 119 0 l 921 0 m 728 1082 l 679 1040 l 704 1040 l 753 1082 l 888 1082 l 839 1040 l 929 1040 l 789 918 l 929 918 q 1035 863 1004 918 q 1096 729 1096 831 q 1092 674 1096 703 l 988 -69 l 276 -69 q 171 -14 201 -69 q 110 119 110 18 q 114 174 110 146 l 218 918 l 408 918 l 597 1082 l 728 1082 m 313 197 l 828 197 l 892 650 l 376 650 l 313 197 z "},"Ř":{"ha":911,"x_min":86,"x_max":1050,"o":"m 468 950 l 600 906 l 743 950 l 751 1007 l 607 963 l 476 1007 l 468 950 m 333 719 l 806 719 q 824 716 817 719 q 833 706 831 713 q 832 692 836 699 q 818 678 828 685 l 311 347 l 667 0 l 868 0 l 458 386 l 892 667 q 959 729 936 692 q 980 803 982 767 q 949 865 978 839 q 863 890 921 890 l 243 890 l 118 0 l 232 0 l 333 719 m 453 1044 l 607 992 l 786 1046 l 776 989 l 828 1004 l 814 918 l 863 918 q 947 901 915 918 q 994 856 979 883 q 1036 814 1022 840 q 1050 757 1050 788 q 1023 673 1050 717 q 947 601 996 629 l 949 601 l 547 342 l 939 -28 l 936 -28 l 981 -69 l 697 -69 l 346 272 l 299 -69 l 128 -69 l 133 -28 l 86 -28 l 218 918 l 478 918 l 438 932 l 453 1044 m 367 417 l 724 650 l 399 650 l 367 417 z "},"Ů":{"ha":997,"x_min":110,"x_max":1119,"o":"m 669 949 l 551 949 l 568 1065 l 686 1065 l 669 949 m 542 1089 l 517 908 l 726 908 l 751 1089 l 542 1089 m 335 890 l 243 890 l 142 169 q 235 0 119 0 l 921 0 l 1046 890 l 954 890 l 853 169 l 292 169 q 240 222 236 169 l 335 890 m 361 876 l 408 876 l 313 197 l 828 197 l 929 918 l 1078 918 l 1072 876 l 1119 876 l 988 -69 l 276 -69 q 171 -14 201 -69 q 110 119 110 18 q 114 174 110 146 l 218 918 l 367 918 l 361 876 m 783 1117 l 778 1075 l 825 1075 l 793 839 l 526 839 l 532 881 l 485 881 l 517 1117 l 783 1117 m 631 976 l 644 976 l 647 996 l 633 996 l 631 976 z "},"Ű":{"ha":997,"x_min":110,"x_max":1119,"o":"m 611 1054 l 456 919 l 503 919 l 658 1054 l 611 1054 m 611 919 l 664 919 l 818 1054 l 767 1054 l 611 919 m 335 890 l 243 890 l 142 169 q 235 0 119 0 l 921 0 l 1046 890 l 954 890 l 853 169 l 292 169 q 240 222 236 169 l 335 890 m 361 876 l 408 876 l 313 197 l 828 197 l 929 918 l 1078 918 l 1072 876 l 1119 876 l 988 -69 l 276 -69 q 171 -14 201 -69 q 110 119 110 18 q 114 174 110 146 l 218 918 l 367 918 l 361 876 m 732 1082 l 683 1040 l 708 1040 l 757 1082 l 892 1082 l 843 1040 l 933 1040 l 715 850 l 579 850 l 626 892 l 601 892 l 554 850 l 424 850 l 471 892 l 382 892 l 601 1082 l 732 1082 z "},"Ţ":{"ha":917,"x_min":160,"x_max":1067,"o":"m 628 -22 l 517 -22 l 519 0 l 542 0 l 643 719 l 969 719 l 993 890 l 215 890 l 192 719 l 528 719 l 426 0 l 444 0 l 431 -99 l 583 -99 l 571 -185 l 418 -185 l 414 -221 l 600 -221 l 628 -22 m 667 -290 l 424 -290 l 428 -249 l 382 -249 l 393 -157 l 442 -157 l 446 -126 l 399 -126 l 413 -28 l 394 -28 l 489 650 l 201 650 l 207 692 l 160 692 l 190 918 l 1025 918 l 1019 876 l 1067 876 l 1036 650 l 708 650 l 618 6 l 660 6 l 654 -36 l 701 -36 l 667 -290 z "},"ŕ":{"ha":429,"x_min":86,"x_max":533,"o":"m 453 625 l 458 665 l 238 621 l 231 581 l 453 625 m 118 0 l 210 0 l 257 335 q 322 386 267 386 l 407 386 l 431 557 l 313 557 q 172 386 197 557 l 118 0 m 457 547 l 457 543 l 504 543 l 474 317 l 364 317 q 326 288 332 317 l 326 289 l 276 -69 l 128 -69 l 133 -28 l 86 -28 l 144 390 q 211 547 160 500 l 196 544 l 213 644 l 492 701 l 485 650 l 533 660 l 519 560 l 457 547 z "},"ă":{"ha":726,"x_min":110,"x_max":778,"o":"m 325 610 q 458 569 399 569 q 606 610 518 569 l 614 669 q 464 625 525 625 q 333 669 406 625 l 325 610 m 582 169 l 292 169 q 240 222 236 169 l 250 286 l 599 286 l 582 169 m 185 471 l 589 471 q 619 432 626 471 l 606 336 l 165 336 l 142 169 q 235 0 119 0 l 650 0 l 704 386 q 611 557 726 557 l 196 557 l 185 471 m 347 693 q 464 653 415 653 q 649 718 515 653 l 640 651 q 690 676 663 661 l 676 571 q 717 529 703 556 q 778 396 778 497 q 774 340 778 367 l 717 -69 l 276 -69 q 171 -14 201 -69 q 110 119 110 18 q 114 174 110 146 l 140 364 l 581 364 l 586 401 l 194 401 l 200 443 l 153 443 l 171 585 l 313 585 q 294 594 301 589 l 306 674 l 347 693 m 313 197 l 557 197 l 560 217 l 315 217 l 313 197 z "},"ĺ":{"ha":308,"x_min":86,"x_max":501,"o":"m 421 958 l 426 999 l 206 954 l 199 914 l 421 958 m 243 890 l 118 3 l 232 3 l 357 890 l 243 890 m 406 876 l 431 876 l 299 -67 l 128 -67 l 133 -25 l 86 -25 l 207 836 l 206 836 l 213 878 l 214 888 l 164 878 l 181 978 l 460 1035 l 453 983 l 501 993 l 488 893 l 406 876 z "},"ć":{"ha":608,"x_min":110,"x_max":683,"o":"m 525 625 l 531 665 l 310 621 l 303 581 l 525 625 m 196 557 l 142 169 q 235 0 119 0 l 532 0 l 556 169 l 292 169 q 240 222 236 169 l 276 471 l 599 471 l 610 557 l 196 557 m 275 585 l 285 644 l 564 701 l 557 650 l 606 660 l 594 585 l 642 585 l 636 543 l 683 543 l 665 401 l 342 401 l 313 197 l 588 197 l 582 156 l 629 156 l 599 -69 l 276 -69 q 171 -14 201 -69 q 110 119 110 18 q 114 174 110 146 l 171 585 l 275 585 z "},"č":{"ha":608,"x_min":110,"x_max":683,"o":"m 293 617 l 425 572 l 568 617 l 576 674 l 432 629 l 301 674 l 293 617 m 196 557 l 142 169 q 235 0 119 0 l 532 0 l 556 169 l 292 169 q 240 222 236 169 l 276 471 l 599 471 l 610 557 l 196 557 m 278 711 l 432 658 l 611 713 l 601 656 l 653 671 l 639 585 l 642 585 l 636 543 l 683 543 l 665 401 l 342 401 l 313 197 l 588 197 l 582 156 l 629 156 l 599 -69 l 276 -69 q 171 -14 201 -69 q 110 119 110 18 q 114 174 110 146 l 171 585 l 303 585 l 263 599 l 278 711 z "},"ę":{"ha":726,"x_min":110,"x_max":778,"o":"m 260 354 l 276 471 l 589 471 q 619 432 626 471 l 608 354 l 260 354 m 385 0 l 382 -22 l 271 -22 l 243 -221 l 429 -221 l 433 -185 l 281 -185 l 293 -99 l 446 -99 l 460 0 l 650 0 l 674 169 l 292 169 q 240 222 236 169 l 253 307 l 693 307 l 704 386 q 611 557 726 557 l 196 557 l 142 169 q 235 0 119 0 l 385 0 m 700 156 l 747 156 l 717 -69 l 525 -69 l 513 -168 l 464 -168 l 460 -199 l 507 -199 l 496 -290 l 253 -290 l 258 -249 l 211 -249 l 236 -64 q 171 -14 193 -54 q 110 119 110 18 q 114 174 110 146 l 171 585 l 611 585 q 717 529 686 585 q 778 396 778 497 q 774 340 778 367 l 760 238 l 318 238 l 313 197 l 706 197 l 700 156 m 339 382 l 583 382 l 586 401 l 342 401 l 339 382 z "},"ě":{"ha":726,"x_min":110,"x_max":778,"o":"m 328 617 l 460 572 l 603 617 l 611 674 l 467 629 l 336 674 l 328 617 m 260 354 l 276 471 l 589 471 q 619 432 626 471 l 608 354 l 260 354 m 650 0 l 674 169 l 292 169 q 240 222 236 169 l 253 307 l 693 307 l 704 386 q 611 557 726 557 l 196 557 l 142 169 q 235 0 119 0 l 650 0 m 313 711 l 467 658 l 646 713 l 636 656 l 688 671 l 672 572 q 717 529 703 557 q 778 396 778 497 q 774 340 778 367 l 760 238 l 318 238 l 313 197 l 706 197 l 700 156 l 747 156 l 717 -69 l 276 -69 q 171 -14 201 -69 q 110 119 110 18 q 114 174 110 146 l 171 585 l 338 585 l 297 599 l 313 711 m 339 382 l 583 382 l 586 401 l 342 401 l 339 382 z "},"ď":{"ha":811,"x_min":110,"x_max":999,"o":"m 792 892 l 768 728 l 846 728 l 761 636 l 801 636 l 901 728 l 925 892 l 792 892 m 276 471 l 625 471 l 582 169 l 292 169 q 240 222 236 169 l 276 471 m 650 0 l 775 890 l 683 890 l 636 557 l 196 557 l 142 169 q 235 0 119 0 l 650 0 m 276 -69 q 171 -14 201 -69 q 110 119 110 18 q 114 174 110 146 l 171 585 l 611 585 l 658 918 l 767 918 l 767 919 l 957 919 l 950 878 l 999 878 l 969 672 l 856 567 l 806 567 l 717 -69 l 276 -69 m 313 197 l 557 197 l 586 401 l 342 401 l 313 197 z "},"đ":{"ha":726,"x_min":110,"x_max":910,"o":"m 276 471 l 625 471 l 582 169 l 292 169 q 240 222 236 169 l 276 471 m 500 768 l 532 676 l 653 676 l 636 557 l 196 557 l 142 169 q 235 0 119 0 l 650 0 l 744 676 l 824 676 l 836 768 l 757 768 l 775 890 l 683 890 l 665 768 l 500 768 m 640 796 l 660 918 l 807 918 l 800 876 l 849 876 l 838 796 l 868 796 l 863 754 l 910 754 l 890 607 l 810 607 l 717 -69 l 276 -69 q 171 -14 201 -69 q 110 119 110 18 q 114 174 110 146 l 171 585 l 611 585 l 614 607 l 554 607 l 539 649 l 513 649 l 461 796 l 640 796 m 313 197 l 557 197 l 586 401 l 342 401 l 313 197 z "},"ń":{"ha":682,"x_min":86,"x_max":733,"o":"m 542 625 l 547 665 l 326 621 l 319 581 l 542 625 m 196 557 l 118 3 l 210 3 l 276 471 l 500 471 q 531 432 538 471 l 469 0 l 606 0 l 660 386 q 567 557 682 557 l 196 557 m 292 585 l 301 644 l 581 701 l 574 650 l 622 660 l 611 579 q 672 529 654 567 q 733 396 733 497 q 729 340 733 367 l 672 -69 l 479 -69 l 485 -28 l 438 -28 l 497 401 l 342 401 l 276 -67 l 128 -67 l 133 -25 l 86 -25 l 171 585 l 292 585 z "},"ň":{"ha":682,"x_min":86,"x_max":733,"o":"m 297 617 l 429 572 l 572 617 l 581 674 l 436 629 l 306 674 l 297 617 m 196 557 l 118 3 l 210 3 l 276 471 l 500 471 q 531 432 538 471 l 469 0 l 606 0 l 660 386 q 567 557 682 557 l 196 557 m 282 711 l 436 658 l 615 713 l 606 656 l 657 671 l 640 565 q 672 529 661 549 q 733 396 733 497 q 729 340 733 367 l 672 -69 l 479 -69 l 485 -28 l 438 -28 l 497 401 l 342 401 l 276 -67 l 128 -67 l 133 -25 l 86 -25 l 171 585 l 307 585 l 267 599 l 282 711 z "},"ő":{"ha":726,"x_min":110,"x_max":778,"o":"m 444 721 l 289 586 l 336 586 l 492 721 l 444 721 m 444 586 l 497 586 l 651 721 l 600 721 l 444 586 m 276 471 l 589 471 q 619 432 626 471 l 582 169 l 292 169 q 240 222 236 169 l 276 471 m 650 0 l 704 386 q 611 557 726 557 l 196 557 l 142 169 q 235 0 119 0 l 650 0 m 565 749 l 517 707 l 542 707 l 590 749 l 725 749 l 676 707 l 767 707 l 626 583 q 717 529 690 579 q 778 396 778 497 q 774 340 778 367 l 717 -69 l 276 -69 q 171 -14 201 -69 q 110 119 110 18 q 114 174 110 146 l 171 585 l 246 585 l 435 749 l 565 749 m 313 197 l 557 197 l 586 401 l 342 401 l 313 197 z "},"ř":{"ha":429,"x_min":86,"x_max":549,"o":"m 189 617 l 321 572 l 464 617 l 472 674 l 328 629 l 197 674 l 189 617 m 118 0 l 210 0 l 257 335 q 322 386 267 386 l 407 386 l 431 557 l 313 557 q 172 386 197 557 l 118 0 m 174 711 l 328 658 l 507 713 l 497 656 l 549 671 l 531 554 l 494 543 l 504 543 l 474 317 l 364 317 q 326 288 332 317 l 326 289 l 276 -69 l 128 -69 l 133 -28 l 86 -28 l 144 390 q 215 551 158 501 l 200 557 l 203 583 l 158 599 l 174 711 z "},"ů":{"ha":704,"x_min":110,"x_max":779,"o":"m 497 615 l 379 615 l 396 732 l 514 732 l 497 615 m 369 756 l 344 575 l 554 575 l 579 756 l 369 756 m 628 0 l 706 557 l 614 557 l 560 169 l 292 169 q 240 222 236 169 l 288 557 l 196 557 l 142 169 q 235 0 119 0 l 628 0 m 611 783 l 606 742 l 653 742 l 631 585 l 738 585 l 732 543 l 779 543 l 694 -69 l 276 -69 q 171 -14 201 -69 q 110 119 110 18 q 114 174 110 146 l 171 585 l 317 585 l 344 783 l 611 783 m 313 197 l 535 197 l 578 506 l 356 506 l 313 197 m 458 643 l 472 643 l 475 663 l 461 663 l 458 643 m 314 543 l 358 543 l 360 547 l 314 547 l 314 543 z "},"ű":{"ha":704,"x_min":110,"x_max":788,"o":"m 465 721 l 310 586 l 357 586 l 513 721 l 465 721 m 465 586 l 518 586 l 672 721 l 621 721 l 465 586 m 628 0 l 706 557 l 614 557 l 560 169 l 292 169 q 240 222 236 169 l 288 557 l 196 557 l 142 169 q 235 0 119 0 l 628 0 m 586 749 l 538 707 l 563 707 l 611 749 l 746 749 l 697 707 l 788 707 l 647 585 l 738 585 l 732 543 l 779 543 l 694 -69 l 276 -69 q 171 -14 201 -69 q 110 119 110 18 q 114 174 110 146 l 171 585 l 267 585 l 456 749 l 586 749 m 481 558 l 456 558 l 408 517 l 357 517 l 313 197 l 535 197 l 581 526 l 569 517 l 433 517 l 481 558 m 315 558 l 314 549 l 325 558 l 315 558 z "},"ţ":{"ha":429,"x_min":110,"x_max":524,"o":"m 408 -22 l 297 -22 l 300 0 l 353 0 l 376 169 l 292 169 q 240 222 236 169 l 276 471 l 375 471 l 431 557 l 288 557 l 319 776 l 228 776 l 142 169 q 225 0 119 7 l 211 -99 l 364 -99 l 351 -185 l 199 -185 l 194 -221 l 381 -221 l 408 -22 m 447 -290 l 204 -290 l 208 -249 l 163 -249 l 174 -157 l 222 -157 l 226 -126 l 179 -126 l 190 -42 q 169 -14 176 -28 q 110 117 110 17 q 114 174 110 144 l 203 804 l 351 804 l 344 763 l 393 763 l 368 585 l 482 585 l 454 543 l 524 543 l 432 401 l 342 401 l 313 197 l 408 197 l 403 156 l 450 156 l 429 6 l 440 6 l 435 -36 l 482 -36 l 447 -290 z "},"Ğ":{"ha":999,"x_min":110,"x_max":1121,"o":"m 517 943 q 650 903 590 903 q 797 943 710 903 l 806 1003 q 656 958 717 958 q 525 1003 597 958 l 517 943 m 374 611 l 407 533 l 904 533 l 853 169 l 292 169 q 240 222 236 169 l 311 719 l 1024 719 l 1047 890 l 243 890 l 142 169 q 235 0 119 0 l 921 0 l 1007 611 l 374 611 m 539 1026 q 656 986 607 986 q 840 1051 707 986 l 832 985 q 882 1010 854 994 l 869 918 l 1079 918 l 1074 876 l 1121 876 l 1090 650 l 376 650 l 375 639 l 1039 639 l 1033 597 l 1081 597 l 988 -69 l 276 -69 q 171 -14 201 -69 q 110 119 110 18 q 114 174 110 146 l 218 918 l 504 918 q 486 928 493 922 l 497 1007 l 539 1026 m 364 563 l 313 197 l 828 197 l 865 464 l 431 464 l 413 506 l 389 506 l 364 563 z "},"İ":{"ha":350,"x_min":86,"x_max":472,"o":"m 279 1029 l 264 919 l 378 919 l 393 1029 l 279 1029 m 243 890 l 118 0 l 274 0 l 399 890 l 243 890 m 425 1057 l 419 1015 l 467 1015 l 447 876 l 472 876 l 340 -69 l 128 -69 l 133 -28 l 86 -28 l 218 918 l 235 918 l 254 1057 l 425 1057 z "},"ğ":{"ha":729,"x_min":110,"x_max":779,"o":"m 324 610 q 457 569 397 569 q 604 610 517 569 l 613 669 q 463 625 524 625 q 332 669 404 625 l 324 610 m 276 471 l 589 471 q 619 432 626 471 l 582 169 l 292 169 q 240 222 236 169 l 276 471 m 558 0 l 553 -36 q 488 -92 536 -92 l 281 -92 l 263 -222 l 503 -222 q 643 -53 618 -222 l 704 386 q 611 557 731 557 l 196 557 l 142 169 q 235 0 119 0 l 558 0 m 346 693 q 463 653 414 653 q 647 718 514 653 l 639 651 q 689 676 661 661 l 675 572 q 719 529 703 558 q 779 401 779 497 q 778 371 779 386 q 774 340 776 356 l 713 -99 q 544 -292 683 -292 l 272 -292 l 278 -250 l 231 -250 l 254 -68 q 171 -14 196 -60 q 110 119 110 18 q 114 174 110 146 l 171 585 l 311 585 q 293 594 300 589 l 304 674 l 346 693 m 313 197 l 557 197 l 586 401 l 342 401 l 313 197 z "},"ŗ":{"ha":429,"x_min":68,"x_max":504,"o":"m 314 -22 l 203 -22 l 206 0 l 210 0 l 257 335 q 322 386 267 386 l 407 386 l 431 557 l 313 557 q 172 386 197 557 l 118 0 l 131 0 l 117 -99 l 269 -99 l 257 -185 l 104 -185 l 100 -221 l 286 -221 l 314 -22 m 353 -290 l 110 -290 l 114 -249 l 68 -249 l 79 -157 l 128 -157 l 132 -126 l 85 -126 l 99 -28 l 86 -28 l 144 390 q 313 585 172 585 l 463 585 l 457 543 l 504 543 l 474 317 l 364 317 q 326 288 332 317 l 326 289 l 286 6 l 346 6 l 340 -36 l 388 -36 l 353 -290 z "},"Ŗ":{"ha":911,"x_min":86,"x_max":1050,"o":"m 531 -22 l 419 -22 l 424 8 l 349 8 l 333 -99 l 486 -99 l 474 -185 l 321 -185 l 317 -221 l 503 -221 l 531 -22 m 333 719 l 806 719 q 824 716 817 719 q 833 706 831 713 q 832 692 836 699 q 818 678 828 685 l 311 347 l 667 0 l 868 0 l 458 386 l 892 667 q 959 729 936 692 q 980 803 982 767 q 949 865 978 839 q 863 890 921 890 l 243 890 l 118 0 l 232 0 l 333 719 m 936 -28 l 981 -69 l 697 -69 l 346 272 l 299 -69 l 128 -69 l 133 -28 l 86 -28 l 218 918 l 863 918 q 947 901 915 918 q 994 856 979 883 q 1036 814 1022 840 q 1050 757 1050 788 q 1023 673 1050 717 q 947 601 996 629 l 949 601 l 547 342 l 939 -28 l 936 -28 m 569 -290 l 326 -290 l 331 -249 l 285 -249 l 296 -157 l 344 -157 l 349 -126 l 301 -126 l 324 36 l 456 36 l 451 6 l 563 6 l 557 -36 l 604 -36 l 569 -290 m 367 417 l 724 650 l 399 650 l 367 417 z "},"Į":{"ha":350,"x_min":-17,"x_max":472,"o":"m 154 -22 l 43 -22 l 15 -221 l 201 -221 l 206 -185 l 53 -185 l 65 -99 l 218 -99 l 232 0 l 274 0 l 399 890 l 243 890 l 118 0 l 157 0 l 154 -22 m 18 6 l 90 6 l 218 918 l 431 918 l 425 876 l 472 876 l 340 -69 l 297 -69 l 285 -168 l 236 -168 l 232 -199 l 279 -199 l 268 -290 l 25 -290 l 31 -249 l -17 -249 l 18 6 z "},"Ā":{"ha":1029,"x_min":-7,"x_max":1317,"o":"m 868 1015 l 856 933 l 1229 933 l 1242 1015 l 868 1015 m 63 0 l 214 0 l 974 714 l 874 0 l 953 0 l 1078 890 l 1039 890 q 960 853 996 890 l 63 0 m 1275 1043 l 1268 1001 l 1317 1001 l 1294 864 l 1149 864 l 1019 -69 l 883 -69 l 889 -28 l 842 -28 l 921 544 l 268 -69 l 35 -69 l 78 -28 l -7 -28 l 931 864 l 864 864 l 871 906 l 822 906 l 844 1043 l 1275 1043 z "},"Ē":{"ha":917,"x_min":86,"x_max":1039,"o":"m 432 1015 l 419 933 l 793 933 l 806 1015 l 432 1015 m 351 611 l 394 522 l 914 522 l 926 611 l 351 611 m 243 890 l 118 0 l 840 0 l 864 167 l 275 167 l 353 719 l 942 719 l 965 890 l 243 890 m 839 1043 l 832 1001 l 881 1001 l 867 918 l 997 918 l 992 876 l 1039 876 l 1008 650 l 418 650 l 417 639 l 958 639 l 953 597 l 1000 597 l 981 453 l 418 453 l 397 494 l 354 194 l 896 194 l 890 153 l 938 153 l 907 -69 l 128 -69 l 133 -28 l 86 -28 l 218 918 l 388 918 l 408 1043 l 839 1043 z "},"Ė":{"ha":917,"x_min":86,"x_max":1039,"o":"m 574 1029 l 558 919 l 672 919 l 688 1029 l 574 1029 m 351 611 l 394 522 l 914 522 l 926 611 l 351 611 m 243 890 l 118 0 l 840 0 l 864 167 l 275 167 l 353 719 l 942 719 l 965 890 l 243 890 m 719 1057 l 714 1015 l 761 1015 l 747 918 l 997 918 l 992 876 l 1039 876 l 1008 650 l 418 650 l 417 639 l 958 639 l 953 597 l 1000 597 l 981 453 l 418 453 l 397 494 l 354 194 l 896 194 l 890 153 l 938 153 l 907 -69 l 128 -69 l 133 -28 l 86 -28 l 218 918 l 529 918 l 549 1057 l 719 1057 z "},"Ģ":{"ha":999,"x_min":110,"x_max":1121,"o":"m 618 -22 l 507 -22 l 510 0 l 921 0 l 1007 611 l 374 611 l 407 533 l 904 533 l 853 169 l 292 169 q 240 222 236 169 l 311 719 l 1024 719 l 1047 890 l 243 890 l 142 169 q 235 0 119 0 l 435 0 l 421 -99 l 574 -99 l 561 -185 l 408 -185 l 404 -221 l 590 -221 l 618 -22 m 1033 597 l 1081 597 l 988 -69 l 686 -69 l 657 -290 l 414 -290 l 418 -249 l 372 -249 l 383 -157 l 432 -157 l 436 -126 l 389 -126 l 396 -69 l 276 -69 q 171 -14 201 -69 q 110 119 110 18 q 114 174 110 146 l 218 918 l 1079 918 l 1074 876 l 1121 876 l 1090 650 l 376 650 l 375 639 l 1039 639 l 1033 597 m 364 563 l 313 197 l 828 197 l 865 464 l 431 464 l 413 506 l 389 506 l 364 563 z "},"Ķ":{"ha":972,"x_min":86,"x_max":1181,"o":"m 549 -22 l 438 -22 l 442 8 l 367 8 l 351 -99 l 504 -99 l 492 -185 l 339 -185 l 335 -221 l 521 -221 l 549 -22 m 118 0 l 232 0 l 357 890 l 243 890 l 118 0 m 311 347 l 733 0 l 935 0 l 461 403 l 1060 890 l 988 890 l 311 347 m 218 918 l 389 918 l 383 876 l 431 876 l 368 429 l 976 918 l 1139 918 l 1088 876 l 1181 876 l 550 363 l 1010 -28 l 1001 -28 l 1051 -69 l 765 -69 l 346 275 l 299 -69 l 128 -69 l 133 -28 l 86 -28 l 218 918 m 588 -290 l 344 -290 l 349 -249 l 303 -249 l 314 -157 l 363 -157 l 367 -126 l 319 -126 l 342 36 l 474 36 l 469 6 l 581 6 l 575 -36 l 622 -36 l 588 -290 z "},"Ī":{"ha":350,"x_min":86,"x_max":603,"o":"m 154 1015 l 142 933 l 515 933 l 528 1015 l 154 1015 m 243 890 l 118 0 l 274 0 l 399 890 l 243 890 m 561 1043 l 554 1001 l 603 1001 l 581 864 l 469 864 l 340 -69 l 128 -69 l 133 -28 l 86 -28 l 210 864 l 150 864 l 157 906 l 108 906 l 131 1043 l 561 1043 z "},"Ļ":{"ha":917,"x_min":86,"x_max":938,"o":"m 549 -22 l 438 -22 l 440 0 l 365 0 l 351 -99 l 504 -99 l 492 -185 l 339 -185 l 335 -221 l 521 -221 l 549 -22 m 243 890 l 118 0 l 365 0 l 367 8 l 442 8 l 440 0 l 840 0 l 864 167 l 275 167 l 376 890 l 243 890 m 408 918 l 403 876 l 450 876 l 354 194 l 896 194 l 890 153 l 938 153 l 907 -69 l 617 -69 l 588 -290 l 344 -290 l 349 -249 l 303 -249 l 314 -157 l 363 -157 l 367 -126 l 319 -126 l 326 -69 l 128 -69 l 133 -28 l 86 -28 l 218 918 l 408 918 z "},"Ņ":{"ha":1001,"x_min":86,"x_max":1124,"o":"m 564 -22 l 453 -22 l 457 8 l 382 8 l 367 -99 l 519 -99 l 507 -185 l 354 -185 l 350 -221 l 536 -221 l 564 -22 m 328 683 l 786 0 l 925 0 l 1050 890 l 911 890 l 804 126 l 344 803 l 357 890 l 243 890 l 118 0 l 232 0 l 328 683 m 385 547 l 299 -69 l 128 -69 l 133 -28 l 86 -28 l 218 918 l 389 918 l 383 876 l 431 876 l 415 768 l 788 219 l 886 918 l 1082 918 l 1076 876 l 1124 876 l 992 -69 l 813 -69 l 785 -28 l 771 -28 l 385 547 m 603 -290 l 360 -290 l 364 -249 l 318 -249 l 329 -157 l 378 -157 l 382 -126 l 335 -126 l 357 36 l 489 36 l 485 6 l 596 6 l 590 -36 l 638 -36 l 603 -290 z "},"Ō":{"ha":997,"x_min":110,"x_max":1096,"o":"m 461 1015 l 449 933 l 822 933 l 835 1015 l 461 1015 m 311 719 l 894 719 q 925 681 932 719 l 853 169 l 292 169 q 240 222 236 169 l 311 719 m 921 0 l 1022 719 q 929 890 1046 890 l 243 890 l 142 169 q 235 0 119 0 l 921 0 m 868 1043 l 861 1001 l 910 1001 l 896 918 l 929 918 q 1035 863 1004 918 q 1096 729 1096 831 q 1092 674 1096 703 l 988 -69 l 276 -69 q 171 -14 201 -69 q 110 119 110 18 q 114 174 110 146 l 218 918 l 417 918 l 438 1043 l 868 1043 m 313 197 l 828 197 l 892 650 l 376 650 l 313 197 z "},"Ų":{"ha":997,"x_min":110,"x_max":1119,"o":"m 521 -22 l 410 -22 l 382 -221 l 568 -221 l 572 -185 l 419 -185 l 432 -99 l 585 -99 l 599 0 l 921 0 l 1046 890 l 954 890 l 853 169 l 292 169 q 240 222 236 169 l 335 890 l 243 890 l 142 169 q 235 0 119 0 l 524 0 l 521 -22 m 1072 876 l 1119 876 l 988 -69 l 664 -69 l 651 -168 l 603 -168 l 599 -199 l 646 -199 l 635 -290 l 392 -290 l 397 -249 l 350 -249 l 374 -69 l 276 -69 q 171 -14 201 -69 q 110 119 110 18 q 114 174 110 146 l 218 918 l 367 918 l 361 876 l 408 876 l 313 197 l 828 197 l 929 918 l 1078 918 l 1072 876 z "},"Ū":{"ha":997,"x_min":110,"x_max":1119,"o":"m 464 1015 l 451 933 l 825 933 l 838 1015 l 464 1015 m 335 890 l 243 890 l 142 169 q 235 0 119 0 l 921 0 l 1046 890 l 954 890 l 853 169 l 292 169 q 240 222 236 169 l 335 890 m 361 876 l 408 876 l 313 197 l 828 197 l 929 918 l 1078 918 l 1072 876 l 1119 876 l 988 -69 l 276 -69 q 171 -14 201 -69 q 110 119 110 18 q 114 174 110 146 l 218 918 l 367 918 l 361 876 m 871 1043 l 864 1001 l 913 1001 l 890 864 l 460 864 l 467 906 l 418 906 l 440 1043 l 871 1043 z "},"į":{"ha":308,"x_min":-35,"x_max":415,"o":"m 208 644 l 322 644 l 342 778 l 228 778 l 208 644 m 136 -22 l 25 -22 l -3 -221 l 183 -221 l 188 -185 l 35 -185 l 47 -99 l 200 -99 l 214 3 l 221 3 l 299 557 l 207 557 l 129 3 l 139 3 l 136 -22 m 203 806 l 374 806 l 368 764 l 415 764 l 389 575 l 329 575 l 325 543 l 372 543 l 288 -67 l 279 -67 l 267 -168 l 218 -168 l 214 -199 l 261 -199 l 250 -290 l 7 -290 l 13 -249 l -35 -249 l 0 6 l 101 6 l 182 585 l 219 585 l 224 617 l 176 617 l 203 806 z "},"ā":{"ha":726,"x_min":110,"x_max":778,"o":"m 278 682 l 265 600 l 639 600 l 651 682 l 278 682 m 582 169 l 292 169 q 240 222 236 169 l 250 286 l 599 286 l 582 169 m 185 471 l 589 471 q 619 432 626 471 l 606 336 l 165 336 l 142 169 q 235 0 119 0 l 650 0 l 704 386 q 611 557 726 557 l 196 557 l 185 471 m 685 710 l 678 668 l 726 668 l 707 546 q 717 529 711 540 q 778 396 778 497 q 774 340 778 367 l 717 -69 l 276 -69 q 171 -14 201 -69 q 110 119 110 18 q 114 174 110 146 l 140 364 l 581 364 l 586 401 l 194 401 l 200 443 l 153 443 l 171 585 l 233 585 l 254 710 l 685 710 m 313 197 l 557 197 l 560 217 l 315 217 l 313 197 z "},"ē":{"ha":726,"x_min":110,"x_max":778,"o":"m 278 682 l 265 600 l 639 600 l 651 682 l 278 682 m 260 354 l 276 471 l 589 471 q 619 432 626 471 l 608 354 l 260 354 m 650 0 l 674 169 l 292 169 q 240 222 236 169 l 253 307 l 693 307 l 704 386 q 611 557 726 557 l 196 557 l 142 169 q 235 0 119 0 l 650 0 m 685 710 l 678 668 l 726 668 l 707 546 q 717 529 711 540 q 778 396 778 497 q 774 340 778 367 l 760 238 l 318 238 l 313 197 l 706 197 l 700 156 l 747 156 l 717 -69 l 276 -69 q 171 -14 201 -69 q 110 119 110 18 q 114 174 110 146 l 171 585 l 233 585 l 254 710 l 685 710 m 339 382 l 583 382 l 586 401 l 342 401 l 339 382 z "},"ė":{"ha":726,"x_min":110,"x_max":778,"o":"m 425 696 l 410 586 l 524 586 l 539 696 l 425 696 m 260 354 l 276 471 l 589 471 q 619 432 626 471 l 608 354 l 260 354 m 650 0 l 674 169 l 292 169 q 240 222 236 169 l 253 307 l 693 307 l 704 386 q 611 557 726 557 l 196 557 l 142 169 q 235 0 119 0 l 650 0 m 571 724 l 565 682 l 613 682 l 599 585 l 611 585 q 717 529 686 585 q 778 396 778 497 q 774 340 778 367 l 760 238 l 318 238 l 313 197 l 706 197 l 700 156 l 747 156 l 717 -69 l 276 -69 q 171 -14 201 -69 q 110 119 110 18 q 114 174 110 146 l 171 585 l 381 585 l 400 724 l 571 724 m 339 382 l 583 382 l 586 401 l 342 401 l 339 382 z "},"ģ":{"ha":729,"x_min":110,"x_max":779,"o":"m 529 578 l 551 742 l 474 742 l 558 833 l 518 833 l 418 742 l 396 578 l 529 578 m 276 471 l 589 471 q 619 432 626 471 l 582 169 l 292 169 q 240 222 236 169 l 276 471 m 558 0 l 553 -36 q 488 -92 536 -92 l 281 -92 l 263 -222 l 503 -222 q 643 -53 618 -222 l 704 386 q 611 557 731 557 l 196 557 l 142 169 q 235 0 119 0 l 558 0 m 611 585 q 719 529 688 585 q 779 401 779 497 q 778 371 779 386 q 774 340 776 356 l 713 -99 q 544 -292 683 -292 l 272 -292 l 278 -250 l 231 -250 l 254 -68 q 171 -14 196 -60 q 110 119 110 18 q 114 174 110 146 l 171 585 l 368 585 l 392 756 l 506 861 l 622 861 l 583 819 l 664 819 l 579 728 l 625 728 l 606 585 l 611 585 m 313 197 l 557 197 l 586 401 l 342 401 l 313 197 z "},"ķ":{"ha":643,"x_min":86,"x_max":713,"o":"m 446 -22 l 335 -22 l 339 8 l 264 8 l 249 -99 l 401 -99 l 389 -185 l 236 -185 l 232 -221 l 418 -221 l 446 -22 m 118 0 l 232 0 l 269 269 l 426 0 l 567 0 l 368 324 l 604 557 l 532 557 l 275 310 l 357 890 l 243 890 l 118 0 m 218 918 l 389 918 l 383 876 l 431 876 l 368 438 l 521 585 l 671 585 l 628 543 l 713 543 l 444 278 l 657 -69 l 514 -69 l 485 -290 l 242 -290 l 246 -249 l 200 -249 l 211 -157 l 260 -157 l 264 -126 l 217 -126 l 224 -69 l 128 -69 l 133 -28 l 86 -28 l 218 918 m 367 6 l 392 6 l 325 119 l 313 36 l 371 36 l 367 6 z "},"ī":{"ha":308,"x_min":36,"x_max":531,"o":"m 82 682 l 69 600 l 443 600 l 456 682 l 82 682 m 207 557 l 129 3 l 221 3 l 299 557 l 207 557 m 489 710 l 482 668 l 531 668 l 508 531 l 369 531 l 288 -67 l 139 -67 l 144 -25 l 97 -25 l 174 531 l 78 531 l 85 572 l 36 572 l 58 710 l 489 710 z "},"ļ":{"ha":308,"x_min":76,"x_max":431,"o":"m 322 -22 l 211 -22 l 214 3 l 232 3 l 357 890 l 243 890 l 118 3 l 139 3 l 125 -99 l 278 -99 l 265 -185 l 113 -185 l 108 -221 l 294 -221 l 322 -22 m 361 -290 l 118 -290 l 122 -249 l 76 -249 l 88 -157 l 136 -157 l 140 -126 l 93 -126 l 107 -25 l 86 -25 l 218 918 l 389 918 l 383 876 l 431 876 l 308 6 l 354 6 l 349 -36 l 396 -36 l 361 -290 z "},"ņ":{"ha":682,"x_min":86,"x_max":733,"o":"m 454 -22 l 343 -22 l 347 8 l 272 8 l 257 -99 l 410 -99 l 397 -185 l 244 -185 l 240 -221 l 426 -221 l 454 -22 m 196 557 l 118 3 l 210 3 l 276 471 l 500 471 q 531 432 538 471 l 469 0 l 606 0 l 660 386 q 567 557 682 557 l 196 557 m 567 585 q 672 529 642 585 q 733 396 733 497 q 729 340 733 367 l 672 -69 l 522 -69 l 493 -290 l 250 -290 l 254 -249 l 208 -249 l 219 -157 l 268 -157 l 272 -126 l 225 -126 l 233 -67 l 128 -67 l 133 -25 l 86 -25 l 171 585 l 567 585 m 375 6 l 442 6 l 497 401 l 342 401 l 290 36 l 379 36 l 375 6 m 482 -28 l 481 -36 l 483 -36 l 485 -28 l 482 -28 z "},"ō":{"ha":726,"x_min":110,"x_max":778,"o":"m 279 682 l 267 600 l 640 600 l 653 682 l 279 682 m 276 471 l 589 471 q 619 432 626 471 l 582 169 l 292 169 q 240 222 236 169 l 276 471 m 650 0 l 704 386 q 611 557 726 557 l 196 557 l 142 169 q 235 0 119 0 l 650 0 m 686 710 l 679 668 l 728 668 l 707 544 q 717 529 713 536 q 778 396 778 497 q 774 340 778 367 l 717 -69 l 276 -69 q 171 -14 201 -69 q 110 119 110 18 q 114 174 110 146 l 171 585 l 235 585 l 256 710 l 686 710 m 313 197 l 557 197 l 586 401 l 342 401 l 313 197 z "},"ų":{"ha":704,"x_min":110,"x_max":779,"o":"m 418 0 l 415 -22 l 304 -22 l 276 -221 l 463 -221 l 467 -185 l 314 -185 l 326 -99 l 479 -99 l 493 0 l 628 0 l 706 557 l 614 557 l 560 169 l 292 169 q 240 222 236 169 l 288 557 l 196 557 l 142 169 q 235 0 119 0 l 418 0 m 732 543 l 779 543 l 694 -69 l 558 -69 l 546 -168 l 497 -168 l 493 -199 l 540 -199 l 529 -290 l 286 -290 l 292 -249 l 244 -249 l 268 -69 q 171 -14 197 -65 q 110 119 110 18 q 114 174 110 146 l 171 585 l 319 585 l 314 543 l 361 543 l 313 197 l 535 197 l 589 585 l 738 585 l 732 543 z "},"ū":{"ha":704,"x_min":110,"x_max":779,"o":"m 276 682 l 264 600 l 638 600 l 650 682 l 276 682 m 628 0 l 706 557 l 614 557 l 560 169 l 292 169 q 240 222 236 169 l 288 557 l 196 557 l 142 169 q 235 0 119 0 l 628 0 m 683 710 l 676 668 l 725 668 l 711 585 l 738 585 l 732 543 l 779 543 l 694 -69 l 276 -69 q 171 -14 201 -69 q 110 119 110 18 q 114 174 110 146 l 171 585 l 232 585 l 253 710 l 683 710 m 313 197 l 535 197 l 581 531 l 358 531 l 313 197 z "},"}":{"ha":1964,"x_min":142,"x_max":1933,"o":"m 142 407 l 143 407 l 143 472 l 236 472 l 236 511 l 211 511 l 211 633 l 236 633 l 236 676 l 211 676 l 211 728 l 821 728 l 821 664 q 788 682 811 682 q 724 575 724 682 q 790 469 724 469 q 833 496 811 469 l 833 472 l 867 472 l 867 728 l 1386 728 l 1386 692 l 1433 692 l 1433 728 l 1933 728 l 1933 0 l 142 0 l 142 407 m 1358 472 l 1358 603 q 1293 678 1358 678 q 1250 644 1260 678 q 1211 678 1238 678 q 1174 644 1188 678 l 1174 676 l 1129 676 l 1129 511 l 1103 511 l 1103 472 l 1200 472 l 1200 511 l 1174 511 l 1174 596 q 1200 628 1174 628 q 1221 596 1221 628 l 1221 472 l 1292 472 l 1292 511 l 1265 511 l 1265 596 q 1292 626 1265 626 q 1313 596 1313 626 l 1313 472 l 1358 472 m 1425 371 l 1347 371 l 1347 108 l 1392 108 l 1392 278 l 1396 278 l 1408 108 l 1489 108 l 1489 371 l 1444 371 l 1444 201 l 1440 201 l 1425 371 m 722 371 l 722 108 l 832 108 l 847 138 l 847 224 l 836 243 l 836 247 l 847 267 l 847 343 l 832 371 l 722 371 m 1203 343 l 1203 138 l 1217 108 l 1310 108 l 1326 138 l 1326 343 l 1311 371 l 1217 371 l 1203 343 m 432 371 l 432 108 l 485 108 l 485 224 l 500 224 l 500 108 l 557 108 l 557 214 l 536 243 l 536 247 l 557 275 l 557 343 l 542 371 l 432 371 m 411 407 l 457 407 l 457 485 q 490 468 467 468 q 554 574 554 468 q 488 679 554 679 q 444 651 468 679 l 444 676 l 411 676 l 411 407 m 715 572 q 639 681 715 681 q 564 572 564 681 q 639 467 564 467 q 715 572 715 467 m 1700 290 l 1753 290 l 1753 343 l 1739 371 l 1647 371 l 1632 343 l 1632 251 l 1649 224 l 1700 211 l 1700 158 l 1686 158 l 1686 197 l 1632 197 l 1632 138 l 1647 108 l 1738 108 l 1753 138 l 1753 238 l 1735 267 l 1686 278 l 1686 324 l 1700 324 l 1700 290 m 411 108 l 411 204 l 375 371 l 318 371 l 286 204 l 286 108 l 338 108 l 338 158 l 356 158 l 356 108 l 411 108 m 700 108 l 700 204 l 667 371 l 610 371 l 578 204 l 578 108 l 631 108 l 631 158 l 647 158 l 647 108 l 700 108 m 290 407 l 319 407 q 396 506 396 415 l 396 676 l 350 676 l 350 550 q 322 514 350 514 q 296 550 296 514 l 296 676 l 251 676 l 251 558 q 315 469 251 469 q 350 481 335 469 q 311 449 350 449 l 290 449 l 290 407 m 997 221 l 1033 221 l 1033 267 l 997 267 l 997 315 l 1033 315 l 1033 371 l 944 371 l 944 108 l 1033 108 l 1033 167 l 997 167 l 997 221 m 1147 217 l 1181 217 l 1181 263 l 1147 263 l 1147 315 l 1181 315 l 1181 371 l 1093 371 l 1093 108 l 1147 108 l 1147 217 m 1533 315 l 1533 108 l 1588 108 l 1588 315 l 1617 315 l 1617 371 l 1504 371 l 1504 315 l 1533 315 m 1007 676 l 986 676 l 986 644 q 940 681 971 681 q 881 621 881 681 q 911 571 881 583 q 879 525 879 558 q 942 467 881 467 q 990 485 972 467 q 1007 540 1007 503 l 986 540 q 951 514 982 514 q 924 533 924 514 q 951 558 924 558 l 965 558 l 965 583 l 951 583 q 924 607 924 583 q 951 629 924 629 q 986 601 975 629 l 1007 601 l 1007 676 m 1578 674 l 1556 674 l 1556 644 q 1514 681 1539 681 q 1444 572 1444 681 q 1515 468 1444 468 q 1578 549 1565 468 l 1556 549 q 1521 517 1551 517 q 1489 572 1489 517 q 1521 629 1489 629 q 1556 592 1553 629 l 1578 592 l 1578 674 m 265 167 l 235 167 l 235 371 l 182 371 l 182 108 l 265 108 l 265 167 m 924 108 l 924 371 l 869 371 l 869 108 l 924 108 m 1083 511 l 1064 511 l 1064 601 q 1083 629 1064 629 q 1100 621 1092 629 l 1115 667 q 1092 678 1104 676 q 1049 644 1063 678 l 1049 676 l 1022 676 l 1022 472 l 1083 472 l 1083 511 m 1365 676 l 1365 633 l 1386 633 l 1386 472 l 1433 472 l 1433 676 l 1365 676 m 453 607 q 482 628 461 628 q 511 575 511 628 q 481 515 511 515 q 453 538 461 515 l 453 607 m 669 572 q 639 517 669 517 q 610 572 610 517 q 639 629 610 629 q 669 572 669 629 m 824 540 q 796 521 815 521 q 767 574 767 521 q 797 633 767 633 q 824 611 815 633 l 824 540 m 143 511 l 143 633 l 169 633 l 169 511 l 143 511 m 1256 158 l 1256 324 l 1271 324 l 1271 158 l 1256 158 m 143 676 l 143 728 l 169 728 l 169 676 l 143 676 m 338 197 l 338 224 l 346 293 l 349 293 l 356 224 l 356 197 l 338 197 m 631 197 l 631 224 l 638 293 l 642 293 l 647 224 l 647 197 l 631 197 m 776 224 l 792 224 l 792 158 l 776 158 l 776 224 m 776 267 l 776 324 l 792 324 l 792 267 l 776 267 m 485 267 l 485 324 l 500 324 l 500 267 l 485 267 z "}," ":{"ha":278,"x_min":0,"x_max":0,"o":""}}}
